<?xml version="1.0" encoding="UTF-8" standalone="no"?>
<!-- Created with Inkscape (http://www.inkscape.org/) -->

<svg
   width="135.81943mm"
   height="103.71667mm"
   viewBox="0 0 135.81942 103.71667"
   version="1.1"
   id="svg1"
   xml:space="preserve"
   xmlns="http://www.w3.org/2000/svg"
   xmlns:svg="http://www.w3.org/2000/svg"><defs
     id="defs1"><clipPath
       clipPathUnits="userSpaceOnUse"
       id="clipPath1"><path
         d="M 0,0 H 793.33333 V 1121.3333 H 0 Z"
         id="path1" /></clipPath></defs><g
     id="g1"
     clip-path="url(#clipPath1)"
     transform="matrix(0.26458333,0,0,0.26458334,1.1520208e-5,0)"><rect
       style="fill:#ffffff;stroke-width:6.67087"
       id="rect2"
       width="513.33331"
       height="392"
       x="-1.625e-05"
       y="0" /><path
       id="path3"
       d="m 741,140 h 40 v 40 h -40 z"
       style="fill:#ffffff;fill-opacity:1;fill-rule:nonzero;stroke:#000000;stroke-width:1;stroke-linecap:butt;stroke-linejoin:miter;stroke-miterlimit:10;stroke-dasharray:none;stroke-opacity:1"
       transform="matrix(0.6,0,0,0.6,-65.333333,-62.666667)" /><path
       id="path4"
       d="m 745.1,172 h 33.6 l -16.8,-24 z"
       style="fill:#000000;fill-opacity:1;fill-rule:nonzero;stroke:#000000;stroke-width:1;stroke-linecap:butt;stroke-linejoin:miter;stroke-miterlimit:10;stroke-dasharray:none;stroke-opacity:1"
       transform="matrix(0,0.6,-0.6,0,487.74667,-423.74667)" /><path
       id="path5"
       d="m 290,330 h 40 v 40 h -40 z"
       style="fill:#ffffff;fill-opacity:1;fill-rule:nonzero;stroke:#000000;stroke-width:1;stroke-linecap:butt;stroke-linejoin:miter;stroke-miterlimit:10;stroke-dasharray:none;stroke-opacity:1"
       transform="matrix(0.6,0,0,0.6,-65.333333,-62.666667)" /><path
       id="path6"
       d="m 294.1,362 h 33.6 l -16.8,-24 z"
       style="fill:#000000;fill-opacity:1;fill-rule:nonzero;stroke:#000000;stroke-width:1;stroke-linecap:butt;stroke-linejoin:miter;stroke-miterlimit:10;stroke-dasharray:none;stroke-opacity:1"
       transform="matrix(0,0.6,-0.6,0,331.14667,-39.206667)" /><path
       id="path7"
       d="m 450,330 h 40 v 40 h -40 z"
       style="fill:#ffffff;fill-opacity:1;fill-rule:nonzero;stroke:#000000;stroke-width:1;stroke-linecap:butt;stroke-linejoin:miter;stroke-miterlimit:10;stroke-dasharray:none;stroke-opacity:1"
       transform="matrix(0.6,0,0,0.6,-65.333333,-62.666667)" /><path
       id="path8"
       d="m 454.1,362 h 33.6 l -16.8,-24 z"
       style="fill:#000000;fill-opacity:1;fill-rule:nonzero;stroke:#000000;stroke-width:1;stroke-linecap:butt;stroke-linejoin:miter;stroke-miterlimit:10;stroke-dasharray:none;stroke-opacity:1"
       transform="matrix(0,0.6,-0.6,0,427.14667,-135.14667)" /><path
       id="path9"
       d="m 650,300 h 40 v 40 h -40 z"
       style="fill:#ffffff;fill-opacity:1;fill-rule:nonzero;stroke:#000000;stroke-width:1;stroke-linecap:butt;stroke-linejoin:miter;stroke-miterlimit:10;stroke-dasharray:none;stroke-opacity:1"
       transform="matrix(0.6,0,0,0.6,-65.333333,-62.666667)" /><path
       id="path10"
       d="m 654.1,332 h 33.6 l -16.8,-24 z"
       style="fill:#000000;fill-opacity:1;fill-rule:nonzero;stroke:#000000;stroke-width:1;stroke-linecap:butt;stroke-linejoin:miter;stroke-miterlimit:10;stroke-dasharray:none;stroke-opacity:1"
       transform="matrix(0,0.6,-0.6,0,529.14667,-273.14667)" /><path
       id="path11"
       d="m 649.6,359 h 40 v 40 h -40 z"
       style="fill:#ffffff;fill-opacity:1;fill-rule:nonzero;stroke:#000000;stroke-width:1;stroke-linecap:butt;stroke-linejoin:miter;stroke-miterlimit:10;stroke-dasharray:none;stroke-opacity:1"
       transform="matrix(-0.6,0,0,-0.6,738.18667,392.13333)" /><path
       id="path12"
       d="m 651.9,391 h 33.6 l -16.8,-24 z"
       style="fill:#000000;fill-opacity:1;fill-rule:nonzero;stroke:#000000;stroke-width:1;stroke-linecap:butt;stroke-linejoin:miter;stroke-miterlimit:10;stroke-dasharray:none;stroke-opacity:1"
       transform="matrix(0,-0.6,0.6,0,108.48667,565.95333)" /><path
       id="path13"
       d="M 130,290 H 290 V 410 H 130 Z"
       style="fill:#ffffff;fill-opacity:1;fill-rule:nonzero;stroke:#000000;stroke-width:2;stroke-linecap:butt;stroke-linejoin:miter;stroke-miterlimit:10;stroke-dasharray:none;stroke-opacity:1"
       transform="matrix(0.6,0,0,0.6,-65.333333,-62.666667)" /><path
       id="path14"
       d="m 479,-223 c -6,133 103,143 236,137 V -43 0 H 78 v -43 -43 c 122,7 194,-27 194,-147 v -502 -502 c 3,-115 -76,-146 -194,-139 v -43 -43 h 575 c 309,2 504,125 504,428 0,321 -213,462 -549,465 H 479 v 173 z m 457,-803 c 0,-225 -92,-342 -318,-338 H 479 v 349 349 h 109 c 246,7 348,-114 348,-360"
       style="fill:#000000;fill-opacity:1;fill-rule:nonzero;stroke:none"
       transform="matrix(0.005268,0,0,0.005268,31.266667,151.05333)" /><path
       id="path15"
       d="m 434,-223 c -4,128 95,144 225,137 V -43 0 H 68 v -43 -43 c 112,4 174,-35 174,-147 V -552.5 -872 c 2,-108 -66,-143 -174,-140 v -43 -43 h 315 l 39,203 h 10 c 50,-120 106,-223 281,-223 151,0 257,68 211,208 -21,64 -90,87 -181,87 -2,-101 -16,-160 -108,-160 -128,0 -157,140 -183,255 -33,148 -12,333 -18,505"
       style="fill:#000000;fill-opacity:1;fill-rule:nonzero;stroke:none"
       transform="matrix(0.005268,0,0,0.005268,37.783183,151.05333)" /><path
       id="path16"
       d="m 594,-1118 c 338,0 472,222 475,567 2,360 -143,571 -481,571 -338,0 -473,-225 -475,-571 -2,-359 142,-567 481,-567 z m -4,108 c -241,0 -279,212 -279,459 0,249 39,465 281,465 242,0 278,-216 278,-465 0,-248 -38,-459 -280,-459"
       style="fill:#000000;fill-opacity:1;fill-rule:nonzero;stroke:none"
       transform="matrix(0.005268,0,0,0.005268,42.761443,151.05333)" /><path
       id="path17"
       d="m 893,-256 c 39,28 47,103 13,150 C 845,-22 730,20 580,20 248,20 113,-200 113,-543 c 0,-349 119,-575 456,-575 140,0 259,39 325,116 44,51 42,161 -14,193 -31,18 -76,29 -137,29 -1,-134 -38,-239 -174,-236 -232,6 -258,224 -258,471 0,264 65,427 310,432 127,2 227,-62 272,-143"
       style="fill:#000000;fill-opacity:1;fill-rule:nonzero;stroke:none"
       transform="matrix(0.005268,0,0,0.005268,48.988219,151.05333)" /><path
       id="path18"
       d="m 786,-645 c -4,-191 -36,-363 -223,-363 -76,0 -134,30 -175,92 -41,62 -66,152 -73,271 z m 123,393 c 43,21 51,90 17,136 C 862,-29 744,20 588,20 257,20 117,-205 113,-541 c -4,-348 134,-577 454,-577 327,0 443,231 426,583 H 311 c 7,242 67,426 305,426 140,0 234,-60 293,-143"
       style="fill:#000000;fill-opacity:1;fill-rule:nonzero;stroke:none"
       transform="matrix(0.005268,0,0,0.005268,54.298363,151.05333)" /><path
       id="path19"
       d="M 834,-301 C 834,-70 665,20 430,20 250,20 92,-26 92,-197 c 0,-88 47,-135 129,-141 1,157 63,257 221,260 156,3 257,-97 214,-252 -47,-85 -142,-109 -240,-157 -153,-75 -310,-122 -310,-340 0,-212 169,-289 386,-289 130,0 232,36 280,116 31,53 24,126 -20,162 -26,22 -62,33 -109,33 0,-130 -49,-217 -176,-217 -120,1 -195,48 -195,164 0,149 143,163 254,217 154,74 308,124 308,340"
       style="fill:#000000;fill-opacity:1;fill-rule:nonzero;stroke:none"
       transform="matrix(0.005268,0,0,0.005268,60.072091,151.05333)" /><path
       id="path20"
       d="M 834,-301 C 834,-70 665,20 430,20 250,20 92,-26 92,-197 c 0,-88 47,-135 129,-141 1,157 63,257 221,260 156,3 257,-97 214,-252 -47,-85 -142,-109 -240,-157 -153,-75 -310,-122 -310,-340 0,-212 169,-289 386,-289 130,0 232,36 280,116 31,53 24,126 -20,162 -26,22 -62,33 -109,33 0,-130 -49,-217 -176,-217 -120,1 -195,48 -195,164 0,149 143,163 254,217 154,74 308,124 308,340"
       style="fill:#000000;fill-opacity:1;fill-rule:nonzero;stroke:none"
       transform="matrix(0.005268,0,0,0.005268,64.939723,151.05333)" /><path
       id="path21"
       d="m 594,-1118 c 338,0 472,222 475,567 2,360 -143,571 -481,571 -338,0 -473,-225 -475,-571 -2,-359 142,-567 481,-567 z m -4,108 c -241,0 -279,212 -279,459 0,249 39,465 281,465 242,0 278,-216 278,-465 0,-248 -38,-459 -280,-459"
       style="fill:#000000;fill-opacity:1;fill-rule:nonzero;stroke:none"
       transform="matrix(0.005268,0,0,0.005268,69.807355,151.05333)" /><path
       id="path22"
       d="m 434,-223 c -4,128 95,144 225,137 V -43 0 H 68 v -43 -43 c 112,4 174,-35 174,-147 V -552.5 -872 c 2,-108 -66,-143 -174,-140 v -43 -43 h 315 l 39,203 h 10 c 50,-120 106,-223 281,-223 151,0 257,68 211,208 -21,64 -90,87 -181,87 -2,-101 -16,-160 -108,-160 -128,0 -157,140 -183,255 -33,148 -12,333 -18,505"
       style="fill:#000000;fill-opacity:1;fill-rule:nonzero;stroke:none"
       transform="matrix(0.005268,0,0,0.005268,76.034131,151.05333)" /><path
       id="path23"
       d="M 709,-233 C 699,-82 828,-79 977,-86 V -43 0 H 197 v -43 -43 h 137 c 108,3 168,-38 168,-147 v -538 -538 c -64,75 -120,150 -204,197 -78,44 -169,-10 -163,-94 181,-48 304,-168 443,-264 h 131 v 618.5 618.5"
       style="fill:#000000;fill-opacity:1;fill-rule:nonzero;stroke:none"
       transform="matrix(0.005268,0,0,0.005268,83.946667,151.05333)" /><path
       id="path24"
       d="M 490,280 H 650 V 420 H 490 Z"
       style="fill:#ffffff;fill-opacity:1;fill-rule:nonzero;stroke:#000000;stroke-width:2;stroke-linecap:butt;stroke-linejoin:miter;stroke-miterlimit:10;stroke-dasharray:none;stroke-opacity:1"
       transform="matrix(0.6,0,0,0.6,-65.333333,-62.666667)" /><path
       id="path25"
       d="m 674,-1376 c -119,-7 -195,23 -195,139 v 567.5 567.5 h 404 c 178,-1 180,-179 200,-338 h 107 L 1176,0 H 78 v -43 -43 c 122,7 194,-27 194,-147 v -498 -498 c 4,-120 -72,-154 -194,-147 v -43 -43 h 596 v 43 43"
       style="fill:#000000;fill-opacity:1;fill-rule:nonzero;stroke:none"
       transform="matrix(0.005268,0,0,0.005268,240.24667,151.05333)" /><path
       id="path26"
       d="M 709,-233 C 699,-82 828,-79 977,-86 V -43 0 H 197 v -43 -43 h 137 c 108,3 168,-38 168,-147 v -538 -538 c -64,75 -120,150 -204,197 -78,44 -169,-10 -163,-94 181,-48 304,-168 443,-264 h 131 v 618.5 618.5"
       style="fill:#000000;fill-opacity:1;fill-rule:nonzero;stroke:none"
       transform="matrix(0.005268,0,0,0.005268,246.96863,151.05333)" /><path
       id="path27"
       d="m 705,-1462 c 450,9 667,274 667,729 0,455 -212,733 -667,733 H 78 v -43 -43 c 122,7 194,-27 194,-147 v -502 -502 c 3,-115 -76,-146 -194,-139 v -43 -43 z m 440,729 c 2,-374 -134,-623 -486,-627 H 479 v 628 628 h 178 c 362,-7 486,-260 488,-629"
       style="fill:#000000;fill-opacity:1;fill-rule:nonzero;stroke:none"
       transform="matrix(0.005268,0,0,0.005268,255.84667,151.05333)" /><path
       id="path28"
       d="m 467,-106 c 176,0 267,-107 272,-285 v -83 -83 c -189,6 -378,9 -423,154 -10,31 -15,66 -15,106 0,123 47,191 166,191 z m 272,-535 c 5,-199 13,-375 -190,-375 -142,0 -190,83 -187,223 -106,-2 -174,-27 -174,-129 0,-169 191,-191 369,-196 250,-7 375,104 375,354 v 265.5 265.5 c -3,100 32,153 133,147 V -43 0 H 788 L 756,-176 H 739 C 664,-76 596,23 420,20 213,16 102,-97 102,-307 c 0,-109 41,-186 116,-242 100,-75 325,-89 521,-92"
       style="fill:#000000;fill-opacity:1;fill-rule:nonzero;stroke:none"
       transform="matrix(0.005268,0,0,0.005268,263.69072,151.05333)" /><path
       id="path29"
       d="m 387,-291 c -2,124 47,200 156,203 51,1 88,-6 131,-14 v 45 45 C 626,8 560,18 492,20 278,25 195,-83 195,-297 V -639 -981 H 39 v -41 -41 c 170,-8 224,-133 254,-287 h 94 v 126 126 h 268 v 58.5 58.5 H 387 v 345 345"
       style="fill:#000000;fill-opacity:1;fill-rule:nonzero;stroke:none"
       transform="matrix(0.005268,0,0,0.005268,269.65936,151.05333)" /><path
       id="path30"
       d="m 467,-106 c 176,0 267,-107 272,-285 v -83 -83 c -189,6 -378,9 -423,154 -10,31 -15,66 -15,106 0,123 47,191 166,191 z m 272,-535 c 5,-199 13,-375 -190,-375 -142,0 -190,83 -187,223 -106,-2 -174,-27 -174,-129 0,-169 191,-191 369,-196 250,-7 375,104 375,354 v 265.5 265.5 c -3,100 32,153 133,147 V -43 0 H 788 L 756,-176 H 739 C 664,-76 596,23 420,20 213,16 102,-97 102,-307 c 0,-109 41,-186 116,-242 100,-75 325,-89 521,-92"
       style="fill:#000000;fill-opacity:1;fill-rule:nonzero;stroke:none"
       transform="matrix(0.005268,0,0,0.005268,273.45759,151.05333)" /><path
       id="path31"
       d="m 1141,-289 c 47,27 51,110 13,159 C 1076,-28 927,20 739,20 300,20 117,-290 117,-733 c 0,-346 130,-585 372,-695 199,-90 579,-71 673,84 39,64 27,161 -25,196 -32,21 -74,38 -127,38 -5,-158 -78,-264 -240,-264 -349,0 -426,285 -426,641 0,266 62,478 232,573 54,30 119,45 194,45 183,1 293,-72 371,-174"
       style="fill:#000000;fill-opacity:1;fill-rule:nonzero;stroke:none"
       transform="matrix(0.005268,0,0,0.005268,282.36667,151.05333)" /><path
       id="path32"
       d="m 467,-106 c 176,0 267,-107 272,-285 v -83 -83 c -189,6 -378,9 -423,154 -10,31 -15,66 -15,106 0,123 47,191 166,191 z m 272,-535 c 5,-199 13,-375 -190,-375 -142,0 -190,83 -187,223 -106,-2 -174,-27 -174,-129 0,-169 191,-191 369,-196 250,-7 375,104 375,354 v 265.5 265.5 c -3,100 32,153 133,147 V -43 0 H 788 L 756,-176 H 739 C 664,-76 596,23 420,20 213,16 102,-97 102,-307 c 0,-109 41,-186 116,-242 100,-75 325,-89 521,-92"
       style="fill:#000000;fill-opacity:1;fill-rule:nonzero;stroke:none"
       transform="matrix(0.005268,0,0,0.005268,288.98854,151.05333)" /><path
       id="path33"
       d="m 893,-256 c 39,28 47,103 13,150 C 845,-22 730,20 580,20 248,20 113,-200 113,-543 c 0,-349 119,-575 456,-575 140,0 259,39 325,116 44,51 42,161 -14,193 -31,18 -76,29 -137,29 -1,-134 -38,-239 -174,-236 -232,6 -258,224 -258,471 0,264 65,427 310,432 127,2 227,-62 272,-143"
       style="fill:#000000;fill-opacity:1;fill-rule:nonzero;stroke:none"
       transform="matrix(0.005268,0,0,0.005268,295.06255,151.05333)" /><path
       id="path34"
       d="m 414,-223 c -3,108 66,141 174,137 V -43 0 H 37 v -43 -43 c 117,6 184,-31 184,-147 v -549 -549 c 2,-112 -70,-144 -184,-139 v -43 -43 h 377 c -3,208 7,429 -8,624 h 10 c 61,-124 162,-186 301,-186 253,1 362,144 362,401 v 242 242 c -3,110 54,152 164,147 V -43 0 H 887 V -353.5 -707 c 0,-170 -55,-283 -225,-280 -186,3 -248,143 -248,332 v 216 216"
       style="fill:#000000;fill-opacity:1;fill-rule:nonzero;stroke:none"
       transform="matrix(0.005268,0,0,0.005268,300.37269,151.05333)" /><path
       id="path35"
       d="m 786,-645 c -4,-191 -36,-363 -223,-363 -76,0 -134,30 -175,92 -41,62 -66,152 -73,271 z m 123,393 c 43,21 51,90 17,136 C 862,-29 744,20 588,20 257,20 117,-205 113,-541 c -4,-348 134,-577 454,-577 327,0 443,231 426,583 H 311 c 7,242 67,426 305,426 140,0 234,-60 293,-143"
       style="fill:#000000;fill-opacity:1;fill-rule:nonzero;stroke:none"
       transform="matrix(0.005268,0,0,0.005268,307.22109,151.05333)" /><path
       id="path36"
       d="M 330,350 H 450"
       style="fill:none;stroke:#000000;stroke-width:2;stroke-linecap:butt;stroke-linejoin:miter;stroke-miterlimit:10;stroke-dasharray:none;stroke-opacity:1"
       transform="matrix(0.6,0,0,0.6,-65.333333,-62.666667)" /><path
       id="path37"
       d="m 290,170 h 40 v 40 h -40 z"
       style="fill:#ffffff;fill-opacity:1;fill-rule:nonzero;stroke:#000000;stroke-width:1;stroke-linecap:butt;stroke-linejoin:miter;stroke-miterlimit:10;stroke-dasharray:none;stroke-opacity:1"
       transform="matrix(0.6,0,0,0.6,-65.333333,-62.666667)" /><path
       id="path38"
       d="m 294.1,202 h 33.6 l -16.8,-24 z"
       style="fill:#000000;fill-opacity:1;fill-rule:nonzero;stroke:#000000;stroke-width:1;stroke-linecap:butt;stroke-linejoin:miter;stroke-miterlimit:10;stroke-dasharray:none;stroke-opacity:1"
       transform="matrix(0,0.6,-0.6,0,235.14667,-135.14667)" /><path
       id="path39"
       d="m 450,170 h 40 v 40 h -40 z"
       style="fill:#ffffff;fill-opacity:1;fill-rule:nonzero;stroke:#000000;stroke-width:1;stroke-linecap:butt;stroke-linejoin:miter;stroke-miterlimit:10;stroke-dasharray:none;stroke-opacity:1"
       transform="matrix(0.6,0,0,0.6,-65.333333,-62.666667)" /><path
       id="path40"
       d="m 454.1,202 h 33.6 l -16.8,-24 z"
       style="fill:#000000;fill-opacity:1;fill-rule:nonzero;stroke:#000000;stroke-width:1;stroke-linecap:butt;stroke-linejoin:miter;stroke-miterlimit:10;stroke-dasharray:none;stroke-opacity:1"
       transform="matrix(0,0.6,-0.6,0,331.14667,-231.14667)" /><path
       id="path41"
       d="m 650,140 h 40 v 40 h -40 z"
       style="fill:#ffffff;fill-opacity:1;fill-rule:nonzero;stroke:#000000;stroke-width:1;stroke-linecap:butt;stroke-linejoin:miter;stroke-miterlimit:10;stroke-dasharray:none;stroke-opacity:1"
       transform="matrix(0.6,0,0,0.6,-65.333333,-62.666667)" /><path
       id="path42"
       d="m 654.1,172 h 33.6 l -16.8,-24 z"
       style="fill:#000000;fill-opacity:1;fill-rule:nonzero;stroke:#000000;stroke-width:1;stroke-linecap:butt;stroke-linejoin:miter;stroke-miterlimit:10;stroke-dasharray:none;stroke-opacity:1"
       transform="matrix(0,0.6,-0.6,0,433.14667,-369.14667)" /><path
       id="path43"
       d="m 649.6,199 h 40 v 40 h -40 z"
       style="fill:#ffffff;fill-opacity:1;fill-rule:nonzero;stroke:#000000;stroke-width:1;stroke-linecap:butt;stroke-linejoin:miter;stroke-miterlimit:10;stroke-dasharray:none;stroke-opacity:1"
       transform="matrix(-0.6,0,0,-0.6,738.18667,200.13333)" /><path
       id="path44"
       d="m 651.9,231 h 33.6 l -16.8,-24 z"
       style="fill:#000000;fill-opacity:1;fill-rule:nonzero;stroke:#000000;stroke-width:1;stroke-linecap:butt;stroke-linejoin:miter;stroke-miterlimit:10;stroke-dasharray:none;stroke-opacity:1"
       transform="matrix(0,-0.6,0.6,0,204.48667,469.95333)" /><path
       id="path45"
       d="M 130,130 H 290 V 250 H 130 Z"
       style="fill:#ffffff;fill-opacity:1;fill-rule:nonzero;stroke:#000000;stroke-width:2;stroke-linecap:butt;stroke-linejoin:miter;stroke-miterlimit:10;stroke-dasharray:none;stroke-opacity:1"
       transform="matrix(0.6,0,0,0.6,-65.333333,-62.666667)" /><path
       id="path46"
       d="m 479,-223 c -6,133 103,143 236,137 V -43 0 H 78 v -43 -43 c 122,7 194,-27 194,-147 v -502 -502 c 3,-115 -76,-146 -194,-139 v -43 -43 h 575 c 309,2 504,125 504,428 0,321 -213,462 -549,465 H 479 v 173 z m 457,-803 c 0,-225 -92,-342 -318,-338 H 479 v 349 349 h 109 c 246,7 348,-114 348,-360"
       style="fill:#000000;fill-opacity:1;fill-rule:nonzero;stroke:none"
       transform="matrix(0.005268,0,0,0.005268,31.266667,55.053333)" /><path
       id="path47"
       d="m 434,-223 c -4,128 95,144 225,137 V -43 0 H 68 v -43 -43 c 112,4 174,-35 174,-147 V -552.5 -872 c 2,-108 -66,-143 -174,-140 v -43 -43 h 315 l 39,203 h 10 c 50,-120 106,-223 281,-223 151,0 257,68 211,208 -21,64 -90,87 -181,87 -2,-101 -16,-160 -108,-160 -128,0 -157,140 -183,255 -33,148 -12,333 -18,505"
       style="fill:#000000;fill-opacity:1;fill-rule:nonzero;stroke:none"
       transform="matrix(0.005268,0,0,0.005268,37.783183,55.053333)" /><path
       id="path48"
       d="m 594,-1118 c 338,0 472,222 475,567 2,360 -143,571 -481,571 -338,0 -473,-225 -475,-571 -2,-359 142,-567 481,-567 z m -4,108 c -241,0 -279,212 -279,459 0,249 39,465 281,465 242,0 278,-216 278,-465 0,-248 -38,-459 -280,-459"
       style="fill:#000000;fill-opacity:1;fill-rule:nonzero;stroke:none"
       transform="matrix(0.005268,0,0,0.005268,42.761443,55.053333)" /><path
       id="path49"
       d="m 893,-256 c 39,28 47,103 13,150 C 845,-22 730,20 580,20 248,20 113,-200 113,-543 c 0,-349 119,-575 456,-575 140,0 259,39 325,116 44,51 42,161 -14,193 -31,18 -76,29 -137,29 -1,-134 -38,-239 -174,-236 -232,6 -258,224 -258,471 0,264 65,427 310,432 127,2 227,-62 272,-143"
       style="fill:#000000;fill-opacity:1;fill-rule:nonzero;stroke:none"
       transform="matrix(0.005268,0,0,0.005268,48.988219,55.053333)" /><path
       id="path50"
       d="m 786,-645 c -4,-191 -36,-363 -223,-363 -76,0 -134,30 -175,92 -41,62 -66,152 -73,271 z m 123,393 c 43,21 51,90 17,136 C 862,-29 744,20 588,20 257,20 117,-205 113,-541 c -4,-348 134,-577 454,-577 327,0 443,231 426,583 H 311 c 7,242 67,426 305,426 140,0 234,-60 293,-143"
       style="fill:#000000;fill-opacity:1;fill-rule:nonzero;stroke:none"
       transform="matrix(0.005268,0,0,0.005268,54.298363,55.053333)" /><path
       id="path51"
       d="M 834,-301 C 834,-70 665,20 430,20 250,20 92,-26 92,-197 c 0,-88 47,-135 129,-141 1,157 63,257 221,260 156,3 257,-97 214,-252 -47,-85 -142,-109 -240,-157 -153,-75 -310,-122 -310,-340 0,-212 169,-289 386,-289 130,0 232,36 280,116 31,53 24,126 -20,162 -26,22 -62,33 -109,33 0,-130 -49,-217 -176,-217 -120,1 -195,48 -195,164 0,149 143,163 254,217 154,74 308,124 308,340"
       style="fill:#000000;fill-opacity:1;fill-rule:nonzero;stroke:none"
       transform="matrix(0.005268,0,0,0.005268,60.072091,55.053333)" /><path
       id="path52"
       d="M 834,-301 C 834,-70 665,20 430,20 250,20 92,-26 92,-197 c 0,-88 47,-135 129,-141 1,157 63,257 221,260 156,3 257,-97 214,-252 -47,-85 -142,-109 -240,-157 -153,-75 -310,-122 -310,-340 0,-212 169,-289 386,-289 130,0 232,36 280,116 31,53 24,126 -20,162 -26,22 -62,33 -109,33 0,-130 -49,-217 -176,-217 -120,1 -195,48 -195,164 0,149 143,163 254,217 154,74 308,124 308,340"
       style="fill:#000000;fill-opacity:1;fill-rule:nonzero;stroke:none"
       transform="matrix(0.005268,0,0,0.005268,64.939723,55.053333)" /><path
       id="path53"
       d="m 594,-1118 c 338,0 472,222 475,567 2,360 -143,571 -481,571 -338,0 -473,-225 -475,-571 -2,-359 142,-567 481,-567 z m -4,108 c -241,0 -279,212 -279,459 0,249 39,465 281,465 242,0 278,-216 278,-465 0,-248 -38,-459 -280,-459"
       style="fill:#000000;fill-opacity:1;fill-rule:nonzero;stroke:none"
       transform="matrix(0.005268,0,0,0.005268,69.807355,55.053333)" /><path
       id="path54"
       d="m 434,-223 c -4,128 95,144 225,137 V -43 0 H 68 v -43 -43 c 112,4 174,-35 174,-147 V -552.5 -872 c 2,-108 -66,-143 -174,-140 v -43 -43 h 315 l 39,203 h 10 c 50,-120 106,-223 281,-223 151,0 257,68 211,208 -21,64 -90,87 -181,87 -2,-101 -16,-160 -108,-160 -128,0 -157,140 -183,255 -33,148 -12,333 -18,505"
       style="fill:#000000;fill-opacity:1;fill-rule:nonzero;stroke:none"
       transform="matrix(0.005268,0,0,0.005268,76.034131,55.053333)" /><path
       id="path55"
       d="m 934,-1279 c 156,241 159,841 0,1092 C 859,-69 752,20 573,20 184,20 92,-334 92,-735 c 0,-318 66,-577 264,-695 114,-68 314,-71 428,0 59,37 108,87 150,151 z m -486,-51 c -167,147 -156,561 -129,868 13,142 51,258 129,328 64,58 188,58 251,0 125,-116 141,-350 141,-599 0,-249 -14,-481 -140,-597 -62,-58 -189,-56 -252,0"
       style="fill:#000000;fill-opacity:1;fill-rule:nonzero;stroke:none"
       transform="matrix(0.005268,0,0,0.005268,83.946667,55.053333)" /><path
       id="path56"
       d="M 490,120 H 650 V 260 H 490 Z"
       style="fill:#ffffff;fill-opacity:1;fill-rule:nonzero;stroke:#000000;stroke-width:2;stroke-linecap:butt;stroke-linejoin:miter;stroke-miterlimit:10;stroke-dasharray:none;stroke-opacity:1"
       transform="matrix(0.6,0,0,0.6,-65.333333,-62.666667)" /><path
       id="path57"
       d="m 674,-1376 c -119,-7 -195,23 -195,139 v 567.5 567.5 h 404 c 178,-1 180,-179 200,-338 h 107 L 1176,0 H 78 v -43 -43 c 122,7 194,-27 194,-147 v -498 -498 c 4,-120 -72,-154 -194,-147 v -43 -43 h 596 v 43 43"
       style="fill:#000000;fill-opacity:1;fill-rule:nonzero;stroke:none"
       transform="matrix(0.005268,0,0,0.005268,240.24667,55.053333)" /><path
       id="path58"
       d="M 709,-233 C 699,-82 828,-79 977,-86 V -43 0 H 197 v -43 -43 h 137 c 108,3 168,-38 168,-147 v -538 -538 c -64,75 -120,150 -204,197 -78,44 -169,-10 -163,-94 181,-48 304,-168 443,-264 h 131 v 618.5 618.5"
       style="fill:#000000;fill-opacity:1;fill-rule:nonzero;stroke:none"
       transform="matrix(0.005268,0,0,0.005268,246.96863,55.053333)" /><path
       id="path59"
       d="m 705,-1462 c 450,9 667,274 667,729 0,455 -212,733 -667,733 H 78 v -43 -43 c 122,7 194,-27 194,-147 v -502 -502 c 3,-115 -76,-146 -194,-139 v -43 -43 z m 440,729 c 2,-374 -134,-623 -486,-627 H 479 v 628 628 h 178 c 362,-7 486,-260 488,-629"
       style="fill:#000000;fill-opacity:1;fill-rule:nonzero;stroke:none"
       transform="matrix(0.005268,0,0,0.005268,255.84667,55.053333)" /><path
       id="path60"
       d="m 467,-106 c 176,0 267,-107 272,-285 v -83 -83 c -189,6 -378,9 -423,154 -10,31 -15,66 -15,106 0,123 47,191 166,191 z m 272,-535 c 5,-199 13,-375 -190,-375 -142,0 -190,83 -187,223 -106,-2 -174,-27 -174,-129 0,-169 191,-191 369,-196 250,-7 375,104 375,354 v 265.5 265.5 c -3,100 32,153 133,147 V -43 0 H 788 L 756,-176 H 739 C 664,-76 596,23 420,20 213,16 102,-97 102,-307 c 0,-109 41,-186 116,-242 100,-75 325,-89 521,-92"
       style="fill:#000000;fill-opacity:1;fill-rule:nonzero;stroke:none"
       transform="matrix(0.005268,0,0,0.005268,263.69072,55.053333)" /><path
       id="path61"
       d="m 387,-291 c -2,124 47,200 156,203 51,1 88,-6 131,-14 v 45 45 C 626,8 560,18 492,20 278,25 195,-83 195,-297 V -639 -981 H 39 v -41 -41 c 170,-8 224,-133 254,-287 h 94 v 126 126 h 268 v 58.5 58.5 H 387 v 345 345"
       style="fill:#000000;fill-opacity:1;fill-rule:nonzero;stroke:none"
       transform="matrix(0.005268,0,0,0.005268,269.65936,55.053333)" /><path
       id="path62"
       d="m 467,-106 c 176,0 267,-107 272,-285 v -83 -83 c -189,6 -378,9 -423,154 -10,31 -15,66 -15,106 0,123 47,191 166,191 z m 272,-535 c 5,-199 13,-375 -190,-375 -142,0 -190,83 -187,223 -106,-2 -174,-27 -174,-129 0,-169 191,-191 369,-196 250,-7 375,104 375,354 v 265.5 265.5 c -3,100 32,153 133,147 V -43 0 H 788 L 756,-176 H 739 C 664,-76 596,23 420,20 213,16 102,-97 102,-307 c 0,-109 41,-186 116,-242 100,-75 325,-89 521,-92"
       style="fill:#000000;fill-opacity:1;fill-rule:nonzero;stroke:none"
       transform="matrix(0.005268,0,0,0.005268,273.45759,55.053333)" /><path
       id="path63"
       d="m 1141,-289 c 47,27 51,110 13,159 C 1076,-28 927,20 739,20 300,20 117,-290 117,-733 c 0,-346 130,-585 372,-695 199,-90 579,-71 673,84 39,64 27,161 -25,196 -32,21 -74,38 -127,38 -5,-158 -78,-264 -240,-264 -349,0 -426,285 -426,641 0,266 62,478 232,573 54,30 119,45 194,45 183,1 293,-72 371,-174"
       style="fill:#000000;fill-opacity:1;fill-rule:nonzero;stroke:none"
       transform="matrix(0.005268,0,0,0.005268,282.36667,55.053333)" /><path
       id="path64"
       d="m 467,-106 c 176,0 267,-107 272,-285 v -83 -83 c -189,6 -378,9 -423,154 -10,31 -15,66 -15,106 0,123 47,191 166,191 z m 272,-535 c 5,-199 13,-375 -190,-375 -142,0 -190,83 -187,223 -106,-2 -174,-27 -174,-129 0,-169 191,-191 369,-196 250,-7 375,104 375,354 v 265.5 265.5 c -3,100 32,153 133,147 V -43 0 H 788 L 756,-176 H 739 C 664,-76 596,23 420,20 213,16 102,-97 102,-307 c 0,-109 41,-186 116,-242 100,-75 325,-89 521,-92"
       style="fill:#000000;fill-opacity:1;fill-rule:nonzero;stroke:none"
       transform="matrix(0.005268,0,0,0.005268,288.98854,55.053333)" /><path
       id="path65"
       d="m 893,-256 c 39,28 47,103 13,150 C 845,-22 730,20 580,20 248,20 113,-200 113,-543 c 0,-349 119,-575 456,-575 140,0 259,39 325,116 44,51 42,161 -14,193 -31,18 -76,29 -137,29 -1,-134 -38,-239 -174,-236 -232,6 -258,224 -258,471 0,264 65,427 310,432 127,2 227,-62 272,-143"
       style="fill:#000000;fill-opacity:1;fill-rule:nonzero;stroke:none"
       transform="matrix(0.005268,0,0,0.005268,295.06255,55.053333)" /><path
       id="path66"
       d="m 414,-223 c -3,108 66,141 174,137 V -43 0 H 37 v -43 -43 c 117,6 184,-31 184,-147 v -549 -549 c 2,-112 -70,-144 -184,-139 v -43 -43 h 377 c -3,208 7,429 -8,624 h 10 c 61,-124 162,-186 301,-186 253,1 362,144 362,401 v 242 242 c -3,110 54,152 164,147 V -43 0 H 887 V -353.5 -707 c 0,-170 -55,-283 -225,-280 -186,3 -248,143 -248,332 v 216 216"
       style="fill:#000000;fill-opacity:1;fill-rule:nonzero;stroke:none"
       transform="matrix(0.005268,0,0,0.005268,300.37269,55.053333)" /><path
       id="path67"
       d="m 786,-645 c -4,-191 -36,-363 -223,-363 -76,0 -134,30 -175,92 -41,62 -66,152 -73,271 z m 123,393 c 43,21 51,90 17,136 C 862,-29 744,20 588,20 257,20 117,-205 113,-541 c -4,-348 134,-577 454,-577 327,0 443,231 426,583 H 311 c 7,242 67,426 305,426 140,0 234,-60 293,-143"
       style="fill:#000000;fill-opacity:1;fill-rule:nonzero;stroke:none"
       transform="matrix(0.005268,0,0,0.005268,307.22109,55.053333)" /><path
       id="path68"
       d="M 330,190 H 450"
       style="fill:none;stroke:#000000;stroke-width:2;stroke-linecap:butt;stroke-linejoin:miter;stroke-miterlimit:10;stroke-dasharray:none;stroke-opacity:1"
       transform="matrix(0.6,0,0,0.6,-65.333333,-62.666667)" /><path
       id="path69"
       d="m 290,490 h 40 v 40 h -40 z"
       style="fill:#ffffff;fill-opacity:1;fill-rule:nonzero;stroke:#000000;stroke-width:1;stroke-linecap:butt;stroke-linejoin:miter;stroke-miterlimit:10;stroke-dasharray:none;stroke-opacity:1"
       transform="matrix(0.6,0,0,0.6,-65.333333,-62.666667)" /><path
       id="path70"
       d="m 294.1,522 h 33.6 l -16.8,-24 z"
       style="fill:#000000;fill-opacity:1;fill-rule:nonzero;stroke:#000000;stroke-width:1;stroke-linecap:butt;stroke-linejoin:miter;stroke-miterlimit:10;stroke-dasharray:none;stroke-opacity:1"
       transform="matrix(0,0.6,-0.6,0,427.14667,56.793333)" /><path
       id="path71"
       d="m 450,490 h 40 v 40 h -40 z"
       style="fill:#ffffff;fill-opacity:1;fill-rule:nonzero;stroke:#000000;stroke-width:1;stroke-linecap:butt;stroke-linejoin:miter;stroke-miterlimit:10;stroke-dasharray:none;stroke-opacity:1"
       transform="matrix(0.6,0,0,0.6,-65.333333,-62.666667)" /><path
       id="path72"
       d="m 454.1,522 h 33.6 l -16.8,-24 z"
       style="fill:#000000;fill-opacity:1;fill-rule:nonzero;stroke:#000000;stroke-width:1;stroke-linecap:butt;stroke-linejoin:miter;stroke-miterlimit:10;stroke-dasharray:none;stroke-opacity:1"
       transform="matrix(0,0.6,-0.6,0,523.14667,-39.206667)" /><path
       id="path73"
       d="m 650,460 h 40 v 40 h -40 z"
       style="fill:#ffffff;fill-opacity:1;fill-rule:nonzero;stroke:#000000;stroke-width:1;stroke-linecap:butt;stroke-linejoin:miter;stroke-miterlimit:10;stroke-dasharray:none;stroke-opacity:1"
       transform="matrix(0.6,0,0,0.6,-65.333333,-62.666667)" /><path
       id="path74"
       d="m 654.1,492 h 33.6 l -16.8,-24 z"
       style="fill:#000000;fill-opacity:1;fill-rule:nonzero;stroke:#000000;stroke-width:1;stroke-linecap:butt;stroke-linejoin:miter;stroke-miterlimit:10;stroke-dasharray:none;stroke-opacity:1"
       transform="matrix(0,0.6,-0.6,0,625.14667,-177.14667)" /><path
       id="path75"
       d="m 649.6,519 h 40 v 40 h -40 z"
       style="fill:#ffffff;fill-opacity:1;fill-rule:nonzero;stroke:#000000;stroke-width:1;stroke-linecap:butt;stroke-linejoin:miter;stroke-miterlimit:10;stroke-dasharray:none;stroke-opacity:1"
       transform="matrix(-0.6,0,0,-0.6,738.18667,584.13333)" /><path
       id="path76"
       d="m 651.9,551 h 33.6 l -16.8,-24 z"
       style="fill:#000000;fill-opacity:1;fill-rule:nonzero;stroke:#000000;stroke-width:1;stroke-linecap:butt;stroke-linejoin:miter;stroke-miterlimit:10;stroke-dasharray:none;stroke-opacity:1"
       transform="matrix(0,-0.6,0.6,0,12.486667,661.95333)" /><path
       id="path77"
       d="M 130,450 H 290 V 570 H 130 Z"
       style="fill:#ffffff;fill-opacity:1;fill-rule:nonzero;stroke:#000000;stroke-width:2;stroke-linecap:butt;stroke-linejoin:miter;stroke-miterlimit:10;stroke-dasharray:none;stroke-opacity:1"
       transform="matrix(0.6,0,0,0.6,-65.333333,-62.666667)" /><path
       id="path78"
       d="m 479,-223 c -6,133 103,143 236,137 V -43 0 H 78 v -43 -43 c 122,7 194,-27 194,-147 v -502 -502 c 3,-115 -76,-146 -194,-139 v -43 -43 h 575 c 309,2 504,125 504,428 0,321 -213,462 -549,465 H 479 v 173 z m 457,-803 c 0,-225 -92,-342 -318,-338 H 479 v 349 349 h 109 c 246,7 348,-114 348,-360"
       style="fill:#000000;fill-opacity:1;fill-rule:nonzero;stroke:none"
       transform="matrix(0.005268,0,0,0.005268,31.266667,247.05333)" /><path
       id="path79"
       d="m 434,-223 c -4,128 95,144 225,137 V -43 0 H 68 v -43 -43 c 112,4 174,-35 174,-147 V -552.5 -872 c 2,-108 -66,-143 -174,-140 v -43 -43 h 315 l 39,203 h 10 c 50,-120 106,-223 281,-223 151,0 257,68 211,208 -21,64 -90,87 -181,87 -2,-101 -16,-160 -108,-160 -128,0 -157,140 -183,255 -33,148 -12,333 -18,505"
       style="fill:#000000;fill-opacity:1;fill-rule:nonzero;stroke:none"
       transform="matrix(0.005268,0,0,0.005268,37.783183,247.05333)" /><path
       id="path80"
       d="m 594,-1118 c 338,0 472,222 475,567 2,360 -143,571 -481,571 -338,0 -473,-225 -475,-571 -2,-359 142,-567 481,-567 z m -4,108 c -241,0 -279,212 -279,459 0,249 39,465 281,465 242,0 278,-216 278,-465 0,-248 -38,-459 -280,-459"
       style="fill:#000000;fill-opacity:1;fill-rule:nonzero;stroke:none"
       transform="matrix(0.005268,0,0,0.005268,42.761443,247.05333)" /><path
       id="path81"
       d="m 893,-256 c 39,28 47,103 13,150 C 845,-22 730,20 580,20 248,20 113,-200 113,-543 c 0,-349 119,-575 456,-575 140,0 259,39 325,116 44,51 42,161 -14,193 -31,18 -76,29 -137,29 -1,-134 -38,-239 -174,-236 -232,6 -258,224 -258,471 0,264 65,427 310,432 127,2 227,-62 272,-143"
       style="fill:#000000;fill-opacity:1;fill-rule:nonzero;stroke:none"
       transform="matrix(0.005268,0,0,0.005268,48.988219,247.05333)" /><path
       id="path82"
       d="m 786,-645 c -4,-191 -36,-363 -223,-363 -76,0 -134,30 -175,92 -41,62 -66,152 -73,271 z m 123,393 c 43,21 51,90 17,136 C 862,-29 744,20 588,20 257,20 117,-205 113,-541 c -4,-348 134,-577 454,-577 327,0 443,231 426,583 H 311 c 7,242 67,426 305,426 140,0 234,-60 293,-143"
       style="fill:#000000;fill-opacity:1;fill-rule:nonzero;stroke:none"
       transform="matrix(0.005268,0,0,0.005268,54.298363,247.05333)" /><path
       id="path83"
       d="M 834,-301 C 834,-70 665,20 430,20 250,20 92,-26 92,-197 c 0,-88 47,-135 129,-141 1,157 63,257 221,260 156,3 257,-97 214,-252 -47,-85 -142,-109 -240,-157 -153,-75 -310,-122 -310,-340 0,-212 169,-289 386,-289 130,0 232,36 280,116 31,53 24,126 -20,162 -26,22 -62,33 -109,33 0,-130 -49,-217 -176,-217 -120,1 -195,48 -195,164 0,149 143,163 254,217 154,74 308,124 308,340"
       style="fill:#000000;fill-opacity:1;fill-rule:nonzero;stroke:none"
       transform="matrix(0.005268,0,0,0.005268,60.072091,247.05333)" /><path
       id="path84"
       d="M 834,-301 C 834,-70 665,20 430,20 250,20 92,-26 92,-197 c 0,-88 47,-135 129,-141 1,157 63,257 221,260 156,3 257,-97 214,-252 -47,-85 -142,-109 -240,-157 -153,-75 -310,-122 -310,-340 0,-212 169,-289 386,-289 130,0 232,36 280,116 31,53 24,126 -20,162 -26,22 -62,33 -109,33 0,-130 -49,-217 -176,-217 -120,1 -195,48 -195,164 0,149 143,163 254,217 154,74 308,124 308,340"
       style="fill:#000000;fill-opacity:1;fill-rule:nonzero;stroke:none"
       transform="matrix(0.005268,0,0,0.005268,64.939723,247.05333)" /><path
       id="path85"
       d="m 594,-1118 c 338,0 472,222 475,567 2,360 -143,571 -481,571 -338,0 -473,-225 -475,-571 -2,-359 142,-567 481,-567 z m -4,108 c -241,0 -279,212 -279,459 0,249 39,465 281,465 242,0 278,-216 278,-465 0,-248 -38,-459 -280,-459"
       style="fill:#000000;fill-opacity:1;fill-rule:nonzero;stroke:none"
       transform="matrix(0.005268,0,0,0.005268,69.807355,247.05333)" /><path
       id="path86"
       d="m 434,-223 c -4,128 95,144 225,137 V -43 0 H 68 v -43 -43 c 112,4 174,-35 174,-147 V -552.5 -872 c 2,-108 -66,-143 -174,-140 v -43 -43 h 315 l 39,203 h 10 c 50,-120 106,-223 281,-223 151,0 257,68 211,208 -21,64 -90,87 -181,87 -2,-101 -16,-160 -108,-160 -128,0 -157,140 -183,255 -33,148 -12,333 -18,505"
       style="fill:#000000;fill-opacity:1;fill-rule:nonzero;stroke:none"
       transform="matrix(0.005268,0,0,0.005268,76.034131,247.05333)" /><path
       id="path87"
       d="m 528,-1483 c 243,0 416,104 416,342 0,196 -101,308 -198,428 -150,186 -330,369 -490,549 h 473 c 127,2 162,-84 180,-190 h 86 L 985,0 H 104 v -75 -75 c 155,-184 338,-374 480,-565 86,-116 153,-219 153,-405 0,-153 -57,-260 -209,-260 -177,0 -225,129 -225,305 -102,0 -176,-31 -176,-133 0,-206 182,-275 401,-275"
       style="fill:#000000;fill-opacity:1;fill-rule:nonzero;stroke:none"
       transform="matrix(0.005268,0,0,0.005268,83.946667,247.05333)" /><path
       id="path88"
       d="M 490,440 H 650 V 580 H 490 Z"
       style="fill:#ffffff;fill-opacity:1;fill-rule:nonzero;stroke:#000000;stroke-width:2;stroke-linecap:butt;stroke-linejoin:miter;stroke-miterlimit:10;stroke-dasharray:none;stroke-opacity:1"
       transform="matrix(0.6,0,0,0.6,-65.333333,-62.666667)" /><path
       id="path89"
       d="m 674,-1376 c -119,-7 -195,23 -195,139 v 567.5 567.5 h 404 c 178,-1 180,-179 200,-338 h 107 L 1176,0 H 78 v -43 -43 c 122,7 194,-27 194,-147 v -498 -498 c 4,-120 -72,-154 -194,-147 v -43 -43 h 596 v 43 43"
       style="fill:#000000;fill-opacity:1;fill-rule:nonzero;stroke:none"
       transform="matrix(0.005268,0,0,0.005268,240.24667,247.05333)" /><path
       id="path90"
       d="M 709,-233 C 699,-82 828,-79 977,-86 V -43 0 H 197 v -43 -43 h 137 c 108,3 168,-38 168,-147 v -538 -538 c -64,75 -120,150 -204,197 -78,44 -169,-10 -163,-94 181,-48 304,-168 443,-264 h 131 v 618.5 618.5"
       style="fill:#000000;fill-opacity:1;fill-rule:nonzero;stroke:none"
       transform="matrix(0.005268,0,0,0.005268,246.96863,247.05333)" /><path
       id="path91"
       d="m 705,-1462 c 450,9 667,274 667,729 0,455 -212,733 -667,733 H 78 v -43 -43 c 122,7 194,-27 194,-147 v -502 -502 c 3,-115 -76,-146 -194,-139 v -43 -43 z m 440,729 c 2,-374 -134,-623 -486,-627 H 479 v 628 628 h 178 c 362,-7 486,-260 488,-629"
       style="fill:#000000;fill-opacity:1;fill-rule:nonzero;stroke:none"
       transform="matrix(0.005268,0,0,0.005268,255.84667,247.05333)" /><path
       id="path92"
       d="m 467,-106 c 176,0 267,-107 272,-285 v -83 -83 c -189,6 -378,9 -423,154 -10,31 -15,66 -15,106 0,123 47,191 166,191 z m 272,-535 c 5,-199 13,-375 -190,-375 -142,0 -190,83 -187,223 -106,-2 -174,-27 -174,-129 0,-169 191,-191 369,-196 250,-7 375,104 375,354 v 265.5 265.5 c -3,100 32,153 133,147 V -43 0 H 788 L 756,-176 H 739 C 664,-76 596,23 420,20 213,16 102,-97 102,-307 c 0,-109 41,-186 116,-242 100,-75 325,-89 521,-92"
       style="fill:#000000;fill-opacity:1;fill-rule:nonzero;stroke:none"
       transform="matrix(0.005268,0,0,0.005268,263.69072,247.05333)" /><path
       id="path93"
       d="m 387,-291 c -2,124 47,200 156,203 51,1 88,-6 131,-14 v 45 45 C 626,8 560,18 492,20 278,25 195,-83 195,-297 V -639 -981 H 39 v -41 -41 c 170,-8 224,-133 254,-287 h 94 v 126 126 h 268 v 58.5 58.5 H 387 v 345 345"
       style="fill:#000000;fill-opacity:1;fill-rule:nonzero;stroke:none"
       transform="matrix(0.005268,0,0,0.005268,269.65936,247.05333)" /><path
       id="path94"
       d="m 467,-106 c 176,0 267,-107 272,-285 v -83 -83 c -189,6 -378,9 -423,154 -10,31 -15,66 -15,106 0,123 47,191 166,191 z m 272,-535 c 5,-199 13,-375 -190,-375 -142,0 -190,83 -187,223 -106,-2 -174,-27 -174,-129 0,-169 191,-191 369,-196 250,-7 375,104 375,354 v 265.5 265.5 c -3,100 32,153 133,147 V -43 0 H 788 L 756,-176 H 739 C 664,-76 596,23 420,20 213,16 102,-97 102,-307 c 0,-109 41,-186 116,-242 100,-75 325,-89 521,-92"
       style="fill:#000000;fill-opacity:1;fill-rule:nonzero;stroke:none"
       transform="matrix(0.005268,0,0,0.005268,273.45759,247.05333)" /><path
       id="path95"
       d="m 1141,-289 c 47,27 51,110 13,159 C 1076,-28 927,20 739,20 300,20 117,-290 117,-733 c 0,-346 130,-585 372,-695 199,-90 579,-71 673,84 39,64 27,161 -25,196 -32,21 -74,38 -127,38 -5,-158 -78,-264 -240,-264 -349,0 -426,285 -426,641 0,266 62,478 232,573 54,30 119,45 194,45 183,1 293,-72 371,-174"
       style="fill:#000000;fill-opacity:1;fill-rule:nonzero;stroke:none"
       transform="matrix(0.005268,0,0,0.005268,282.36667,247.05333)" /><path
       id="path96"
       d="m 467,-106 c 176,0 267,-107 272,-285 v -83 -83 c -189,6 -378,9 -423,154 -10,31 -15,66 -15,106 0,123 47,191 166,191 z m 272,-535 c 5,-199 13,-375 -190,-375 -142,0 -190,83 -187,223 -106,-2 -174,-27 -174,-129 0,-169 191,-191 369,-196 250,-7 375,104 375,354 v 265.5 265.5 c -3,100 32,153 133,147 V -43 0 H 788 L 756,-176 H 739 C 664,-76 596,23 420,20 213,16 102,-97 102,-307 c 0,-109 41,-186 116,-242 100,-75 325,-89 521,-92"
       style="fill:#000000;fill-opacity:1;fill-rule:nonzero;stroke:none"
       transform="matrix(0.005268,0,0,0.005268,288.98854,247.05333)" /><path
       id="path97"
       d="m 893,-256 c 39,28 47,103 13,150 C 845,-22 730,20 580,20 248,20 113,-200 113,-543 c 0,-349 119,-575 456,-575 140,0 259,39 325,116 44,51 42,161 -14,193 -31,18 -76,29 -137,29 -1,-134 -38,-239 -174,-236 -232,6 -258,224 -258,471 0,264 65,427 310,432 127,2 227,-62 272,-143"
       style="fill:#000000;fill-opacity:1;fill-rule:nonzero;stroke:none"
       transform="matrix(0.005268,0,0,0.005268,295.06255,247.05333)" /><path
       id="path98"
       d="m 414,-223 c -3,108 66,141 174,137 V -43 0 H 37 v -43 -43 c 117,6 184,-31 184,-147 v -549 -549 c 2,-112 -70,-144 -184,-139 v -43 -43 h 377 c -3,208 7,429 -8,624 h 10 c 61,-124 162,-186 301,-186 253,1 362,144 362,401 v 242 242 c -3,110 54,152 164,147 V -43 0 H 887 V -353.5 -707 c 0,-170 -55,-283 -225,-280 -186,3 -248,143 -248,332 v 216 216"
       style="fill:#000000;fill-opacity:1;fill-rule:nonzero;stroke:none"
       transform="matrix(0.005268,0,0,0.005268,300.37269,247.05333)" /><path
       id="path99"
       d="m 786,-645 c -4,-191 -36,-363 -223,-363 -76,0 -134,30 -175,92 -41,62 -66,152 -73,271 z m 123,393 c 43,21 51,90 17,136 C 862,-29 744,20 588,20 257,20 117,-205 113,-541 c -4,-348 134,-577 454,-577 327,0 443,231 426,583 H 311 c 7,242 67,426 305,426 140,0 234,-60 293,-143"
       style="fill:#000000;fill-opacity:1;fill-rule:nonzero;stroke:none"
       transform="matrix(0.005268,0,0,0.005268,307.22109,247.05333)" /><path
       id="path100"
       d="M 330,510 H 450"
       style="fill:none;stroke:#000000;stroke-width:2;stroke-linecap:butt;stroke-linejoin:miter;stroke-miterlimit:10;stroke-dasharray:none;stroke-opacity:1"
       transform="matrix(0.6,0,0,0.6,-65.333333,-62.666667)" /><path
       id="path101"
       d="m 290,650 h 40 v 40 h -40 z"
       style="fill:#ffffff;fill-opacity:1;fill-rule:nonzero;stroke:#000000;stroke-width:1;stroke-linecap:butt;stroke-linejoin:miter;stroke-miterlimit:10;stroke-dasharray:none;stroke-opacity:1"
       transform="matrix(0.6,0,0,0.6,-65.333333,-62.666667)" /><path
       id="path102"
       d="m 294.1,682 h 33.6 l -16.8,-24 z"
       style="fill:#000000;fill-opacity:1;fill-rule:nonzero;stroke:#000000;stroke-width:1;stroke-linecap:butt;stroke-linejoin:miter;stroke-miterlimit:10;stroke-dasharray:none;stroke-opacity:1"
       transform="matrix(0,0.6,-0.6,0,523.14667,152.79333)" /><path
       id="path103"
       d="m 450,650 h 40 v 40 h -40 z"
       style="fill:#ffffff;fill-opacity:1;fill-rule:nonzero;stroke:#000000;stroke-width:1;stroke-linecap:butt;stroke-linejoin:miter;stroke-miterlimit:10;stroke-dasharray:none;stroke-opacity:1"
       transform="matrix(0.6,0,0,0.6,-65.333333,-62.666667)" /><path
       id="path104"
       d="m 454.1,682 h 33.6 l -16.8,-24 z"
       style="fill:#000000;fill-opacity:1;fill-rule:nonzero;stroke:#000000;stroke-width:1;stroke-linecap:butt;stroke-linejoin:miter;stroke-miterlimit:10;stroke-dasharray:none;stroke-opacity:1"
       transform="matrix(0,0.6,-0.6,0,619.14667,56.793333)" /><path
       id="path105"
       d="m 650,620 h 40 v 40 h -40 z"
       style="fill:#ffffff;fill-opacity:1;fill-rule:nonzero;stroke:#000000;stroke-width:1;stroke-linecap:butt;stroke-linejoin:miter;stroke-miterlimit:10;stroke-dasharray:none;stroke-opacity:1"
       transform="matrix(0.6,0,0,0.6,-65.333333,-62.666667)" /><path
       id="path106"
       d="m 654.1,652 h 33.6 l -16.8,-24 z"
       style="fill:#000000;fill-opacity:1;fill-rule:nonzero;stroke:#000000;stroke-width:1;stroke-linecap:butt;stroke-linejoin:miter;stroke-miterlimit:10;stroke-dasharray:none;stroke-opacity:1"
       transform="matrix(0,0.6,-0.6,0,721.14667,-81.146667)" /><path
       id="path107"
       d="m 649.6,679 h 40 v 40 h -40 z"
       style="fill:#ffffff;fill-opacity:1;fill-rule:nonzero;stroke:#000000;stroke-width:1;stroke-linecap:butt;stroke-linejoin:miter;stroke-miterlimit:10;stroke-dasharray:none;stroke-opacity:1"
       transform="matrix(-0.6,0,0,-0.6,738.18667,776.13333)" /><path
       id="path108"
       d="m 651.9,711 h 33.6 l -16.8,-24 z"
       style="fill:#000000;fill-opacity:1;fill-rule:nonzero;stroke:#000000;stroke-width:1;stroke-linecap:butt;stroke-linejoin:miter;stroke-miterlimit:10;stroke-dasharray:none;stroke-opacity:1"
       transform="matrix(0,-0.6,0.6,0,-83.453333,757.95333)" /><path
       id="path109"
       d="M 130,610 H 290 V 730 H 130 Z"
       style="fill:#ffffff;fill-opacity:1;fill-rule:nonzero;stroke:#000000;stroke-width:2;stroke-linecap:butt;stroke-linejoin:miter;stroke-miterlimit:10;stroke-dasharray:none;stroke-opacity:1"
       transform="matrix(0.6,0,0,0.6,-65.333333,-62.666667)" /><path
       id="path110"
       d="m 479,-223 c -6,133 103,143 236,137 V -43 0 H 78 v -43 -43 c 122,7 194,-27 194,-147 v -502 -502 c 3,-115 -76,-146 -194,-139 v -43 -43 h 575 c 309,2 504,125 504,428 0,321 -213,462 -549,465 H 479 v 173 z m 457,-803 c 0,-225 -92,-342 -318,-338 H 479 v 349 349 h 109 c 246,7 348,-114 348,-360"
       style="fill:#000000;fill-opacity:1;fill-rule:nonzero;stroke:none"
       transform="matrix(0.005268,0,0,0.005268,31.266667,343.05333)" /><path
       id="path111"
       d="m 434,-223 c -4,128 95,144 225,137 V -43 0 H 68 v -43 -43 c 112,4 174,-35 174,-147 V -552.5 -872 c 2,-108 -66,-143 -174,-140 v -43 -43 h 315 l 39,203 h 10 c 50,-120 106,-223 281,-223 151,0 257,68 211,208 -21,64 -90,87 -181,87 -2,-101 -16,-160 -108,-160 -128,0 -157,140 -183,255 -33,148 -12,333 -18,505"
       style="fill:#000000;fill-opacity:1;fill-rule:nonzero;stroke:none"
       transform="matrix(0.005268,0,0,0.005268,37.783183,343.05333)" /><path
       id="path112"
       d="m 594,-1118 c 338,0 472,222 475,567 2,360 -143,571 -481,571 -338,0 -473,-225 -475,-571 -2,-359 142,-567 481,-567 z m -4,108 c -241,0 -279,212 -279,459 0,249 39,465 281,465 242,0 278,-216 278,-465 0,-248 -38,-459 -280,-459"
       style="fill:#000000;fill-opacity:1;fill-rule:nonzero;stroke:none"
       transform="matrix(0.005268,0,0,0.005268,42.761443,343.05333)" /><path
       id="path113"
       d="m 893,-256 c 39,28 47,103 13,150 C 845,-22 730,20 580,20 248,20 113,-200 113,-543 c 0,-349 119,-575 456,-575 140,0 259,39 325,116 44,51 42,161 -14,193 -31,18 -76,29 -137,29 -1,-134 -38,-239 -174,-236 -232,6 -258,224 -258,471 0,264 65,427 310,432 127,2 227,-62 272,-143"
       style="fill:#000000;fill-opacity:1;fill-rule:nonzero;stroke:none"
       transform="matrix(0.005268,0,0,0.005268,48.988219,343.05333)" /><path
       id="path114"
       d="m 786,-645 c -4,-191 -36,-363 -223,-363 -76,0 -134,30 -175,92 -41,62 -66,152 -73,271 z m 123,393 c 43,21 51,90 17,136 C 862,-29 744,20 588,20 257,20 117,-205 113,-541 c -4,-348 134,-577 454,-577 327,0 443,231 426,583 H 311 c 7,242 67,426 305,426 140,0 234,-60 293,-143"
       style="fill:#000000;fill-opacity:1;fill-rule:nonzero;stroke:none"
       transform="matrix(0.005268,0,0,0.005268,54.298363,343.05333)" /><path
       id="path115"
       d="M 834,-301 C 834,-70 665,20 430,20 250,20 92,-26 92,-197 c 0,-88 47,-135 129,-141 1,157 63,257 221,260 156,3 257,-97 214,-252 -47,-85 -142,-109 -240,-157 -153,-75 -310,-122 -310,-340 0,-212 169,-289 386,-289 130,0 232,36 280,116 31,53 24,126 -20,162 -26,22 -62,33 -109,33 0,-130 -49,-217 -176,-217 -120,1 -195,48 -195,164 0,149 143,163 254,217 154,74 308,124 308,340"
       style="fill:#000000;fill-opacity:1;fill-rule:nonzero;stroke:none"
       transform="matrix(0.005268,0,0,0.005268,60.072091,343.05333)" /><path
       id="path116"
       d="M 834,-301 C 834,-70 665,20 430,20 250,20 92,-26 92,-197 c 0,-88 47,-135 129,-141 1,157 63,257 221,260 156,3 257,-97 214,-252 -47,-85 -142,-109 -240,-157 -153,-75 -310,-122 -310,-340 0,-212 169,-289 386,-289 130,0 232,36 280,116 31,53 24,126 -20,162 -26,22 -62,33 -109,33 0,-130 -49,-217 -176,-217 -120,1 -195,48 -195,164 0,149 143,163 254,217 154,74 308,124 308,340"
       style="fill:#000000;fill-opacity:1;fill-rule:nonzero;stroke:none"
       transform="matrix(0.005268,0,0,0.005268,64.939723,343.05333)" /><path
       id="path117"
       d="m 594,-1118 c 338,0 472,222 475,567 2,360 -143,571 -481,571 -338,0 -473,-225 -475,-571 -2,-359 142,-567 481,-567 z m -4,108 c -241,0 -279,212 -279,459 0,249 39,465 281,465 242,0 278,-216 278,-465 0,-248 -38,-459 -280,-459"
       style="fill:#000000;fill-opacity:1;fill-rule:nonzero;stroke:none"
       transform="matrix(0.005268,0,0,0.005268,69.807355,343.05333)" /><path
       id="path118"
       d="m 434,-223 c -4,128 95,144 225,137 V -43 0 H 68 v -43 -43 c 112,4 174,-35 174,-147 V -552.5 -872 c 2,-108 -66,-143 -174,-140 v -43 -43 h 315 l 39,203 h 10 c 50,-120 106,-223 281,-223 151,0 257,68 211,208 -21,64 -90,87 -181,87 -2,-101 -16,-160 -108,-160 -128,0 -157,140 -183,255 -33,148 -12,333 -18,505"
       style="fill:#000000;fill-opacity:1;fill-rule:nonzero;stroke:none"
       transform="matrix(0.005268,0,0,0.005268,76.034131,343.05333)" /><path
       id="path119"
       d="m 248,-338 c 6,160 98,248 260,248 204,0 305,-120 305,-330 0,-224 -191,-293 -436,-285 v -52 -52 c 240,11 381,-97 387,-317 5,-158 -61,-255 -219,-254 -177,0 -226,129 -226,305 -102,0 -176,-31 -176,-133 0,-206 183,-275 402,-275 191,0 333,61 399,187 21,40 31,87 31,139 0,217 -148,327 -328,377 215,28 379,122 379,362 0,268 -169,390 -400,428 -201,33 -411,-3 -484,-130 -33,-56 -31,-144 12,-184 23,-23 55,-34 94,-34"
       style="fill:#000000;fill-opacity:1;fill-rule:nonzero;stroke:none"
       transform="matrix(0.005268,0,0,0.005268,83.946667,343.05333)" /><path
       id="path120"
       d="M 490,600 H 650 V 740 H 490 Z"
       style="fill:#ffffff;fill-opacity:1;fill-rule:nonzero;stroke:#000000;stroke-width:2;stroke-linecap:butt;stroke-linejoin:miter;stroke-miterlimit:10;stroke-dasharray:none;stroke-opacity:1"
       transform="matrix(0.6,0,0,0.6,-65.333333,-62.666667)" /><path
       id="path121"
       d="m 674,-1376 c -119,-7 -195,23 -195,139 v 567.5 567.5 h 404 c 178,-1 180,-179 200,-338 h 107 L 1176,0 H 78 v -43 -43 c 122,7 194,-27 194,-147 v -498 -498 c 4,-120 -72,-154 -194,-147 v -43 -43 h 596 v 43 43"
       style="fill:#000000;fill-opacity:1;fill-rule:nonzero;stroke:none"
       transform="matrix(0.005268,0,0,0.005268,240.24667,343.05333)" /><path
       id="path122"
       d="M 709,-233 C 699,-82 828,-79 977,-86 V -43 0 H 197 v -43 -43 h 137 c 108,3 168,-38 168,-147 v -538 -538 c -64,75 -120,150 -204,197 -78,44 -169,-10 -163,-94 181,-48 304,-168 443,-264 h 131 v 618.5 618.5"
       style="fill:#000000;fill-opacity:1;fill-rule:nonzero;stroke:none"
       transform="matrix(0.005268,0,0,0.005268,246.96863,343.05333)" /><path
       id="path123"
       d="m 705,-1462 c 450,9 667,274 667,729 0,455 -212,733 -667,733 H 78 v -43 -43 c 122,7 194,-27 194,-147 v -502 -502 c 3,-115 -76,-146 -194,-139 v -43 -43 z m 440,729 c 2,-374 -134,-623 -486,-627 H 479 v 628 628 h 178 c 362,-7 486,-260 488,-629"
       style="fill:#000000;fill-opacity:1;fill-rule:nonzero;stroke:none"
       transform="matrix(0.005268,0,0,0.005268,255.84667,343.05333)" /><path
       id="path124"
       d="m 467,-106 c 176,0 267,-107 272,-285 v -83 -83 c -189,6 -378,9 -423,154 -10,31 -15,66 -15,106 0,123 47,191 166,191 z m 272,-535 c 5,-199 13,-375 -190,-375 -142,0 -190,83 -187,223 -106,-2 -174,-27 -174,-129 0,-169 191,-191 369,-196 250,-7 375,104 375,354 v 265.5 265.5 c -3,100 32,153 133,147 V -43 0 H 788 L 756,-176 H 739 C 664,-76 596,23 420,20 213,16 102,-97 102,-307 c 0,-109 41,-186 116,-242 100,-75 325,-89 521,-92"
       style="fill:#000000;fill-opacity:1;fill-rule:nonzero;stroke:none"
       transform="matrix(0.005268,0,0,0.005268,263.69072,343.05333)" /><path
       id="path125"
       d="m 387,-291 c -2,124 47,200 156,203 51,1 88,-6 131,-14 v 45 45 C 626,8 560,18 492,20 278,25 195,-83 195,-297 V -639 -981 H 39 v -41 -41 c 170,-8 224,-133 254,-287 h 94 v 126 126 h 268 v 58.5 58.5 H 387 v 345 345"
       style="fill:#000000;fill-opacity:1;fill-rule:nonzero;stroke:none"
       transform="matrix(0.005268,0,0,0.005268,269.65936,343.05333)" /><path
       id="path126"
       d="m 467,-106 c 176,0 267,-107 272,-285 v -83 -83 c -189,6 -378,9 -423,154 -10,31 -15,66 -15,106 0,123 47,191 166,191 z m 272,-535 c 5,-199 13,-375 -190,-375 -142,0 -190,83 -187,223 -106,-2 -174,-27 -174,-129 0,-169 191,-191 369,-196 250,-7 375,104 375,354 v 265.5 265.5 c -3,100 32,153 133,147 V -43 0 H 788 L 756,-176 H 739 C 664,-76 596,23 420,20 213,16 102,-97 102,-307 c 0,-109 41,-186 116,-242 100,-75 325,-89 521,-92"
       style="fill:#000000;fill-opacity:1;fill-rule:nonzero;stroke:none"
       transform="matrix(0.005268,0,0,0.005268,273.45759,343.05333)" /><path
       id="path127"
       d="m 1141,-289 c 47,27 51,110 13,159 C 1076,-28 927,20 739,20 300,20 117,-290 117,-733 c 0,-346 130,-585 372,-695 199,-90 579,-71 673,84 39,64 27,161 -25,196 -32,21 -74,38 -127,38 -5,-158 -78,-264 -240,-264 -349,0 -426,285 -426,641 0,266 62,478 232,573 54,30 119,45 194,45 183,1 293,-72 371,-174"
       style="fill:#000000;fill-opacity:1;fill-rule:nonzero;stroke:none"
       transform="matrix(0.005268,0,0,0.005268,282.36667,343.05333)" /><path
       id="path128"
       d="m 467,-106 c 176,0 267,-107 272,-285 v -83 -83 c -189,6 -378,9 -423,154 -10,31 -15,66 -15,106 0,123 47,191 166,191 z m 272,-535 c 5,-199 13,-375 -190,-375 -142,0 -190,83 -187,223 -106,-2 -174,-27 -174,-129 0,-169 191,-191 369,-196 250,-7 375,104 375,354 v 265.5 265.5 c -3,100 32,153 133,147 V -43 0 H 788 L 756,-176 H 739 C 664,-76 596,23 420,20 213,16 102,-97 102,-307 c 0,-109 41,-186 116,-242 100,-75 325,-89 521,-92"
       style="fill:#000000;fill-opacity:1;fill-rule:nonzero;stroke:none"
       transform="matrix(0.005268,0,0,0.005268,288.98854,343.05333)" /><path
       id="path129"
       d="m 893,-256 c 39,28 47,103 13,150 C 845,-22 730,20 580,20 248,20 113,-200 113,-543 c 0,-349 119,-575 456,-575 140,0 259,39 325,116 44,51 42,161 -14,193 -31,18 -76,29 -137,29 -1,-134 -38,-239 -174,-236 -232,6 -258,224 -258,471 0,264 65,427 310,432 127,2 227,-62 272,-143"
       style="fill:#000000;fill-opacity:1;fill-rule:nonzero;stroke:none"
       transform="matrix(0.005268,0,0,0.005268,295.06255,343.05333)" /><path
       id="path130"
       d="m 414,-223 c -3,108 66,141 174,137 V -43 0 H 37 v -43 -43 c 117,6 184,-31 184,-147 v -549 -549 c 2,-112 -70,-144 -184,-139 v -43 -43 h 377 c -3,208 7,429 -8,624 h 10 c 61,-124 162,-186 301,-186 253,1 362,144 362,401 v 242 242 c -3,110 54,152 164,147 V -43 0 H 887 V -353.5 -707 c 0,-170 -55,-283 -225,-280 -186,3 -248,143 -248,332 v 216 216"
       style="fill:#000000;fill-opacity:1;fill-rule:nonzero;stroke:none"
       transform="matrix(0.005268,0,0,0.005268,300.37269,343.05333)" /><path
       id="path131"
       d="m 786,-645 c -4,-191 -36,-363 -223,-363 -76,0 -134,30 -175,92 -41,62 -66,152 -73,271 z m 123,393 c 43,21 51,90 17,136 C 862,-29 744,20 588,20 257,20 117,-205 113,-541 c -4,-348 134,-577 454,-577 327,0 443,231 426,583 H 311 c 7,242 67,426 305,426 140,0 234,-60 293,-143"
       style="fill:#000000;fill-opacity:1;fill-rule:nonzero;stroke:none"
       transform="matrix(0.005268,0,0,0.005268,307.22109,343.05333)" /><path
       id="path132"
       d="M 330,670 H 450"
       style="fill:none;stroke:#000000;stroke-width:2;stroke-linecap:butt;stroke-linejoin:miter;stroke-miterlimit:10;stroke-dasharray:none;stroke-opacity:1"
       transform="matrix(0.6,0,0,0.6,-65.333333,-62.666667)" /><path
       id="path133"
       d="m 741,199 h 40 v 40 h -40 z"
       style="fill:#ffffff;fill-opacity:1;fill-rule:nonzero;stroke:#000000;stroke-width:1;stroke-linecap:butt;stroke-linejoin:miter;stroke-miterlimit:10;stroke-dasharray:none;stroke-opacity:1"
       transform="matrix(-0.6,0,0,-0.6,847.86667,200.13333)" /><path
       id="path134"
       d="m 743.3,231 h 33.6 l -16.8,-24 z"
       style="fill:#000000;fill-opacity:1;fill-rule:nonzero;stroke:#000000;stroke-width:1;stroke-linecap:butt;stroke-linejoin:miter;stroke-miterlimit:10;stroke-dasharray:none;stroke-opacity:1"
       transform="matrix(0,-0.6,0.6,0,259.32667,524.79333)" /><path
       id="path135"
       d="m 741,300 h 40 v 40 h -40 z"
       style="fill:#ffffff;fill-opacity:1;fill-rule:nonzero;stroke:#000000;stroke-width:1;stroke-linecap:butt;stroke-linejoin:miter;stroke-miterlimit:10;stroke-dasharray:none;stroke-opacity:1"
       transform="matrix(0.6,0,0,0.6,-65.333333,-62.666667)" /><path
       id="path136"
       d="m 745.1,332 h 33.6 l -16.8,-24 z"
       style="fill:#000000;fill-opacity:1;fill-rule:nonzero;stroke:#000000;stroke-width:1;stroke-linecap:butt;stroke-linejoin:miter;stroke-miterlimit:10;stroke-dasharray:none;stroke-opacity:1"
       transform="matrix(0,0.6,-0.6,0,583.74667,-327.74667)" /><path
       id="path137"
       d="m 741,359 h 40 v 40 h -40 z"
       style="fill:#ffffff;fill-opacity:1;fill-rule:nonzero;stroke:#000000;stroke-width:1;stroke-linecap:butt;stroke-linejoin:miter;stroke-miterlimit:10;stroke-dasharray:none;stroke-opacity:1"
       transform="matrix(-0.6,0,0,-0.6,847.86667,392.13333)" /><path
       id="path138"
       d="m 743.3,391 h 33.6 l -16.8,-24 z"
       style="fill:#000000;fill-opacity:1;fill-rule:nonzero;stroke:#000000;stroke-width:1;stroke-linecap:butt;stroke-linejoin:miter;stroke-miterlimit:10;stroke-dasharray:none;stroke-opacity:1"
       transform="matrix(0,-0.6,0.6,0,163.32667,620.79333)" /><path
       id="path139"
       d="m 742,460 h 40 v 40 h -40 z"
       style="fill:#ffffff;fill-opacity:1;fill-rule:nonzero;stroke:#000000;stroke-width:1;stroke-linecap:butt;stroke-linejoin:miter;stroke-miterlimit:10;stroke-dasharray:none;stroke-opacity:1"
       transform="matrix(0.6,0,0,0.6,-65.333333,-62.666667)" /><path
       id="path140"
       d="m 746.1,492 h 33.6 l -16.8,-24 z"
       style="fill:#000000;fill-opacity:1;fill-rule:nonzero;stroke:#000000;stroke-width:1;stroke-linecap:butt;stroke-linejoin:miter;stroke-miterlimit:10;stroke-dasharray:none;stroke-opacity:1"
       transform="matrix(0,0.6,-0.6,0,680.34667,-232.34667)" /><path
       id="path141"
       d="m 743,519 h 40 v 40 h -40 z"
       style="fill:#ffffff;fill-opacity:1;fill-rule:nonzero;stroke:#000000;stroke-width:1;stroke-linecap:butt;stroke-linejoin:miter;stroke-miterlimit:10;stroke-dasharray:none;stroke-opacity:1"
       transform="matrix(-0.6,0,0,-0.6,850.26667,584.13333)" /><path
       id="path142"
       d="m 745.3,551 h 33.6 l -16.8,-24 z"
       style="fill:#000000;fill-opacity:1;fill-rule:nonzero;stroke:#000000;stroke-width:1;stroke-linecap:butt;stroke-linejoin:miter;stroke-miterlimit:10;stroke-dasharray:none;stroke-opacity:1"
       transform="matrix(0,-0.6,0.6,0,68.526667,717.99333)" /><path
       id="path143"
       d="m 742,620 h 40 v 40 h -40 z"
       style="fill:#ffffff;fill-opacity:1;fill-rule:nonzero;stroke:#000000;stroke-width:1;stroke-linecap:butt;stroke-linejoin:miter;stroke-miterlimit:10;stroke-dasharray:none;stroke-opacity:1"
       transform="matrix(0.6,0,0,0.6,-65.333333,-62.666667)" /><path
       id="path144"
       d="m 746.1,652 h 33.6 l -16.8,-24 z"
       style="fill:#000000;fill-opacity:1;fill-rule:nonzero;stroke:#000000;stroke-width:1;stroke-linecap:butt;stroke-linejoin:miter;stroke-miterlimit:10;stroke-dasharray:none;stroke-opacity:1"
       transform="matrix(0,0.6,-0.6,0,776.34667,-136.34667)" /><path
       id="path145"
       d="m 743,679 h 40 v 40 h -40 z"
       style="fill:#ffffff;fill-opacity:1;fill-rule:nonzero;stroke:#000000;stroke-width:1;stroke-linecap:butt;stroke-linejoin:miter;stroke-miterlimit:10;stroke-dasharray:none;stroke-opacity:1"
       transform="matrix(-0.6,0,0,-0.6,850.26667,776.13333)" /><path
       id="path146"
       d="m 745.3,711 h 33.6 l -16.8,-24 z"
       style="fill:#000000;fill-opacity:1;fill-rule:nonzero;stroke:#000000;stroke-width:1;stroke-linecap:butt;stroke-linejoin:miter;stroke-miterlimit:10;stroke-dasharray:none;stroke-opacity:1"
       transform="matrix(0,-0.6,0.6,0,-27.473333,813.99333)" /><path
       id="path147"
       d="m 781,120 h 79 v 623 h -79 z"
       style="fill:#ffffff;fill-opacity:1;fill-rule:nonzero;stroke:#000000;stroke-width:2;stroke-linecap:butt;stroke-linejoin:miter;stroke-miterlimit:10;stroke-dasharray:none;stroke-opacity:1"
       transform="matrix(0.6,0,0,0.6,-65.333333,-62.666667)" /><path
       id="path148"
       d="m 690,160 h 51"
       style="fill:none;stroke:#000000;stroke-width:2;stroke-linecap:butt;stroke-linejoin:miter;stroke-miterlimit:10;stroke-dasharray:none;stroke-opacity:1"
       transform="matrix(0.6,0,0,0.6,-65.333333,-62.666667)" /><path
       id="path149"
       d="m 689.6,219 h 50.9"
       style="fill:none;stroke:#000000;stroke-width:2;stroke-linecap:butt;stroke-linejoin:miter;stroke-miterlimit:10;stroke-dasharray:none;stroke-opacity:1"
       transform="matrix(0.6,0,0,0.6,-65.333333,-62.666667)" /><path
       id="path150"
       d="m 741,220 h -0.5 v -2 h 0.5 z"
       style="fill:#000000;fill-opacity:1;fill-rule:nonzero;stroke:none"
       transform="matrix(0.6,0,0,0.6,-65.333333,-62.666667)" /><path
       id="path151"
       d="m 690,320 h 50"
       style="fill:none;stroke:#000000;stroke-width:2;stroke-linecap:butt;stroke-linejoin:miter;stroke-miterlimit:10;stroke-dasharray:none;stroke-opacity:1"
       transform="matrix(0.6,0,0,0.6,-65.333333,-62.666667)" /><path
       id="path152"
       d="m 689.6,379 h 50.9"
       style="fill:none;stroke:#000000;stroke-width:2;stroke-linecap:butt;stroke-linejoin:miter;stroke-miterlimit:10;stroke-dasharray:none;stroke-opacity:1"
       transform="matrix(0.6,0,0,0.6,-65.333333,-62.666667)" /><path
       id="path153"
       d="m 741,380 h -0.5 v -2 h 0.5 z"
       style="fill:#000000;fill-opacity:1;fill-rule:nonzero;stroke:none"
       transform="matrix(0.6,0,0,0.6,-65.333333,-62.666667)" /><path
       id="path154"
       d="m 690,480 h 51.5"
       style="fill:none;stroke:#000000;stroke-width:2;stroke-linecap:butt;stroke-linejoin:miter;stroke-miterlimit:10;stroke-dasharray:none;stroke-opacity:1"
       transform="matrix(0.6,0,0,0.6,-65.333333,-62.666667)" /><path
       id="path155"
       d="m 742,481 h -0.5 v -2 h 0.5 z"
       style="fill:#000000;fill-opacity:1;fill-rule:nonzero;stroke:none"
       transform="matrix(0.6,0,0,0.6,-65.333333,-62.666667)" /><path
       id="path156"
       d="M 689.6,539 H 743"
       style="fill:none;stroke:#000000;stroke-width:2;stroke-linecap:butt;stroke-linejoin:miter;stroke-miterlimit:10;stroke-dasharray:none;stroke-opacity:1"
       transform="matrix(0.6,0,0,0.6,-65.333333,-62.666667)" /><path
       id="path157"
       d="m 690,640 h 52"
       style="fill:none;stroke:#000000;stroke-width:2;stroke-linecap:butt;stroke-linejoin:miter;stroke-miterlimit:10;stroke-dasharray:none;stroke-opacity:1"
       transform="matrix(0.6,0,0,0.6,-65.333333,-62.666667)" /><path
       id="path158"
       d="m 689.6,699 h 52.9"
       style="fill:none;stroke:#000000;stroke-width:2;stroke-linecap:butt;stroke-linejoin:miter;stroke-miterlimit:10;stroke-dasharray:none;stroke-opacity:1"
       transform="matrix(0.6,0,0,0.6,-65.333333,-62.666667)" /><path
       id="path159"
       d="m 743,700 h -0.5 v -2 h 0.5 z"
       style="fill:#000000;fill-opacity:1;fill-rule:nonzero;stroke:none"
       transform="matrix(0.6,0,0,0.6,-65.333333,-62.666667)" /><path
       id="path160"
       d="m 860,120 h 79 v 623 h -79 z"
       style="fill:#ffffff;fill-opacity:1;fill-rule:nonzero;stroke:#000000;stroke-width:2;stroke-linecap:butt;stroke-linejoin:miter;stroke-miterlimit:10;stroke-dasharray:none;stroke-opacity:1"
       transform="matrix(0.6,0,0,0.6,-65.333333,-62.666667)" /><path
       id="path161"
       d="m 701.5,406 h 240 v 60 h -240 z"
       style="fill:none;stroke:#000000;stroke-width:2;stroke-linecap:butt;stroke-linejoin:miter;stroke-miterlimit:10;stroke-dasharray:none;stroke-opacity:0"
       transform="matrix(0,-0.6,0.6,0,165.96667,691.83333)" /><path
       id="path162"
       d="m 705,-1462 c 450,9 667,274 667,729 0,455 -212,733 -667,733 H 78 v -43 -43 c 122,7 194,-27 194,-147 v -502 -502 c 3,-115 -76,-146 -194,-139 v -43 -43 z m 440,729 c 2,-374 -134,-623 -486,-627 H 479 v 628 628 h 178 c 362,-7 486,-260 488,-629"
       style="fill:#000000;fill-opacity:1;fill-rule:nonzero;stroke:none"
       transform="matrix(0,-0.005268,0.005268,0,431.28667,251.79333)" /><path
       id="path163"
       d="m 434,-233 c -3,120 73,154 195,147 V -43 0 H 47 v -43 -43 c 118,6 195,-21 195,-137 V -547.5 -872 c 2,-108 -66,-143 -174,-140 v -43 -43 h 366 v 432.5 z M 330,-1303 c -79,0 -117,-45 -117,-127 0,-82 37,-126 117,-126 79,0 116,46 116,126 0,81 -37,127 -116,127"
       style="fill:#000000;fill-opacity:1;fill-rule:nonzero;stroke:none"
       transform="matrix(0,-0.005268,0.005268,0,431.28667,243.94928)" /><path
       id="path164"
       d="m 434,-223 c -4,128 95,144 225,137 V -43 0 H 68 v -43 -43 c 112,4 174,-35 174,-147 V -552.5 -872 c 2,-108 -66,-143 -174,-140 v -43 -43 h 315 l 39,203 h 10 c 50,-120 106,-223 281,-223 151,0 257,68 211,208 -21,64 -90,87 -181,87 -2,-101 -16,-160 -108,-160 -128,0 -157,140 -183,255 -33,148 -12,333 -18,505"
       style="fill:#000000;fill-opacity:1;fill-rule:nonzero;stroke:none"
       transform="matrix(0,-0.005268,0.005268,0,431.28667,240.49874)" /><path
       id="path165"
       d="m 786,-645 c -4,-191 -36,-363 -223,-363 -76,0 -134,30 -175,92 -41,62 -66,152 -73,271 z m 123,393 c 43,21 51,90 17,136 C 862,-29 744,20 588,20 257,20 117,-205 113,-541 c -4,-348 134,-577 454,-577 327,0 443,231 426,583 H 311 c 7,242 67,426 305,426 140,0 234,-60 293,-143"
       style="fill:#000000;fill-opacity:1;fill-rule:nonzero;stroke:none"
       transform="matrix(0,-0.005268,0.005268,0,431.28667,235.41512)" /><path
       id="path166"
       d="m 893,-256 c 39,28 47,103 13,150 C 845,-22 730,20 580,20 248,20 113,-200 113,-543 c 0,-349 119,-575 456,-575 140,0 259,39 325,116 44,51 42,161 -14,193 -31,18 -76,29 -137,29 -1,-134 -38,-239 -174,-236 -232,6 -258,224 -258,471 0,264 65,427 310,432 127,2 227,-62 272,-143"
       style="fill:#000000;fill-opacity:1;fill-rule:nonzero;stroke:none"
       transform="matrix(0,-0.005268,0.005268,0,431.28667,229.64139)" /><path
       id="path167"
       d="m 387,-291 c -2,124 47,200 156,203 51,1 88,-6 131,-14 v 45 45 C 626,8 560,18 492,20 278,25 195,-83 195,-297 V -639 -981 H 39 v -41 -41 c 170,-8 224,-133 254,-287 h 94 v 126 126 h 268 v 58.5 58.5 H 387 v 345 345"
       style="fill:#000000;fill-opacity:1;fill-rule:nonzero;stroke:none"
       transform="matrix(0,-0.005268,0.005268,0,431.28667,224.33125)" /><path
       id="path168"
       d="m 594,-1118 c 338,0 472,222 475,567 2,360 -143,571 -481,571 -338,0 -473,-225 -475,-571 -2,-359 142,-567 481,-567 z m -4,108 c -241,0 -279,212 -279,459 0,249 39,465 281,465 242,0 278,-216 278,-465 0,-248 -38,-459 -280,-459"
       style="fill:#000000;fill-opacity:1;fill-rule:nonzero;stroke:none"
       transform="matrix(0,-0.005268,0.005268,0,431.28667,220.74901)" /><path
       id="path169"
       d="m 434,-223 c -4,128 95,144 225,137 V -43 0 H 68 v -43 -43 c 112,4 174,-35 174,-147 V -552.5 -872 c 2,-108 -66,-143 -174,-140 v -43 -43 h 315 l 39,203 h 10 c 50,-120 106,-223 281,-223 151,0 257,68 211,208 -21,64 -90,87 -181,87 -2,-101 -16,-160 -108,-160 -128,0 -157,140 -183,255 -33,148 -12,333 -18,505"
       style="fill:#000000;fill-opacity:1;fill-rule:nonzero;stroke:none"
       transform="matrix(0,-0.005268,0.005268,0,431.28667,214.52223)" /><path
       id="path170"
       d="m 868,-871 c 27,-98 -34,-147 -137,-141 v -43 -43 h 426 v 43 43 c -114,-4 -130,76 -162,160 -130,342 -244,699 -379,1034 -65,163 -156,280 -360,302 -50,6 -113,8 -178,8 V 443.5 395 C 363,393 472,213 539,-8 L 160,-903 c -28,-65 -56,-114 -152,-109 v -43 -43 h 492 v 43 43 c -114,-14 -152,77 -113,174 88,217 187,419 248,662 h 6 c 62,-238 163,-461 227,-695"
       style="fill:#000000;fill-opacity:1;fill-rule:nonzero;stroke:none"
       transform="matrix(0,-0.005268,0.005268,0,431.28667,209.33325)" /><path
       id="path171"
       d="m 1141,-289 c 47,27 51,110 13,159 C 1076,-28 927,20 739,20 300,20 117,-290 117,-733 c 0,-346 130,-585 372,-695 199,-90 579,-71 673,84 39,64 27,161 -25,196 -32,21 -74,38 -127,38 -5,-158 -78,-264 -240,-264 -349,0 -426,285 -426,641 0,266 62,478 232,573 54,30 119,45 194,45 183,1 293,-72 371,-174"
       style="fill:#000000;fill-opacity:1;fill-rule:nonzero;stroke:none"
       transform="matrix(0,-0.005268,0.005268,0,431.28667,200.37333)" /><path
       id="path172"
       d="m 594,-1118 c 338,0 472,222 475,567 2,360 -143,571 -481,571 -338,0 -473,-225 -475,-571 -2,-359 142,-567 481,-567 z m -4,108 c -241,0 -279,212 -279,459 0,249 39,465 281,465 242,0 278,-216 278,-465 0,-248 -38,-459 -280,-459"
       style="fill:#000000;fill-opacity:1;fill-rule:nonzero;stroke:none"
       transform="matrix(0,-0.005268,0.005268,0,431.28667,193.96745)" /><path
       id="path173"
       d="m 414,-223 c -3,108 66,141 174,137 V -43 0 H 37 v -43 -43 c 117,6 184,-31 184,-147 v -549 -549 c 2,-112 -70,-144 -184,-139 v -43 -43 h 377 c -3,208 7,429 -8,624 h 10 c 61,-124 162,-186 301,-186 253,1 362,144 362,401 v 242 242 c -3,110 54,152 164,147 V -43 0 H 887 V -353.5 -707 c 0,-170 -55,-283 -225,-280 -186,3 -248,143 -248,332 v 216 216"
       style="fill:#000000;fill-opacity:1;fill-rule:nonzero;stroke:none"
       transform="matrix(0,-0.005268,0.005268,0,431.28667,187.74067)" /><path
       id="path174"
       d="m 786,-645 c -4,-191 -36,-363 -223,-363 -76,0 -134,30 -175,92 -41,62 -66,152 -73,271 z m 123,393 c 43,21 51,90 17,136 C 862,-29 744,20 588,20 257,20 117,-205 113,-541 c -4,-348 134,-577 454,-577 327,0 443,231 426,583 H 311 c 7,242 67,426 305,426 140,0 234,-60 293,-143"
       style="fill:#000000;fill-opacity:1;fill-rule:nonzero;stroke:none"
       transform="matrix(0,-0.005268,0.005268,0,431.28667,180.89227)" /><path
       id="path175"
       d="m 434,-223 c -4,128 95,144 225,137 V -43 0 H 68 v -43 -43 c 112,4 174,-35 174,-147 V -552.5 -872 c 2,-108 -66,-143 -174,-140 v -43 -43 h 315 l 39,203 h 10 c 50,-120 106,-223 281,-223 151,0 257,68 211,208 -21,64 -90,87 -181,87 -2,-101 -16,-160 -108,-160 -128,0 -157,140 -183,255 -33,148 -12,333 -18,505"
       style="fill:#000000;fill-opacity:1;fill-rule:nonzero;stroke:none"
       transform="matrix(0,-0.005268,0.005268,0,431.28667,175.11854)" /><path
       id="path176"
       d="m 786,-645 c -4,-191 -36,-363 -223,-363 -76,0 -134,30 -175,92 -41,62 -66,152 -73,271 z m 123,393 c 43,21 51,90 17,136 C 862,-29 744,20 588,20 257,20 117,-205 113,-541 c -4,-348 134,-577 454,-577 327,0 443,231 426,583 H 311 c 7,242 67,426 305,426 140,0 234,-60 293,-143"
       style="fill:#000000;fill-opacity:1;fill-rule:nonzero;stroke:none"
       transform="matrix(0,-0.005268,0.005268,0,431.28667,170.03492)" /><path
       id="path177"
       d="m 434,-223 c -3,108 66,141 174,137 V -43 0 H 57 v -43 -43 c 118,6 185,-31 185,-147 V -552.5 -872 c 2,-108 -66,-143 -174,-140 v -43 -43 h 331 l 27,166 h 10 c 63,-113 148,-188 320,-186 244,3 343,152 344,401 v 242 242 c -4,110 54,152 164,147 V -43 0 H 907 V -353.5 -707 c 0,-170 -55,-282 -225,-280 -187,3 -248,145 -248,332 v 216 216"
       style="fill:#000000;fill-opacity:1;fill-rule:nonzero;stroke:none"
       transform="matrix(0,-0.005268,0.005268,0,431.28667,164.26119)" /><path
       id="path178"
       d="m 893,-256 c 39,28 47,103 13,150 C 845,-22 730,20 580,20 248,20 113,-200 113,-543 c 0,-349 119,-575 456,-575 140,0 259,39 325,116 44,51 42,161 -14,193 -31,18 -76,29 -137,29 -1,-134 -38,-239 -174,-236 -232,6 -258,224 -258,471 0,264 65,427 310,432 127,2 227,-62 272,-143"
       style="fill:#000000;fill-opacity:1;fill-rule:nonzero;stroke:none"
       transform="matrix(0,-0.005268,0.005268,0,431.28667,157.30217)" /><path
       id="path179"
       d="m 786,-645 c -4,-191 -36,-363 -223,-363 -76,0 -134,30 -175,92 -41,62 -66,152 -73,271 z m 123,393 c 43,21 51,90 17,136 C 862,-29 744,20 588,20 257,20 117,-205 113,-541 c -4,-348 134,-577 454,-577 327,0 443,231 426,583 H 311 c 7,242 67,426 305,426 140,0 234,-60 293,-143"
       style="fill:#000000;fill-opacity:1;fill-rule:nonzero;stroke:none"
       transform="matrix(0,-0.005268,0.005268,0,431.28667,151.99202)" /><path
       id="path180"
       d="m 780,409 h 240 v 60 H 780 Z"
       style="fill:none;stroke:#000000;stroke-width:2;stroke-linecap:butt;stroke-linejoin:miter;stroke-miterlimit:10;stroke-dasharray:none;stroke-opacity:0"
       transform="matrix(0,-0.6,0.6,0,211.26667,740.73333)" /><path
       id="path181"
       d="m 674,-1376 c -119,-7 -195,23 -195,139 v 567.5 567.5 h 404 c 178,-1 180,-179 200,-338 h 107 L 1176,0 H 78 v -43 -43 c 122,7 194,-27 194,-147 v -498 -498 c 4,-120 -72,-154 -194,-147 v -43 -43 h 596 v 43 43"
       style="fill:#000000;fill-opacity:1;fill-rule:nonzero;stroke:none"
       transform="matrix(0,-0.005268,0.005268,0,478.38667,237.15333)" /><path
       id="path182"
       d="m 528,-1483 c 243,0 416,104 416,342 0,196 -101,308 -198,428 -150,186 -330,369 -490,549 h 473 c 127,2 162,-84 180,-190 h 86 L 985,0 H 104 v -75 -75 c 155,-184 338,-374 480,-565 86,-116 153,-219 153,-405 0,-153 -57,-260 -209,-260 -177,0 -225,129 -225,305 -102,0 -176,-31 -176,-133 0,-206 182,-275 401,-275"
       style="fill:#000000;fill-opacity:1;fill-rule:nonzero;stroke:none"
       transform="matrix(0,-0.005268,0.005268,0,478.38667,230.43137)" /><path
       id="path183"
       d="m 705,-1462 c 450,9 667,274 667,729 0,455 -212,733 -667,733 H 78 v -43 -43 c 122,7 194,-27 194,-147 v -502 -502 c 3,-115 -76,-146 -194,-139 v -43 -43 z m 440,729 c 2,-374 -134,-623 -486,-627 H 479 v 628 628 h 178 c 362,-7 486,-260 488,-629"
       style="fill:#000000;fill-opacity:1;fill-rule:nonzero;stroke:none"
       transform="matrix(0,-0.005268,0.005268,0,478.38667,221.55333)" /><path
       id="path184"
       d="m 467,-106 c 176,0 267,-107 272,-285 v -83 -83 c -189,6 -378,9 -423,154 -10,31 -15,66 -15,106 0,123 47,191 166,191 z m 272,-535 c 5,-199 13,-375 -190,-375 -142,0 -190,83 -187,223 -106,-2 -174,-27 -174,-129 0,-169 191,-191 369,-196 250,-7 375,104 375,354 v 265.5 265.5 c -3,100 32,153 133,147 V -43 0 H 788 L 756,-176 H 739 C 664,-76 596,23 420,20 213,16 102,-97 102,-307 c 0,-109 41,-186 116,-242 100,-75 325,-89 521,-92"
       style="fill:#000000;fill-opacity:1;fill-rule:nonzero;stroke:none"
       transform="matrix(0,-0.005268,0.005268,0,478.38667,213.70928)" /><path
       id="path185"
       d="m 387,-291 c -2,124 47,200 156,203 51,1 88,-6 131,-14 v 45 45 C 626,8 560,18 492,20 278,25 195,-83 195,-297 V -639 -981 H 39 v -41 -41 c 170,-8 224,-133 254,-287 h 94 v 126 126 h 268 v 58.5 58.5 H 387 v 345 345"
       style="fill:#000000;fill-opacity:1;fill-rule:nonzero;stroke:none"
       transform="matrix(0,-0.005268,0.005268,0,478.38667,207.74064)" /><path
       id="path186"
       d="m 467,-106 c 176,0 267,-107 272,-285 v -83 -83 c -189,6 -378,9 -423,154 -10,31 -15,66 -15,106 0,123 47,191 166,191 z m 272,-535 c 5,-199 13,-375 -190,-375 -142,0 -190,83 -187,223 -106,-2 -174,-27 -174,-129 0,-169 191,-191 369,-196 250,-7 375,104 375,354 v 265.5 265.5 c -3,100 32,153 133,147 V -43 0 H 788 L 756,-176 H 739 C 664,-76 596,23 420,20 213,16 102,-97 102,-307 c 0,-109 41,-186 116,-242 100,-75 325,-89 521,-92"
       style="fill:#000000;fill-opacity:1;fill-rule:nonzero;stroke:none"
       transform="matrix(0,-0.005268,0.005268,0,478.38667,203.94241)" /><path
       id="path187"
       d="m 1141,-289 c 47,27 51,110 13,159 C 1076,-28 927,20 739,20 300,20 117,-290 117,-733 c 0,-346 130,-585 372,-695 199,-90 579,-71 673,84 39,64 27,161 -25,196 -32,21 -74,38 -127,38 -5,-158 -78,-264 -240,-264 -349,0 -426,285 -426,641 0,266 62,478 232,573 54,30 119,45 194,45 183,1 293,-72 371,-174"
       style="fill:#000000;fill-opacity:1;fill-rule:nonzero;stroke:none"
       transform="matrix(0,-0.005268,0.005268,0,478.38667,195.03333)" /><path
       id="path188"
       d="m 467,-106 c 176,0 267,-107 272,-285 v -83 -83 c -189,6 -378,9 -423,154 -10,31 -15,66 -15,106 0,123 47,191 166,191 z m 272,-535 c 5,-199 13,-375 -190,-375 -142,0 -190,83 -187,223 -106,-2 -174,-27 -174,-129 0,-169 191,-191 369,-196 250,-7 375,104 375,354 v 265.5 265.5 c -3,100 32,153 133,147 V -43 0 H 788 L 756,-176 H 739 C 664,-76 596,23 420,20 213,16 102,-97 102,-307 c 0,-109 41,-186 116,-242 100,-75 325,-89 521,-92"
       style="fill:#000000;fill-opacity:1;fill-rule:nonzero;stroke:none"
       transform="matrix(0,-0.005268,0.005268,0,478.38667,188.41146)" /><path
       id="path189"
       d="m 893,-256 c 39,28 47,103 13,150 C 845,-22 730,20 580,20 248,20 113,-200 113,-543 c 0,-349 119,-575 456,-575 140,0 259,39 325,116 44,51 42,161 -14,193 -31,18 -76,29 -137,29 -1,-134 -38,-239 -174,-236 -232,6 -258,224 -258,471 0,264 65,427 310,432 127,2 227,-62 272,-143"
       style="fill:#000000;fill-opacity:1;fill-rule:nonzero;stroke:none"
       transform="matrix(0,-0.005268,0.005268,0,478.38667,182.33745)" /><path
       id="path190"
       d="m 414,-223 c -3,108 66,141 174,137 V -43 0 H 37 v -43 -43 c 117,6 184,-31 184,-147 v -549 -549 c 2,-112 -70,-144 -184,-139 v -43 -43 h 377 c -3,208 7,429 -8,624 h 10 c 61,-124 162,-186 301,-186 253,1 362,144 362,401 v 242 242 c -3,110 54,152 164,147 V -43 0 H 887 V -353.5 -707 c 0,-170 -55,-283 -225,-280 -186,3 -248,143 -248,332 v 216 216"
       style="fill:#000000;fill-opacity:1;fill-rule:nonzero;stroke:none"
       transform="matrix(0,-0.005268,0.005268,0,478.38667,177.02731)" /><path
       id="path191"
       d="m 786,-645 c -4,-191 -36,-363 -223,-363 -76,0 -134,30 -175,92 -41,62 -66,152 -73,271 z m 123,393 c 43,21 51,90 17,136 C 862,-29 744,20 588,20 257,20 117,-205 113,-541 c -4,-348 134,-577 454,-577 327,0 443,231 426,583 H 311 c 7,242 67,426 305,426 140,0 234,-60 293,-143"
       style="fill:#000000;fill-opacity:1;fill-rule:nonzero;stroke:none"
       transform="matrix(0,-0.005268,0.005268,0,478.38667,170.17891)" /></g></svg>
