<?xml version="1.0" encoding="UTF-8" standalone="no"?>
<!-- Created with Inkscape (http://www.inkscape.org/) -->

<svg
   width="161.89587mm"
   height="55.740841mm"
   viewBox="0 0 161.89587 55.740841"
   version="1.1"
   id="svg1"
   xml:space="preserve"
   xmlns="http://www.w3.org/2000/svg"
   xmlns:svg="http://www.w3.org/2000/svg"><defs
     id="defs1" /><g
     id="layer1"
     transform="translate(-25.518993,-75.87541)"><rect
       style="display:inline;fill:#ffffff;fill-opacity:1"
       id="rect68"
       width="611.88995"
       height="210.67404"
       x="-735.04639"
       y="286.77319"
       transform="matrix(0.26458333,0,0,0.26458333,220.00001,0)" /></g><g
     id="g1"
     transform="matrix(0.26458333,0,0,0.26458335,194.48102,-75.87541)"><path
       id="path2"
       d="m -718.15088,301.6684 h 64.25981 v 0 35.36796 0 h -64.25981 z"
       style="fill:none;stroke:#000000;stroke-width:1.32837;stroke-linecap:butt;stroke-linejoin:miter;stroke-miterlimit:10;stroke-dasharray:none;stroke-opacity:1" /><path
       id="path3"
       d="m -653.89107,301.6684 h 64.42591 v 0 35.36796 0 h -64.42591 z"
       style="fill:none;stroke:#000000;stroke-width:1.32837;stroke-linecap:butt;stroke-linejoin:miter;stroke-miterlimit:10;stroke-dasharray:none;stroke-opacity:1" /><path
       id="path4"
       d="m -589.46516,301.6684 h 64.4259 v 0 35.36796 0 h -64.4259 z"
       style="fill:none;stroke:#000000;stroke-width:1.32837;stroke-linecap:butt;stroke-linejoin:miter;stroke-miterlimit:10;stroke-dasharray:none;stroke-opacity:1" /><path
       id="path5"
       d="m -525.03926,301.6684 h 64.25999 v 0 35.36796 0 h -64.25999 z"
       style="fill:none;stroke:#000000;stroke-width:1.32837;stroke-linecap:butt;stroke-linejoin:miter;stroke-miterlimit:10;stroke-dasharray:none;stroke-opacity:1" /><path
       id="path6"
       d="m -460.7794,301.6684 h 64.42589 v 0 35.36796 0 h -64.42589 z"
       style="fill:#d0cece;fill-opacity:1;fill-rule:evenodd;stroke:#d0cece;stroke-width:0.531333;stroke-linecap:butt;stroke-linejoin:miter;stroke-miterlimit:10;stroke-dasharray:none;stroke-opacity:1" /><path
       id="path7"
       d="m -460.7794,301.6684 h 64.42589 v 0 35.36796 0 h -64.42589 z"
       style="fill:none;stroke:#000000;stroke-width:1.32837;stroke-linecap:butt;stroke-linejoin:miter;stroke-miterlimit:10;stroke-dasharray:none;stroke-opacity:1" /><path
       id="path8"
       d="m -653.89107,337.03636 h 64.42591 v 0 35.3677 0 h -64.42591 z"
       style="fill:none;stroke:#000000;stroke-width:1.32837;stroke-linecap:butt;stroke-linejoin:miter;stroke-miterlimit:10;stroke-dasharray:none;stroke-opacity:1" /><path
       id="path9"
       d="m -589.46516,337.03636 h 64.4259 v 0 35.3677 0 h -64.4259 z"
       style="fill:none;stroke:#000000;stroke-width:1.32837;stroke-linecap:butt;stroke-linejoin:miter;stroke-miterlimit:10;stroke-dasharray:none;stroke-opacity:1" /><path
       id="path10"
       d="m -525.03926,337.03636 h 64.25999 v 0 35.3677 0 h -64.25999 z"
       style="fill:none;stroke:#000000;stroke-width:1.32837;stroke-linecap:butt;stroke-linejoin:miter;stroke-miterlimit:10;stroke-dasharray:none;stroke-opacity:1" /><path
       id="path11"
       d="m -460.7794,337.03636 h 64.42589 v 0 35.3677 0 h -64.42589 z"
       style="fill:#d0cece;fill-opacity:1;fill-rule:evenodd;stroke:#d0cece;stroke-width:0.531333;stroke-linecap:butt;stroke-linejoin:miter;stroke-miterlimit:10;stroke-dasharray:none;stroke-opacity:1" /><path
       id="path12"
       d="m -460.7794,337.03636 h 64.42589 v 0 35.3677 0 h -64.42589 z"
       style="fill:none;stroke:#000000;stroke-width:1.32837;stroke-linecap:butt;stroke-linejoin:miter;stroke-miterlimit:10;stroke-dasharray:none;stroke-opacity:1" /><path
       id="path13"
       d="m -396.35351,337.03636 h 64.4259 v 0 35.3677 0 h -64.4259 z"
       style="fill:none;stroke:#000000;stroke-width:1.32837;stroke-linecap:butt;stroke-linejoin:miter;stroke-miterlimit:10;stroke-dasharray:none;stroke-opacity:1" /><path
       id="path14"
       d="m -589.46516,372.40406 h 64.4259 v 0 35.36797 0 h -64.4259 z"
       style="fill:none;stroke:#000000;stroke-width:1.32837;stroke-linecap:butt;stroke-linejoin:miter;stroke-miterlimit:10;stroke-dasharray:none;stroke-opacity:1" /><path
       id="path15"
       d="m -525.03926,372.40406 h 64.25999 v 0 35.36797 0 h -64.25999 z"
       style="fill:none;stroke:#000000;stroke-width:1.32837;stroke-linecap:butt;stroke-linejoin:miter;stroke-miterlimit:10;stroke-dasharray:none;stroke-opacity:1" /><path
       id="path16"
       d="m -460.7794,372.40406 h 64.42589 v 0 35.36797 0 h -64.42589 z"
       style="fill:#d0cece;fill-opacity:1;fill-rule:evenodd;stroke:#d0cece;stroke-width:0.531333;stroke-linecap:butt;stroke-linejoin:miter;stroke-miterlimit:10;stroke-dasharray:none;stroke-opacity:1" /><path
       id="path17"
       d="m -460.7794,372.40406 h 64.42589 v 0 35.36797 0 h -64.42589 z"
       style="fill:none;stroke:#000000;stroke-width:1.32837;stroke-linecap:butt;stroke-linejoin:miter;stroke-miterlimit:10;stroke-dasharray:none;stroke-opacity:1" /><path
       id="path18"
       d="m -396.35351,372.40406 h 64.4259 v 0 35.36797 0 h -64.4259 z"
       style="fill:none;stroke:#000000;stroke-width:1.32837;stroke-linecap:butt;stroke-linejoin:miter;stroke-miterlimit:10;stroke-dasharray:none;stroke-opacity:1" /><path
       id="path19"
       d="m -331.92761,372.40406 h 64.25987 v 0 35.36797 0 h -64.25987 z"
       style="fill:none;stroke:#000000;stroke-width:1.32837;stroke-linecap:butt;stroke-linejoin:miter;stroke-miterlimit:10;stroke-dasharray:none;stroke-opacity:1" /><path
       id="path20"
       d="m -525.03926,408.27003 h 64.25999 v 0 35.53388 0 h -64.25999 z"
       style="fill:none;stroke:#000000;stroke-width:1.32837;stroke-linecap:butt;stroke-linejoin:miter;stroke-miterlimit:10;stroke-dasharray:none;stroke-opacity:1" /><path
       id="path21"
       d="m -460.7794,408.27003 h 64.42589 v 0 35.53388 0 h -64.42589 z"
       style="fill:#d0cece;fill-opacity:1;fill-rule:evenodd;stroke:#d0cece;stroke-width:0.531333;stroke-linecap:butt;stroke-linejoin:miter;stroke-miterlimit:10;stroke-dasharray:none;stroke-opacity:1" /><path
       id="path22"
       d="m -460.7794,408.27003 h 64.42589 v 0 35.53388 0 h -64.42589 z"
       style="fill:none;stroke:#000000;stroke-width:1.32837;stroke-linecap:butt;stroke-linejoin:miter;stroke-miterlimit:10;stroke-dasharray:none;stroke-opacity:1" /><path
       id="path23"
       d="m -396.35351,408.27003 h 64.4259 v 0 35.53388 0 h -64.4259 z"
       style="fill:none;stroke:#000000;stroke-width:1.32837;stroke-linecap:butt;stroke-linejoin:miter;stroke-miterlimit:10;stroke-dasharray:none;stroke-opacity:1" /><path
       id="path24"
       d="m -331.92761,408.27003 h 64.25987 v 0 35.53388 0 h -64.25987 z"
       style="fill:none;stroke:#000000;stroke-width:1.32837;stroke-linecap:butt;stroke-linejoin:miter;stroke-miterlimit:10;stroke-dasharray:none;stroke-opacity:1" /><path
       id="path25"
       d="m -267.66774,408.27003 h 64.4259 v 0 35.53388 0 h -64.4259 z"
       style="fill:none;stroke:#000000;stroke-width:1.32837;stroke-linecap:butt;stroke-linejoin:miter;stroke-miterlimit:10;stroke-dasharray:none;stroke-opacity:1" /><path
       id="path26"
       d="m -460.7794,444.30217 h 64.42589 v 0 35.3677 0 h -64.42589 z"
       style="fill:#d0cece;fill-opacity:1;fill-rule:evenodd;stroke:#d0cece;stroke-width:0.531333;stroke-linecap:butt;stroke-linejoin:miter;stroke-miterlimit:10;stroke-dasharray:none;stroke-opacity:1" /><path
       id="path27"
       d="m -460.7794,444.30217 h 64.42589 v 0 35.3677 0 h -64.42589 z"
       style="fill:none;stroke:#000000;stroke-width:1.32837;stroke-linecap:butt;stroke-linejoin:miter;stroke-miterlimit:10;stroke-dasharray:none;stroke-opacity:1" /><path
       id="path28"
       d="m -396.35351,444.30217 h 64.4259 v 0 35.3677 0 h -64.4259 z"
       style="fill:none;stroke:#000000;stroke-width:1.32837;stroke-linecap:butt;stroke-linejoin:miter;stroke-miterlimit:10;stroke-dasharray:none;stroke-opacity:1" /><path
       id="path29"
       d="m -331.92761,444.30217 h 64.25987 v 0 35.3677 0 h -64.25987 z"
       style="fill:none;stroke:#000000;stroke-width:1.32837;stroke-linecap:butt;stroke-linejoin:miter;stroke-miterlimit:10;stroke-dasharray:none;stroke-opacity:1" /><path
       id="path30"
       d="m -267.66774,444.30217 h 64.4259 v 0 35.3677 0 h -64.4259 z"
       style="fill:none;stroke:#000000;stroke-width:1.32837;stroke-linecap:butt;stroke-linejoin:miter;stroke-miterlimit:10;stroke-dasharray:none;stroke-opacity:1" /><path
       id="path31"
       d="m -203.24184,444.30217 h 64.25984 v 0 35.3677 0 h -64.25984 z"
       style="fill:none;stroke:#000000;stroke-width:1.32837;stroke-linecap:butt;stroke-linejoin:miter;stroke-miterlimit:10;stroke-dasharray:none;stroke-opacity:1" /><path
       id="path32"
       d="m -718.15086,301.6684 v 35.36796"
       style="fill:none;stroke:#000000;stroke-width:2.98883;stroke-linecap:butt;stroke-linejoin:miter;stroke-miterlimit:10;stroke-dasharray:none;stroke-opacity:1" /><path
       id="path33"
       d="m -654.05712,337.03636 v 35.3677"
       style="fill:none;stroke:#000000;stroke-width:2.98883;stroke-linecap:butt;stroke-linejoin:miter;stroke-miterlimit:10;stroke-dasharray:none;stroke-opacity:1" /><path
       id="path34"
       d="m -589.79725,372.40406 v 35.36797"
       style="fill:none;stroke:#000000;stroke-width:2.98883;stroke-linecap:butt;stroke-linejoin:miter;stroke-miterlimit:10;stroke-dasharray:none;stroke-opacity:1" /><path
       id="path35"
       d="m -525.03926,407.77203 v 35.53386"
       style="fill:none;stroke:#000000;stroke-width:2.98883;stroke-linecap:butt;stroke-linejoin:miter;stroke-miterlimit:10;stroke-dasharray:none;stroke-opacity:1" /><path
       id="path36"
       d="m -460.7794,444.30217 v 35.3677"
       style="fill:none;stroke:#000000;stroke-width:2.98883;stroke-linecap:butt;stroke-linejoin:miter;stroke-miterlimit:10;stroke-dasharray:none;stroke-opacity:1" /><path
       id="path37"
       d="m -718.15086,359.12038 v 29.72238"
       style="fill:none;stroke:#000000;stroke-width:1.99256;stroke-linecap:butt;stroke-linejoin:miter;stroke-miterlimit:10;stroke-dasharray:none;stroke-opacity:1" /><path
       id="path38"
       d="m -718.15086,394.82043 -3.98511,-7.97023 v 0 h 7.97021 v 0 z"
       style="fill:#000000;fill-opacity:1;fill-rule:nonzero;stroke:#000000;stroke-width:0.531333;stroke-linecap:butt;stroke-linejoin:miter;stroke-miterlimit:10;stroke-dasharray:none;stroke-opacity:1" /><path
       id="path39"
       d="m -722.80016,452.10621 h 30.88452"
       style="fill:none;stroke:#000000;stroke-width:1.99256;stroke-linecap:butt;stroke-linejoin:miter;stroke-miterlimit:10;stroke-dasharray:none;stroke-opacity:1" /><path
       id="path40"
       d="m -685.93797,452.10621 -7.97021,3.98511 v 0 -7.97021 0 z"
       style="fill:#000000;fill-opacity:1;fill-rule:nonzero;stroke:#000000;stroke-width:0.531333;stroke-linecap:butt;stroke-linejoin:miter;stroke-miterlimit:10;stroke-dasharray:none;stroke-opacity:1" /><path
       id="path41"
       d="m -700.24818,372.99993 -3.70313,1.3125 v 0.35937 l 0.1875,-0.0156 c 0.28125,-0.0469 0.59375,-0.0781 0.8125,-0.0781 0.57813,0 0.78125,0.39063 0.78125,1.4375 v 5.54688 c 0,1.71875 -0.23437,1.98437 -1.89062,2.07812 v 0.35938 h 5.67187 v -0.35938 c -1.57812,-0.125 -1.76562,-0.35937 -1.76562,-2.07812 v -8.48438 z m -1.125,-5.32813 c -0.64063,0 -1.20313,0.54688 -1.20313,1.21875 0,0.67188 0.53125,1.21875 1.20313,1.21875 0.6875,0 1.23437,-0.53125 1.23437,-1.21875 0,-0.67187 -0.54687,-1.21875 -1.23437,-1.21875 z m 0,0"
       style="fill:#000000;fill-opacity:1;fill-rule:nonzero;stroke:none;stroke-width:1.33333"
       aria-label="i" /><path
       id="path42"
       d="m -702.49428,434.01946 h -2.40625 v -2.78125 c 0,-0.23438 -0.0312,-0.3125 -0.17187,-0.3125 -0.17188,0.21875 -0.3125,0.4375 -0.48438,0.67187 -0.90625,1.3125 -1.9375,2.46875 -2.3125,2.5625 -0.26562,0.15625 -0.40625,0.32813 -0.40625,0.45313 0,0.0625 0.0156,0.10937 0.0937,0.15625 h 1.26563 v 7.20312 c 0,2.01563 0.71875,3.03125 2.125,3.03125 1.17187,0 2.07812,-0.5625 2.875,-1.8125 l -0.3125,-0.26562 c -0.5,0.59375 -0.90625,0.84375 -1.4375,0.84375 -0.875,0 -1.23438,-0.65625 -1.23438,-2.15625 v -6.84375 h 2.40625 z m 0,0"
       style="fill:#000000;fill-opacity:1;fill-rule:nonzero;stroke:none;stroke-width:1.33333"
       aria-label="t" /><path
       id="path43"
       d="m -693.40443,313.55461 v 0.54688 h 0.625 c 0.65625,0 1.23438,0.0625 1.23438,0.78125 v 10.03125 c 0,0.70312 -0.57813,0.8125 -1.17188,0.8125 -0.25,0 -0.48437,-0.0156 -0.6875,-0.0156 v 0.54688 h 5.21875 v -0.54688 c -0.21875,0 -0.4375,0.0156 -0.67187,0.0156 -0.625,0 -1.1875,-0.0781 -1.1875,-0.8125 v -10.03125 c 0,-0.71875 0.64062,-0.78125 1.26562,-0.78125 h 0.59375 v -0.54688 z m 6.66406,0.0312 v 0.54688 h 0.57813 c 0.625,0 1.20312,0.0781 1.20312,0.75 0,0.10937 -0.0156,0.23437 -0.0156,0.34375 v 9.67187 c 0,0.75 -0.57813,0.8125 -1.1875,0.8125 h -0.57813 v 0.54688 h 5.48438 v -0.54688 c -0.25,0 -0.51563,0.0156 -0.82813,0.0156 -0.89062,0 -1.39062,-0.0781 -1.39062,-0.89063 v -4.64062 h 1.5625 c 0.98437,0 2.03125,0.0781 2.03125,1.84375 v 0.32812 h 0.40625 v -4.89062 h -0.40625 v 0.34375 c 0,1.39062 -0.5,1.82812 -2.3125,1.82812 h -1.28125 v -4.84375 c 0,-0.53125 0.23437,-0.67187 0.73437,-0.67187 h 2.15625 c 1.03126,0 2.29688,0.0156 3,0.90625 0.57813,0.75 0.65626,1.78125 0.76563,2.70312 h 0.40625 l -0.48438,-4.15625 z m 0,0"
       style="fill:#000000;fill-opacity:1;fill-rule:nonzero;stroke:none;stroke-width:1.33333"
       aria-label="IF" /><path
       id="path44"
       d="m -630.30287,313.55461 v 0.54688 h 0.625 c 0.65625,0 1.23438,0.0625 1.23438,0.78125 v 10.03125 c 0,0.70312 -0.57813,0.8125 -1.17188,0.8125 -0.25,0 -0.48437,-0.0156 -0.6875,-0.0156 v 0.54688 h 5.21875 v -0.54688 c -0.21875,0 -0.4375,0.0156 -0.67187,0.0156 -0.625,0 -1.1875,-0.0781 -1.1875,-0.8125 v -10.03125 c 0,-0.71875 0.64062,-0.78125 1.26562,-0.78125 h 0.59375 v -0.54688 z m 6.67578,0 v 0.54688 h 0.59375 c 0.60938,0 1.1875,0.0625 1.1875,0.78125 0,0.125 -0.0156,0.23437 -0.0156,0.34375 v 9.67187 c 0,0.71875 -0.5625,0.82813 -1.10938,0.82813 -0.23437,0 -0.45312,-0.0156 -0.65625,-0.0156 v 0.54688 h 5.0625 c 0.35938,0 0.73438,0.0156 1.125,0.0156 1.375,0 2.625,-0.35937 3.79688,-1.35937 1.40625,-1.25 2.125,-3.07813 2.125,-4.9375 0,-3.20313 -2.09375,-6.4375 -6,-6.4375 -0.375,0 -0.76563,0.0156 -1.14063,0.0156 z m 10.39063,7.15625 c -0.14063,2.15625 -0.79688,4.10938 -3.15625,4.85938 -0.5625,0.14062 -1.125,0.14062 -1.6875,0.14062 h -1.59375 c -0.35938,0 -0.73438,-0.0312 -0.73438,-0.625 0,-0.15625 0.0156,-0.28125 0.0156,-0.40625 v -9.23437 c 0,-0.15625 -0.0156,-0.34375 -0.0156,-0.53125 0,-0.48438 0,-0.8125 0.875,-0.8125 h 1.59375 c 1.29688,0 2.60938,0.26562 3.64063,1.625 0.95312,1.26562 1.07812,2.89062 1.07812,4.39062 0,0.20313 0,0.39063 -0.0156,0.59375 z m 0,0"
       style="fill:#000000;fill-opacity:1;fill-rule:nonzero;stroke:none;stroke-width:1.33333"
       aria-label="ID" /><path
       id="path45"
       d="m -568.47083,313.58586 v 0.54688 h 0.5625 c 0.64062,0 1.21875,0.0781 1.21875,0.75 0,0.10937 -0.0156,0.23437 -0.0156,0.34375 v 9.67187 c 0,0.75 -0.57813,0.8125 -1.20312,0.8125 h -0.5625 v 0.54688 h 10.375 l 0.73437,-4.76563 h -0.40625 c -0.20312,1.14063 -0.3125,2.5 -1.10937,3.32813 -0.82813,0.85937 -2.125,0.89062 -3.23438,0.89062 h -2.3125 c -0.45312,0 -0.78125,-0.0469 -0.78125,-0.6875 v -5.07812 h 1.75 c 0.625,0 1.3125,0.0469 1.67188,0.5625 0.26562,0.40625 0.28125,0.95312 0.28125,1.4375 v 0.1875 h 0.40625 v -4.89063 h -0.40625 v 0.1875 c 0,0.9375 -0.15625,1.78125 -1.34375,1.95313 -0.34375,0.0312 -0.6875,0.0312 -1.03125,0.0312 h -1.32813 v -4.65625 c 0,-0.57813 0.35938,-0.625 0.78125,-0.625 h 2.34375 c 1,0 2.25,0.0156 2.95313,0.8125 0.67187,0.75 0.70312,1.84375 0.85937,2.79687 h 0.40625 l -0.48437,-4.15625 z m 12.29296,-0.0312 v 0.54688 h 0.4375 c 0.57813,0 1.125,0.0469 1.53125,0.64062 1.07813,1.53125 2.09375,3.10938 3.125,4.67188 l 0.21875,0.32812 c 0.0313,0.0625 0.0937,0.10938 0.0937,0.1875 0,0.17188 -0.20313,0.35938 -0.29687,0.5 -0.75,1.14063 -1.5,2.25 -2.28126,3.35938 -0.34374,0.51562 -0.67187,1.07812 -1.20312,1.42187 -0.53125,0.375 -1.21875,0.5 -1.875,0.5 v 0.54688 h 4.07813 v -0.54688 c -0.45313,-0.0156 -1,-0.3125 -1,-0.79687 v -0.0937 c 0.0781,-0.40625 0.51562,-0.875 0.79687,-1.28125 0.60938,-0.89063 1.23438,-1.79688 1.84375,-2.71875 0.0781,-0.14063 0.20313,-0.28125 0.26563,-0.42188 0.32812,0.40625 0.59375,0.85938 0.875,1.28125 l 2.0625,3.0625 c 0.0781,0.125 0.20312,0.26563 0.23437,0.42188 0,0.39062 -0.67187,0.54687 -1.0625,0.54687 v 0.54688 h 4.71875 v -0.54688 h -0.28125 c -0.6875,0 -1.28125,-0.0312 -1.76562,-0.78125 -1.17188,-1.76562 -2.34375,-3.51562 -3.53125,-5.25 -0.0937,-0.15625 -0.32813,-0.42187 -0.32813,-0.5625 0,-0.20312 0.70313,-1.07812 1.03125,-1.5625 0.375,-0.5625 0.76563,-1.09375 1.14063,-1.65625 0.3125,-0.48437 0.60937,-0.96875 1.09375,-1.29687 0.54687,-0.375 1.23437,-0.5 1.875,-0.5 v -0.54688 h -4.0625 v 0.54688 c 0.4375,0.0156 1,0.3125 1,0.79687 0,0.45313 -0.59375,1.07813 -0.90625,1.5625 -0.32813,0.45313 -0.64063,0.90625 -0.95313,1.375 -0.1875,0.28125 -0.35937,0.57813 -0.57812,0.82813 -0.125,-0.3125 -0.4375,-0.70313 -0.67188,-1.01563 -0.42187,-0.64062 -0.82812,-1.25 -1.26562,-1.875 l -0.5,-0.76562 c -0.0781,-0.0937 -0.1875,-0.21875 -0.1875,-0.35938 v -0.0156 c 0,-0.35938 0.67187,-0.53125 1.0625,-0.53125 v -0.54688 z m 0,0"
       style="fill:#000000;fill-opacity:1;fill-rule:nonzero;stroke:none;stroke-width:1.33333"
       aria-label="EX" /><path
       id="path46"
       d="m -515.93178,313.55461 v 0.54688 h 0.625 c 0.60938,0 1.17188,0.0625 1.17188,0.75 0,0.14062 -0.0312,0.25 -0.0312,0.35937 v 9.1875 c 0,1.1875 -0.98438,1.3125 -1.76563,1.3125 v 0.54688 h 3.98438 v -0.54688 c -0.85938,0 -1.76563,-0.15625 -1.76563,-1.40625 l 0.0156,-10.14062 c 0.0937,0.32812 0.25,0.64062 0.35937,0.95312 1.07813,2.76563 2.09375,5.51563 3.15625,8.29688 l 0.84375,2.17187 c 0.0625,0.23438 0.14063,0.60938 0.42188,0.67188 h 0.0156 c 0.28125,0 0.35938,-0.4375 0.4375,-0.64063 l 3.28125,-8.57812 c 0.25,-0.65625 0.48438,-1.3125 0.75,-1.95313 l 0.21875,-0.625 c 0.0625,-0.125 0.10938,-0.25 0.15625,-0.40625 l 0.0156,10.42188 c 0,0.14062 0.0156,0.3125 0.0156,0.45312 0,0.71875 -0.57812,0.79688 -1.15625,0.79688 -0.21875,0 -0.4375,-0.0156 -0.625,-0.0156 v 0.54688 h 4.90625 v -0.54688 h -0.59375 c -0.60937,0 -1.1875,-0.0625 -1.1875,-0.78125 0,-0.125 0.0156,-0.23437 0.0156,-0.34375 v -9.67187 c 0,-0.73438 0.5625,-0.84375 1.10937,-0.84375 0.23438,0 0.45313,0.0312 0.65625,0.0312 v -0.54688 h -2.98437 l -0.3125,0.0625 -0.375,0.79688 -3.82813,10.0625 h -0.0312 l -3.82812,-10.0625 -0.375,-0.79688 -0.3125,-0.0625 z m 16.62109,0.0312 v 0.54688 h 0.5625 c 0.64063,0 1.21876,0.0781 1.21876,0.75 0,0.10937 -0.0156,0.23437 -0.0156,0.34375 v 9.67187 c 0,0.75 -0.57813,0.8125 -1.20313,0.8125 h -0.5625 v 0.54688 h 10.375 l 0.73438,-4.76563 h -0.40625 c -0.20313,1.14063 -0.3125,2.5 -1.10938,3.32813 -0.82812,0.85937 -2.125,0.89062 -3.23437,0.89062 h -2.3125 c -0.45313,0 -0.78125,-0.0469 -0.78125,-0.6875 v -5.07812 h 1.75 c 0.625,0 1.3125,0.0469 1.67187,0.5625 0.26563,0.40625 0.28125,0.95312 0.28125,1.4375 v 0.1875 h 0.40625 v -4.89063 h -0.40624 v 0.1875 c 0,0.9375 -0.15626,1.78125 -1.34376,1.95313 -0.34374,0.0312 -0.6875,0.0312 -1.03124,0.0312 h -1.32813 v -4.65625 c 0,-0.57813 0.35937,-0.625 0.78125,-0.625 h 2.34375 c 1,0 2.25,0.0156 2.95313,0.8125 0.67187,0.75 0.70312,1.84375 0.85937,2.79687 h 0.40625 l -0.48438,-4.15625 z m 12.44922,-0.0312 v 0.54688 h 0.625 c 0.60938,0 1.17188,0.0625 1.17188,0.75 0,0.14062 -0.0313,0.25 -0.0313,0.35937 v 9.1875 c 0,1.1875 -0.98437,1.3125 -1.76562,1.3125 v 0.54688 h 3.98437 v -0.54688 c -0.85937,0 -1.76562,-0.15625 -1.76562,-1.40625 l 0.0156,-10.14062 c 0.0937,0.32812 0.25,0.64062 0.35937,0.95312 1.07813,2.76563 2.09375,5.51563 3.15625,8.29688 l 0.84375,2.17187 c 0.0625,0.23438 0.14063,0.60938 0.42188,0.67188 h 0.0156 c 0.28125,0 0.35938,-0.4375 0.4375,-0.64063 l 3.28125,-8.57812 c 0.25,-0.65625 0.48438,-1.3125 0.75,-1.95313 l 0.21875,-0.625 c 0.0625,-0.125 0.10938,-0.25 0.15625,-0.40625 l 0.0156,10.42188 c 0,0.14062 0.0156,0.3125 0.0156,0.45312 0,0.71875 -0.57813,0.79688 -1.15625,0.79688 -0.21875,0 -0.4375,-0.0156 -0.625,-0.0156 v 0.54688 h 4.90625 v -0.54688 h -0.59375 c -0.60938,0 -1.1875,-0.0625 -1.1875,-0.78125 0,-0.125 0.0156,-0.23437 0.0156,-0.34375 v -9.67187 c 0,-0.73438 0.5625,-0.84375 1.10938,-0.84375 0.23437,0 0.45312,0.0312 0.65625,0.0312 v -0.54688 h -2.98438 l -0.3125,0.0625 -0.375,0.79688 -3.82812,10.0625 h -0.0313 l -3.82812,-10.0625 -0.375,-0.79688 -0.3125,-0.0625 z m 0,0"
       style="fill:#000000;fill-opacity:1;fill-rule:nonzero;stroke:none;stroke-width:1.33333"
       aria-label="MEM" /><path
       id="path47"
       d="m -445.35365,313.55461 v 0.54688 h 0.28125 c 0.40625,0 0.85937,0.0156 1.07812,0.26562 0.20313,0.25 0.26563,0.59375 0.35938,0.90625 l 0.54687,1.71875 c 0.95313,3 1.95313,5.95313 2.89063,8.95313 l 0.10937,0.32812 c 0.0625,0.1875 0.125,0.375 0.32813,0.375 h 0.0625 c 0.375,-0.10937 0.89062,-2.3125 1.26562,-3.40625 0.6875,-2.04687 1.35938,-4.10937 1.96875,-6.17187 0.0625,-0.125 0.10938,-0.26563 0.125,-0.40625 h 0.0312 c 0.0469,0.40625 0.29688,0.92187 0.42188,1.375 0.90625,2.76562 1.84375,5.51562 2.67187,8.32812 0.0625,0.125 0.10938,0.23438 0.26563,0.28125 h 0.0625 c 0.20312,0 0.26562,-0.1875 0.32812,-0.375 l 0.10938,-0.32812 c 1.10937,-3.5 2.25,-6.9375 3.34375,-10.4375 0.26562,-0.70313 0.59375,-1.40625 1.8125,-1.40625 v -0.54688 h -3.59375 v 0.54688 c 0.59375,0 1.46875,0.26562 1.46875,0.98437 0,0.26563 -0.1875,0.6875 -0.29688,0.98438 -0.92187,2.70312 -1.84375,5.42187 -2.625,8.17187 h -0.0156 c -0.17188,-0.76562 -0.48438,-1.51562 -0.71875,-2.26562 -0.6875,-2.21875 -1.42188,-4.42188 -2.125,-6.625 -0.0781,-0.20313 -0.20313,-0.51563 -0.20313,-0.70313 0,-0.53125 0.92188,-0.54687 1.4375,-0.54687 v -0.54688 h -4.53125 v 0.54688 h 0.35938 c 0.28125,0 0.59375,0.0156 0.8125,0.125 0.40625,0.21875 0.53125,0.96875 0.64062,1.3125 0.0469,0.14062 0.125,0.29687 0.125,0.45312 v 0.0312 c -0.0312,0.23438 -0.14062,0.45313 -0.20312,0.65625 -0.71875,2.25 -1.4375,4.51563 -2.17188,6.76563 -0.0937,0.26562 -0.20312,0.51562 -0.25,0.78125 -0.125,-0.1875 -0.15625,-0.46875 -0.23437,-0.6875 -0.90625,-2.71875 -1.76563,-5.48438 -2.65625,-8.21875 l -0.10938,-0.39063 c -0.0469,-0.0937 -0.0781,-0.1875 -0.0781,-0.28125 0,-0.54687 0.92187,-0.54687 1.42187,-0.54687 v -0.54688 z m 19.17187,0 v 0.54688 h 0.60938 c 0.625,0 1.17187,0.0625 1.17187,0.75 0,0.14062 -0.0156,0.25 -0.0156,0.35937 v 9.6875 c 0,0.75 -0.57813,0.8125 -1.1875,0.8125 h -0.57813 v 0.54688 h 5.625 c 0.34375,0 0.71875,0.0156 1.09375,0.0156 1.60937,0 3.71875,-0.625 4.23437,-2.64062 0.0781,-0.21875 0.10938,-0.48438 0.10938,-0.71875 0,-1.89063 -1.89063,-3.28125 -3.5625,-3.28125 0.28125,-0.10938 0.57812,-0.14063 0.84375,-0.25 1.17187,-0.42188 2.21875,-1.42188 2.21875,-2.70313 0,-1.32812 -1.10938,-2.375 -2.28125,-2.82812 -0.70313,-0.26563 -1.46875,-0.3125 -2.21875,-0.3125 -0.34375,0 -0.70313,0.0156 -1.0625,0.0156 z m 3.1875,6.28125 h 2.53125 c 0.25,0 0.53125,-0.0156 0.79688,-0.0156 1.79687,0 2.85937,1.45312 2.85937,2.96875 0,1.8125 -1.42187,2.9375 -3.25,2.9375 -0.28125,0 -0.54687,-0.0156 -0.79687,-0.0156 h -1.4375 c -0.5,0 -0.70313,-0.1875 -0.70313,-0.6875 z m 0,-0.375 v -4.70312 c 0,-0.48438 0.20313,-0.65625 0.6875,-0.65625 h 2.29688 c 1.14062,0 2.01562,0.39062 2.53125,1.51562 0.125,0.34375 0.21875,0.70313 0.21875,1.07813 0,1.76562 -1.5625,2.76562 -3.20313,2.76562 z m 0,0"
       style="fill:#000000;fill-opacity:1;fill-rule:nonzero;stroke:none;stroke-width:1.33333"
       aria-label="WB" /><path
       id="path48"
       d="m -630.30677,348.92571 v 0.54687 h 0.625 c 0.65625,0 1.23437,0.0625 1.23437,0.78125 v 10.03125 c 0,0.70313 -0.57812,0.8125 -1.17187,0.8125 -0.25,0 -0.48438,-0.0156 -0.6875,-0.0156 v 0.54687 h 5.21875 v -0.54687 c -0.21875,0 -0.4375,0.0156 -0.67188,0.0156 -0.625,0 -1.1875,-0.0781 -1.1875,-0.8125 v -10.03125 c 0,-0.71875 0.64063,-0.78125 1.26563,-0.78125 h 0.59375 v -0.54687 z m 6.66015,0.0312 v 0.54687 h 0.57813 c 0.625,0 1.20312,0.0781 1.20312,0.75 0,0.10938 -0.0156,0.23438 -0.0156,0.34375 v 9.67188 c 0,0.75 -0.57813,0.8125 -1.1875,0.8125 h -0.57813 v 0.54687 h 5.48438 v -0.54687 c -0.25,0 -0.51563,0.0156 -0.82813,0.0156 -0.89062,0 -1.39062,-0.0781 -1.39062,-0.89062 v -4.64063 h 1.5625 c 0.98437,0 2.03125,0.0781 2.03125,1.84375 v 0.32813 h 0.40625 v -4.89063 h -0.40625 v 0.34375 c 0,1.39063 -0.5,1.82813 -2.3125,1.82813 h -1.28125 v -4.84375 c 0,-0.53125 0.23437,-0.67188 0.73437,-0.67188 h 2.15626 c 1.03124,0 2.29687,0.0156 3,0.90625 0.57812,0.75 0.65624,1.78125 0.76562,2.70313 h 0.40625 l -0.48437,-4.15625 z m 0,0"
       style="fill:#000000;fill-opacity:1;fill-rule:nonzero;stroke:none;stroke-width:1.33333"
       aria-label="IF" /><path
       id="path49"
       d="m -565.88881,348.92571 v 0.54687 h 0.625 c 0.65625,0 1.23438,0.0625 1.23438,0.78125 v 10.03125 c 0,0.70313 -0.57813,0.8125 -1.17188,0.8125 -0.25,0 -0.48437,-0.0156 -0.6875,-0.0156 v 0.54687 h 5.21875 v -0.54687 c -0.21875,0 -0.4375,0.0156 -0.67187,0.0156 -0.625,0 -1.1875,-0.0781 -1.1875,-0.8125 v -10.03125 c 0,-0.71875 0.64062,-0.78125 1.26562,-0.78125 h 0.59375 v -0.54687 z m 6.67969,0 v 0.54687 h 0.59375 c 0.60937,0 1.1875,0.0625 1.1875,0.78125 0,0.125 -0.0156,0.23438 -0.0156,0.34375 v 9.67188 c 0,0.71875 -0.5625,0.82812 -1.10937,0.82812 -0.23438,0 -0.45313,-0.0156 -0.65625,-0.0156 v 0.54687 h 5.0625 c 0.35937,0 0.73437,0.0156 1.125,0.0156 1.375,0 2.625,-0.35938 3.79687,-1.35938 1.40625,-1.25 2.125,-3.07812 2.125,-4.9375 0,-3.20312 -2.09375,-6.4375 -6,-6.4375 -0.375,0 -0.76562,0.0156 -1.14062,0.0156 z m 10.39062,7.15625 c -0.14062,2.15625 -0.79687,4.10937 -3.15625,4.85937 -0.5625,0.14063 -1.125,0.14063 -1.6875,0.14063 h -1.59375 c -0.35937,0 -0.73437,-0.0312 -0.73437,-0.625 0,-0.15625 0.0156,-0.28125 0.0156,-0.40625 v -9.23438 c 0,-0.15625 -0.0156,-0.34375 -0.0156,-0.53125 0,-0.48437 0,-0.8125 0.875,-0.8125 h 1.59375 c 1.29687,0 2.60937,0.26563 3.64062,1.625 0.95313,1.26563 1.07813,2.89063 1.07813,4.39063 0,0.20312 0,0.39062 -0.0156,0.59375 z m 0,0"
       style="fill:#000000;fill-opacity:1;fill-rule:nonzero;stroke:none;stroke-width:1.33333"
       aria-label="ID" /><path
       id="path50"
       d="m -506.69349,348.95696 v 0.54687 h 0.5625 c 0.64063,0 1.21875,0.0781 1.21875,0.75 0,0.10938 -0.0156,0.23438 -0.0156,0.34375 v 9.67188 c 0,0.75 -0.57813,0.8125 -1.20313,0.8125 h -0.5625 v 0.54687 h 10.375 l 0.73438,-4.76562 h -0.40625 c -0.20313,1.14062 -0.3125,2.5 -1.10938,3.32812 -0.82812,0.85938 -2.125,0.89063 -3.23437,0.89063 h -2.3125 c -0.45313,0 -0.78125,-0.0469 -0.78125,-0.6875 v -5.07813 h 1.75 c 0.625,0 1.3125,0.0469 1.67187,0.5625 0.26563,0.40625 0.28125,0.95313 0.28125,1.4375 v 0.1875 h 0.40625 v -4.89062 h -0.40625 v 0.1875 c 0,0.9375 -0.15625,1.78125 -1.34375,1.95312 -0.34375,0.0312 -0.6875,0.0312 -1.03125,0.0312 h -1.32812 v -4.65625 c 0,-0.57812 0.35937,-0.625 0.78125,-0.625 h 2.34375 c 1,0 2.25,0.0156 2.95312,0.8125 0.67188,0.75 0.70313,1.84375 0.85938,2.79688 h 0.40625 l -0.48438,-4.15625 z m 12.29297,-0.0312 v 0.54687 h 0.4375 c 0.57813,0 1.125,0.0469 1.53125,0.64063 1.07812,1.53125 2.09375,3.10937 3.125,4.67187 l 0.21875,0.32813 c 0.0312,0.0625 0.0937,0.10937 0.0937,0.1875 0,0.17187 -0.20313,0.35937 -0.29688,0.5 -0.75,1.14062 -1.5,2.25 -2.28125,3.35937 -0.34375,0.51563 -0.67187,1.07813 -1.20312,1.42188 -0.53125,0.375 -1.21875,0.5 -1.875,0.5 v 0.54687 h 4.07813 v -0.54687 c -0.45313,-0.0156 -1,-0.3125 -1,-0.79688 v -0.0937 c 0.0781,-0.40625 0.51562,-0.875 0.79687,-1.28125 0.60937,-0.89062 1.23437,-1.79687 1.84375,-2.71875 0.0781,-0.14062 0.20312,-0.28125 0.26562,-0.42187 0.32813,0.40625 0.59376,0.85937 0.875,1.28125 l 2.0625,3.0625 c 0.0781,0.125 0.20313,0.26562 0.23438,0.42187 0,0.39063 -0.67188,0.54688 -1.0625,0.54688 v 0.54687 h 4.71875 v -0.54687 h -0.28125 c -0.6875,0 -1.28125,-0.0312 -1.76562,-0.78125 -1.17188,-1.76563 -2.34376,-3.51563 -3.53126,-5.25 -0.0937,-0.15625 -0.32812,-0.42188 -0.32812,-0.5625 0,-0.20313 0.70312,-1.07813 1.03125,-1.5625 0.375,-0.5625 0.76563,-1.09375 1.14063,-1.65625 0.3125,-0.48438 0.60937,-0.96875 1.09374,-1.29688 0.54688,-0.375 1.23438,-0.5 1.875,-0.5 v -0.54687 h -4.0625 v 0.54687 c 0.4375,0.0156 1,0.3125 1,0.79688 0,0.45312 -0.59374,1.07812 -0.90624,1.5625 -0.32813,0.45312 -0.64063,0.90625 -0.95313,1.375 -0.1875,0.28125 -0.35937,0.57812 -0.57813,0.82812 -0.125,-0.3125 -0.4375,-0.70312 -0.67187,-1.01562 -0.42187,-0.64063 -0.82813,-1.25 -1.26563,-1.875 l -0.5,-0.76563 c -0.0781,-0.0937 -0.1875,-0.21875 -0.1875,-0.35937 v -0.0156 c 0,-0.35937 0.67188,-0.53125 1.0625,-0.53125 v -0.54687 z m 0,0"
       style="fill:#000000;fill-opacity:1;fill-rule:nonzero;stroke:none;stroke-width:1.33333"
       aria-label="EX" /><path
       id="path51"
       d="m -450.17396,348.92571 v 0.54687 h 0.625 c 0.60938,0 1.17188,0.0625 1.17188,0.75 0,0.14063 -0.0312,0.25 -0.0312,0.35938 v 9.1875 c 0,1.1875 -0.98438,1.3125 -1.76563,1.3125 v 0.54687 h 3.98438 v -0.54687 c -0.85938,0 -1.76563,-0.15625 -1.76563,-1.40625 l 0.0156,-10.14063 c 0.0937,0.32813 0.25,0.64063 0.35937,0.95313 1.07813,2.76562 2.09375,5.51562 3.15625,8.29687 l 0.84375,2.17188 c 0.0625,0.23437 0.14063,0.60937 0.42188,0.67187 h 0.0156 c 0.28125,0 0.35938,-0.4375 0.4375,-0.64062 l 3.28125,-8.57813 c 0.25,-0.65625 0.48438,-1.3125 0.75,-1.95312 l 0.21875,-0.625 c 0.0625,-0.125 0.10938,-0.25 0.15625,-0.40625 l 0.0156,10.42187 c 0,0.14063 0.0156,0.3125 0.0156,0.45313 0,0.71875 -0.57812,0.79687 -1.15625,0.79687 -0.21875,0 -0.4375,-0.0156 -0.625,-0.0156 v 0.54687 h 4.90625 v -0.54687 h -0.59375 c -0.60937,0 -1.1875,-0.0625 -1.1875,-0.78125 0,-0.125 0.0156,-0.23438 0.0156,-0.34375 v -9.67188 c 0,-0.73437 0.5625,-0.84375 1.10937,-0.84375 0.23438,0 0.45313,0.0312 0.65625,0.0312 v -0.54687 h -2.98437 l -0.3125,0.0625 -0.375,0.79687 -3.82813,10.0625 h -0.0312 l -3.82812,-10.0625 -0.375,-0.79687 -0.3125,-0.0625 z m 16.61719,0.0312 v 0.54687 h 0.5625 c 0.64062,0 1.21875,0.0781 1.21875,0.75 0,0.10938 -0.0156,0.23438 -0.0156,0.34375 v 9.67188 c 0,0.75 -0.57812,0.8125 -1.20312,0.8125 h -0.5625 v 0.54687 h 10.375 l 0.73437,-4.76562 h -0.40625 c -0.20312,1.14062 -0.3125,2.5 -1.10937,3.32812 -0.82813,0.85938 -2.125,0.89063 -3.23438,0.89063 h -2.3125 c -0.45312,0 -0.78125,-0.0469 -0.78125,-0.6875 v -5.07813 h 1.75 c 0.625,0 1.3125,0.0469 1.67188,0.5625 0.26562,0.40625 0.28125,0.95313 0.28125,1.4375 v 0.1875 h 0.40625 v -4.89062 h -0.40625 v 0.1875 c 0,0.9375 -0.15625,1.78125 -1.34375,1.95312 -0.34375,0.0312 -0.6875,0.0312 -1.03125,0.0312 h -1.32813 v -4.65625 c 0,-0.57812 0.35938,-0.625 0.78125,-0.625 h 2.34375 c 1,0 2.25,0.0156 2.95313,0.8125 0.67187,0.75 0.70312,1.84375 0.85937,2.79688 h 0.40625 l -0.48437,-4.15625 z m 12.44922,-0.0312 v 0.54687 h 0.625 c 0.60937,0 1.17187,0.0625 1.17187,0.75 0,0.14063 -0.0312,0.25 -0.0312,0.35938 v 9.1875 c 0,1.1875 -0.98438,1.3125 -1.76563,1.3125 v 0.54687 h 3.98438 v -0.54687 c -0.85938,0 -1.76563,-0.15625 -1.76563,-1.40625 l 0.0156,-10.14063 c 0.0937,0.32813 0.25,0.64063 0.35937,0.95313 1.07813,2.76562 2.09376,5.51562 3.15626,8.29687 l 0.84374,2.17188 c 0.0625,0.23437 0.14063,0.60937 0.42188,0.67187 h 0.0156 c 0.28125,0 0.35937,-0.4375 0.4375,-0.64062 l 3.28125,-8.57813 c 0.25,-0.65625 0.48437,-1.3125 0.75,-1.95312 l 0.21875,-0.625 c 0.0625,-0.125 0.10937,-0.25 0.15625,-0.40625 l 0.0156,10.42187 c 0,0.14063 0.0156,0.3125 0.0156,0.45313 0,0.71875 -0.57812,0.79687 -1.15625,0.79687 -0.21875,0 -0.4375,-0.0156 -0.625,-0.0156 v 0.54687 h 4.90625 v -0.54687 h -0.59375 c -0.60937,0 -1.1875,-0.0625 -1.1875,-0.78125 0,-0.125 0.0156,-0.23438 0.0156,-0.34375 v -9.67188 c 0,-0.73437 0.5625,-0.84375 1.10937,-0.84375 0.23438,0 0.45313,0.0312 0.65625,0.0312 v -0.54687 h -2.98437 l -0.3125,0.0625 -0.375,0.79687 -3.82813,10.0625 h -0.0312 l -3.82813,-10.0625 -0.375,-0.79687 -0.3125,-0.0625 z m 0,0"
       style="fill:#000000;fill-opacity:1;fill-rule:nonzero;stroke:none;stroke-width:1.33333"
       aria-label="MEM" /><path
       id="path52"
       d="m -379.61537,348.92571 v 0.54687 h 0.28125 c 0.40625,0 0.85938,0.0156 1.07813,0.26563 0.20312,0.25 0.26562,0.59375 0.35937,0.90625 l 0.54688,1.71875 c 0.95312,3 1.95312,5.95312 2.89062,8.95312 l 0.10938,0.32813 c 0.0625,0.1875 0.125,0.375 0.32812,0.375 h 0.0625 c 0.375,-0.10938 0.89063,-2.3125 1.26563,-3.40625 0.6875,-2.04688 1.35937,-4.10938 1.96875,-6.17188 0.0625,-0.125 0.10937,-0.26562 0.125,-0.40625 h 0.0312 c 0.0469,0.40625 0.29687,0.92188 0.42187,1.375 0.90625,2.76563 1.84375,5.51563 2.67188,8.32813 0.0625,0.125 0.10937,0.23437 0.26562,0.28125 h 0.0625 c 0.20313,0 0.26563,-0.1875 0.32813,-0.375 l 0.10937,-0.32813 c 1.10938,-3.5 2.25,-6.9375 3.34375,-10.4375 0.26563,-0.70312 0.59375,-1.40625 1.8125,-1.40625 v -0.54687 h -3.59375 v 0.54687 c 0.59375,0 1.46875,0.26563 1.46875,0.98438 0,0.26562 -0.1875,0.6875 -0.29687,0.98437 -0.92188,2.70313 -1.84375,5.42188 -2.625,8.17188 h -0.0156 c -0.17187,-0.76563 -0.48437,-1.51563 -0.71875,-2.26563 -0.6875,-2.21875 -1.42187,-4.42187 -2.125,-6.625 -0.0781,-0.20312 -0.20312,-0.51562 -0.20312,-0.70312 0,-0.53125 0.92187,-0.54688 1.4375,-0.54688 v -0.54687 h -4.53125 v 0.54687 h 0.35937 c 0.28125,0 0.59375,0.0156 0.8125,0.125 0.40625,0.21875 0.53125,0.96875 0.64063,1.3125 0.0469,0.14063 0.125,0.29688 0.125,0.45313 v 0.0312 c -0.0312,0.23437 -0.14063,0.45312 -0.20313,0.65625 -0.71875,2.25 -1.4375,4.51562 -2.17187,6.76562 -0.0937,0.26563 -0.20313,0.51563 -0.25,0.78125 -0.125,-0.1875 -0.15625,-0.46875 -0.23438,-0.6875 -0.90625,-2.71875 -1.76562,-5.48437 -2.65625,-8.21875 l -0.10937,-0.39062 c -0.0469,-0.0937 -0.0781,-0.1875 -0.0781,-0.28125 0,-0.54688 0.92188,-0.54688 1.42188,-0.54688 v -0.54687 z m 19.1875,0 v 0.54687 h 0.60938 c 0.625,0 1.17187,0.0625 1.17187,0.75 0,0.14063 -0.0156,0.25 -0.0156,0.35938 v 9.6875 c 0,0.75 -0.57813,0.8125 -1.1875,0.8125 h -0.57813 v 0.54687 h 5.625 c 0.34375,0 0.71875,0.0156 1.09375,0.0156 1.60938,0 3.71875,-0.625 4.23438,-2.64063 0.0781,-0.21875 0.10937,-0.48437 0.10937,-0.71875 0,-1.89062 -1.89063,-3.28125 -3.5625,-3.28125 0.28125,-0.10937 0.57812,-0.14062 0.84375,-0.25 1.17187,-0.42187 2.21875,-1.42187 2.21875,-2.70312 0,-1.32813 -1.10938,-2.375 -2.28125,-2.82813 -0.70313,-0.26562 -1.46875,-0.3125 -2.21875,-0.3125 -0.34375,0 -0.70313,0.0156 -1.0625,0.0156 z m 3.1875,6.28125 h 2.53125 c 0.25,0 0.53125,-0.0156 0.79688,-0.0156 1.79687,0 2.85937,1.45313 2.85937,2.96875 0,1.8125 -1.42187,2.9375 -3.25,2.9375 -0.28125,0 -0.54687,-0.0156 -0.79687,-0.0156 h -1.4375 c -0.5,0 -0.70313,-0.1875 -0.70313,-0.6875 z m 0,-0.375 v -4.70313 c 0,-0.48437 0.20313,-0.65625 0.6875,-0.65625 h 2.29688 c 1.14062,0 2.01562,0.39063 2.53125,1.51563 0.125,0.34375 0.21875,0.70312 0.21875,1.07812 0,1.76563 -1.5625,2.76563 -3.20313,2.76563 z m 0,0"
       style="fill:#000000;fill-opacity:1;fill-rule:nonzero;stroke:none;stroke-width:1.33333"
       aria-label="WB" /><path
       id="path53"
       d="m -565.88099,384.29289 v 0.54687 h 0.625 c 0.65625,0 1.23437,0.0625 1.23437,0.78125 v 10.03125 c 0,0.70313 -0.57812,0.8125 -1.17187,0.8125 -0.25,0 -0.48438,-0.0156 -0.6875,-0.0156 v 0.54687 h 5.21875 v -0.54687 c -0.21875,0 -0.4375,0.0156 -0.67188,0.0156 -0.625,0 -1.1875,-0.0781 -1.1875,-0.8125 v -10.03125 c 0,-0.71875 0.64063,-0.78125 1.26563,-0.78125 h 0.59375 v -0.54687 z m 6.66015,0.0312 v 0.54687 h 0.57813 c 0.625,0 1.20312,0.0781 1.20312,0.75 0,0.10938 -0.0156,0.23438 -0.0156,0.34375 v 9.67188 c 0,0.75 -0.57813,0.8125 -1.1875,0.8125 h -0.57813 v 0.54687 h 5.48438 v -0.54687 c -0.25,0 -0.51563,0.0156 -0.82813,0.0156 -0.89062,0 -1.39062,-0.0781 -1.39062,-0.89062 v -4.64063 h 1.5625 c 0.98437,0 2.03125,0.0781 2.03125,1.84375 v 0.32813 h 0.40625 v -4.89063 h -0.40625 v 0.34375 c 0,1.39063 -0.5,1.82813 -2.3125,1.82813 h -1.28125 v -4.84375 c 0,-0.53125 0.23437,-0.67188 0.73437,-0.67188 h 2.15625 c 1.03125,0 2.29688,0.0156 3,0.90625 0.57813,0.75 0.65625,1.78125 0.76563,2.70313 h 0.40625 l -0.48438,-4.15625 z m 0,0"
       style="fill:#000000;fill-opacity:1;fill-rule:nonzero;stroke:none;stroke-width:1.33333"
       aria-label="IF" /><path
       id="path54"
       d="m -504.12318,384.29289 v 0.54687 h 0.625 c 0.65625,0 1.23438,0.0625 1.23438,0.78125 v 10.03125 c 0,0.70313 -0.57813,0.8125 -1.17188,0.8125 -0.25,0 -0.48437,-0.0156 -0.6875,-0.0156 v 0.54687 h 5.21875 v -0.54687 c -0.21875,0 -0.4375,0.0156 -0.67187,0.0156 -0.625,0 -1.1875,-0.0781 -1.1875,-0.8125 v -10.03125 c 0,-0.71875 0.64062,-0.78125 1.26562,-0.78125 h 0.59375 v -0.54687 z m 6.67969,0 v 0.54687 h 0.59375 c 0.60938,0 1.1875,0.0625 1.1875,0.78125 0,0.125 -0.0156,0.23438 -0.0156,0.34375 v 9.67188 c 0,0.71875 -0.5625,0.82812 -1.10938,0.82812 -0.23437,0 -0.45312,-0.0156 -0.65625,-0.0156 v 0.54687 h 5.0625 c 0.35938,0 0.73438,0.0156 1.125,0.0156 1.375,0 2.625,-0.35938 3.79688,-1.35938 1.40625,-1.25 2.125,-3.07812 2.125,-4.9375 0,-3.20312 -2.09375,-6.4375 -6,-6.4375 -0.375,0 -0.76563,0.0156 -1.14063,0.0156 z m 10.39063,7.15625 c -0.14063,2.15625 -0.79688,4.10937 -3.15625,4.85937 -0.5625,0.14063 -1.125,0.14063 -1.6875,0.14063 h -1.59375 c -0.35938,0 -0.73438,-0.0312 -0.73438,-0.625 0,-0.15625 0.0156,-0.28125 0.0156,-0.40625 v -9.23438 c 0,-0.15625 -0.0156,-0.34375 -0.0156,-0.53125 0,-0.48437 0,-0.8125 0.875,-0.8125 h 1.59375 c 1.29688,0 2.60938,0.26563 3.64063,1.625 0.95312,1.26563 1.07812,2.89063 1.07812,4.39063 0,0.20312 0,0.39062 -0.0156,0.59375 z m 0,0"
       style="fill:#000000;fill-opacity:1;fill-rule:nonzero;stroke:none;stroke-width:1.33333"
       aria-label="ID" /><path
       id="path55"
       d="m -440.9474,384.32414 v 0.54687 h 0.5625 c 0.64062,0 1.21875,0.0781 1.21875,0.75 0,0.10938 -0.0156,0.23438 -0.0156,0.34375 v 9.67188 c 0,0.75 -0.57812,0.8125 -1.20312,0.8125 h -0.5625 v 0.54687 h 10.375 l 0.73437,-4.76562 h -0.40625 c -0.20312,1.14062 -0.3125,2.5 -1.10937,3.32812 -0.82813,0.85938 -2.125,0.89063 -3.23438,0.89063 h -2.3125 c -0.45312,0 -0.78125,-0.0469 -0.78125,-0.6875 v -5.07813 h 1.75 c 0.625,0 1.3125,0.0469 1.67188,0.5625 0.26562,0.40625 0.28125,0.95313 0.28125,1.4375 v 0.1875 h 0.40625 v -4.89062 h -0.40625 v 0.1875 c 0,0.9375 -0.15625,1.78125 -1.34375,1.95312 -0.34375,0.0312 -0.6875,0.0312 -1.03125,0.0312 h -1.32813 v -4.65625 c 0,-0.57812 0.35938,-0.625 0.78125,-0.625 h 2.34375 c 1,0 2.25,0.0156 2.95313,0.8125 0.67187,0.75 0.70312,1.84375 0.85937,2.79688 h 0.40625 l -0.48437,-4.15625 z m 12.30859,-0.0312 v 0.54687 h 0.4375 c 0.57813,0 1.125,0.0469 1.53125,0.64063 1.07813,1.53125 2.09375,3.10937 3.125,4.67187 l 0.21875,0.32813 c 0.0313,0.0625 0.0937,0.10937 0.0937,0.1875 0,0.17187 -0.20313,0.35937 -0.29688,0.5 -0.75,1.14062 -1.5,2.25 -2.28125,3.35937 -0.34375,0.51563 -0.67187,1.07813 -1.20312,1.42188 -0.53125,0.375 -1.21875,0.5 -1.875,0.5 v 0.54687 h 4.07812 v -0.54687 c -0.45312,-0.0156 -1,-0.3125 -1,-0.79688 v -0.0937 c 0.0781,-0.40625 0.51563,-0.875 0.79688,-1.28125 0.60937,-0.89062 1.23437,-1.79687 1.84375,-2.71875 0.0781,-0.14062 0.20312,-0.28125 0.26562,-0.42187 0.32813,0.40625 0.59375,0.85937 0.875,1.28125 l 2.0625,3.0625 c 0.0781,0.125 0.20313,0.26562 0.23438,0.42187 0,0.39063 -0.67188,0.54688 -1.0625,0.54688 v 0.54687 h 4.71875 v -0.54687 h -0.28125 c -0.6875,0 -1.28125,-0.0312 -1.76563,-0.78125 -1.17187,-1.76563 -2.34375,-3.51563 -3.53125,-5.25 -0.0937,-0.15625 -0.32812,-0.42188 -0.32812,-0.5625 0,-0.20313 0.70312,-1.07813 1.03125,-1.5625 0.375,-0.5625 0.76562,-1.09375 1.14062,-1.65625 0.3125,-0.48438 0.60938,-0.96875 1.09375,-1.29688 0.54688,-0.375 1.23438,-0.5 1.875,-0.5 v -0.54687 h -4.0625 v 0.54687 c 0.4375,0.0156 1,0.3125 1,0.79688 0,0.45312 -0.59375,1.07812 -0.90625,1.5625 -0.32812,0.45312 -0.64062,0.90625 -0.95312,1.375 -0.1875,0.28125 -0.35938,0.57812 -0.57813,0.82812 -0.125,-0.3125 -0.4375,-0.70312 -0.67187,-1.01562 -0.42188,-0.64063 -0.82813,-1.25 -1.26563,-1.875 l -0.5,-0.76563 c -0.0781,-0.0937 -0.1875,-0.21875 -0.1875,-0.35937 v -0.0156 c 0,-0.35937 0.67188,-0.53125 1.0625,-0.53125 v -0.54687 z m 0,0"
       style="fill:#000000;fill-opacity:1;fill-rule:nonzero;stroke:none;stroke-width:1.33333"
       aria-label="EX" /><path
       id="path56"
       d="m -386.32631,384.29289 v 0.54687 h 0.625 c 0.60938,0 1.17188,0.0625 1.17188,0.75 0,0.14063 -0.0312,0.25 -0.0312,0.35938 v 9.1875 c 0,1.1875 -0.98438,1.3125 -1.76563,1.3125 v 0.54687 h 3.98438 v -0.54687 c -0.85938,0 -1.76563,-0.15625 -1.76563,-1.40625 l 0.0156,-10.14063 c 0.0937,0.32813 0.25,0.64063 0.35937,0.95313 1.07813,2.76562 2.09375,5.51562 3.15625,8.29687 l 0.84375,2.17188 c 0.0625,0.23437 0.14063,0.60937 0.42188,0.67187 h 0.0156 c 0.28125,0 0.35938,-0.4375 0.4375,-0.64062 l 3.28125,-8.57813 c 0.25,-0.65625 0.48437,-1.3125 0.75,-1.95312 l 0.21875,-0.625 c 0.0625,-0.125 0.10937,-0.25 0.15625,-0.40625 l 0.0156,10.42187 c 0,0.14063 0.0156,0.3125 0.0156,0.45313 0,0.71875 -0.57812,0.79687 -1.15625,0.79687 -0.21875,0 -0.4375,-0.0156 -0.625,-0.0156 v 0.54687 h 4.90625 v -0.54687 h -0.59375 c -0.60937,0 -1.1875,-0.0625 -1.1875,-0.78125 0,-0.125 0.0156,-0.23438 0.0156,-0.34375 v -9.67188 c 0,-0.73437 0.5625,-0.84375 1.10937,-0.84375 0.23438,0 0.45313,0.0312 0.65625,0.0312 v -0.54687 h -2.98438 l -0.3125,0.0625 -0.375,0.79687 -3.82812,10.0625 h -0.0312 l -3.82812,-10.0625 -0.375,-0.79687 -0.3125,-0.0625 z m 16.62109,0.0312 v 0.54687 h 0.5625 c 0.64063,0 1.21875,0.0781 1.21875,0.75 0,0.10938 -0.0156,0.23438 -0.0156,0.34375 v 9.67188 c 0,0.75 -0.57813,0.8125 -1.20313,0.8125 h -0.5625 v 0.54687 h 10.375 l 0.73438,-4.76562 h -0.40625 c -0.20313,1.14062 -0.3125,2.5 -1.10938,3.32812 -0.82812,0.85938 -2.125,0.89063 -3.23437,0.89063 h -2.3125 c -0.45313,0 -0.78125,-0.0469 -0.78125,-0.6875 v -5.07813 h 1.75 c 0.625,0 1.3125,0.0469 1.67187,0.5625 0.26563,0.40625 0.28125,0.95313 0.28125,1.4375 v 0.1875 h 0.40625 v -4.89062 h -0.40625 v 0.1875 c 0,0.9375 -0.15625,1.78125 -1.34375,1.95312 -0.34375,0.0312 -0.6875,0.0312 -1.03125,0.0312 h -1.32812 v -4.65625 c 0,-0.57812 0.35937,-0.625 0.78125,-0.625 h 2.34375 c 1,0 2.25,0.0156 2.95312,0.8125 0.67188,0.75 0.70313,1.84375 0.85938,2.79688 h 0.40625 l -0.48438,-4.15625 z m 12.44532,-0.0312 v 0.54687 h 0.625 c 0.60937,0 1.17187,0.0625 1.17187,0.75 0,0.14063 -0.0312,0.25 -0.0312,0.35938 v 9.1875 c 0,1.1875 -0.98438,1.3125 -1.76563,1.3125 v 0.54687 h 3.98438 v -0.54687 c -0.85938,0 -1.76563,-0.15625 -1.76563,-1.40625 l 0.0156,-10.14063 c 0.0937,0.32813 0.25,0.64063 0.35937,0.95313 1.07813,2.76562 2.09375,5.51562 3.15625,8.29687 l 0.84375,2.17188 c 0.0625,0.23437 0.14063,0.60937 0.42188,0.67187 h 0.0156 c 0.28125,0 0.35937,-0.4375 0.4375,-0.64062 l 3.28125,-8.57813 c 0.25,-0.65625 0.48437,-1.3125 0.75,-1.95312 l 0.21875,-0.625 c 0.0625,-0.125 0.10937,-0.25 0.15625,-0.40625 l 0.0156,10.42187 c 0,0.14063 0.0156,0.3125 0.0156,0.45313 0,0.71875 -0.57813,0.79687 -1.15625,0.79687 -0.21875,0 -0.4375,-0.0156 -0.625,-0.0156 v 0.54687 h 4.90625 v -0.54687 h -0.59375 c -0.60938,0 -1.1875,-0.0625 -1.1875,-0.78125 0,-0.125 0.0156,-0.23438 0.0156,-0.34375 v -9.67188 c 0,-0.73437 0.5625,-0.84375 1.10937,-0.84375 0.23438,0 0.45313,0.0312 0.65625,0.0312 v -0.54687 h -2.98428 l -0.3125,0.0625 -0.375,0.79687 -3.82813,10.0625 h -0.0312 l -3.82813,-10.0625 -0.375,-0.79687 -0.3125,-0.0625 z m 0,0"
       style="fill:#000000;fill-opacity:1;fill-rule:nonzero;stroke:none;stroke-width:1.33333"
       aria-label="MEM" /><path
       id="path57"
       d="m -315.18959,384.29289 v 0.54687 h 0.28125 c 0.40625,0 0.85938,0.0156 1.07813,0.26563 0.20312,0.25 0.26562,0.59375 0.35937,0.90625 l 0.54688,1.71875 c 0.95312,3 1.95312,5.95312 2.89062,8.95312 l 0.10938,0.32813 c 0.0625,0.1875 0.125,0.375 0.32812,0.375 h 0.0625 c 0.375,-0.10938 0.89063,-2.3125 1.26563,-3.40625 0.6875,-2.04688 1.35937,-4.10938 1.96875,-6.17188 0.0625,-0.125 0.10937,-0.26562 0.125,-0.40625 h 0.0312 c 0.0469,0.40625 0.29687,0.92188 0.42187,1.375 0.90625,2.76563 1.84375,5.51563 2.67188,8.32813 0.0625,0.125 0.10937,0.23437 0.26562,0.28125 h 0.0625 c 0.20313,0 0.26563,-0.1875 0.32813,-0.375 l 0.10937,-0.32813 c 1.10938,-3.5 2.25,-6.9375 3.34375,-10.4375 0.26563,-0.70312 0.59375,-1.40625 1.8125,-1.40625 v -0.54687 h -3.59375 v 0.54687 c 0.59375,0 1.46875,0.26563 1.46875,0.98438 0,0.26562 -0.1875,0.6875 -0.29687,0.98437 -0.92188,2.70313 -1.84375,5.42188 -2.625,8.17188 h -0.0156 c -0.17187,-0.76563 -0.48437,-1.51563 -0.71875,-2.26563 -0.6875,-2.21875 -1.42187,-4.42187 -2.125,-6.625 -0.0781,-0.20312 -0.20312,-0.51562 -0.20312,-0.70312 0,-0.53125 0.92187,-0.54688 1.4375,-0.54688 v -0.54687 h -4.53125 v 0.54687 h 0.35937 c 0.28125,0 0.59375,0.0156 0.8125,0.125 0.40625,0.21875 0.53125,0.96875 0.64063,1.3125 0.0469,0.14063 0.125,0.29688 0.125,0.45313 v 0.0312 c -0.0312,0.23437 -0.14063,0.45312 -0.20313,0.65625 -0.71875,2.25 -1.4375,4.51562 -2.17187,6.76562 -0.0937,0.26563 -0.20313,0.51563 -0.25,0.78125 -0.125,-0.1875 -0.15625,-0.46875 -0.23438,-0.6875 -0.90625,-2.71875 -1.76562,-5.48437 -2.65625,-8.21875 l -0.10937,-0.39062 c -0.0469,-0.0937 -0.0781,-0.1875 -0.0781,-0.28125 0,-0.54688 0.92188,-0.54688 1.42188,-0.54688 v -0.54687 z m 19.1875,0 v 0.54687 h 0.60938 c 0.625,0 1.17187,0.0625 1.17187,0.75 0,0.14063 -0.0156,0.25 -0.0156,0.35938 v 9.6875 c 0,0.75 -0.57812,0.8125 -1.1875,0.8125 h -0.57812 v 0.54687 h 5.625 c 0.34375,0 0.71875,0.0156 1.09375,0.0156 1.60938,0 3.71875,-0.625 4.23438,-2.64063 0.0781,-0.21875 0.10937,-0.48437 0.10937,-0.71875 0,-1.89062 -1.89063,-3.28125 -3.5625,-3.28125 0.28125,-0.10937 0.57812,-0.14062 0.84375,-0.25 1.17187,-0.42187 2.21875,-1.42187 2.21875,-2.70312 0,-1.32813 -1.10938,-2.375 -2.28125,-2.82813 -0.70313,-0.26562 -1.46875,-0.3125 -2.21875,-0.3125 -0.34375,0 -0.70313,0.0156 -1.0625,0.0156 z m 3.1875,6.28125 h 2.53125 c 0.25,0 0.53125,-0.0156 0.79688,-0.0156 1.79687,0 2.85937,1.45313 2.85937,2.96875 0,1.8125 -1.42187,2.9375 -3.25,2.9375 -0.28125,0 -0.54687,-0.0156 -0.79687,-0.0156 h -1.4375 c -0.5,0 -0.70313,-0.1875 -0.70313,-0.6875 z m 0,-0.375 v -4.70313 c 0,-0.48437 0.20313,-0.65625 0.6875,-0.65625 h 2.29688 c 1.14062,0 2.01562,0.39063 2.53125,1.51563 0.125,0.34375 0.21875,0.70312 0.21875,1.07812 0,1.76563 -1.5625,2.76563 -3.20313,2.76563 z m 0,0"
       style="fill:#000000;fill-opacity:1;fill-rule:nonzero;stroke:none;stroke-width:1.33333"
       aria-label="WB" /><path
       id="path58"
       d="m -503.45131,420.95305 v 0.54688 h 0.625 c 0.65625,0 1.23438,0.0625 1.23438,0.78125 v 10.03125 c 0,0.70312 -0.57813,0.8125 -1.17188,0.8125 -0.25,0 -0.48437,-0.0156 -0.6875,-0.0156 v 0.54688 h 5.21875 v -0.54688 c -0.21875,0 -0.4375,0.0156 -0.67187,0.0156 -0.625,0 -1.1875,-0.0781 -1.1875,-0.8125 v -10.03125 c 0,-0.71875 0.64062,-0.78125 1.26562,-0.78125 h 0.59375 v -0.54688 z m 6.66407,0.0312 v 0.54688 h 0.57812 c 0.625,0 1.20313,0.0781 1.20313,0.75 0,0.10937 -0.0156,0.23437 -0.0156,0.34375 v 9.67187 c 0,0.75 -0.57812,0.8125 -1.1875,0.8125 h -0.57812 v 0.54688 h 5.48437 v -0.54688 c -0.25,0 -0.51562,0.0156 -0.82812,0.0156 -0.89063,0 -1.39063,-0.0781 -1.39063,-0.89063 v -4.64062 h 1.5625 c 0.98438,0 2.03125,0.0781 2.03125,1.84375 v 0.32812 h 0.40625 v -4.89062 h -0.40625 v 0.34375 c 0,1.39062 -0.5,1.82812 -2.3125,1.82812 h -1.28125 v -4.84375 c 0,-0.53125 0.23438,-0.67187 0.73438,-0.67187 h 2.15625 c 1.03125,0 2.29687,0.0156 3,0.90625 0.57812,0.75 0.65625,1.78125 0.76562,2.70312 h 0.40625 l -0.48437,-4.15625 z m 0,0"
       style="fill:#000000;fill-opacity:1;fill-rule:nonzero;stroke:none;stroke-width:1.33333"
       aria-label="IF" /><path
       id="path59"
       d="m -437.68958,420.95305 v 0.54688 h 0.625 c 0.65625,0 1.23437,0.0625 1.23437,0.78125 v 10.03125 c 0,0.70312 -0.57812,0.8125 -1.17187,0.8125 -0.25,0 -0.48438,-0.0156 -0.6875,-0.0156 v 0.54688 h 5.21875 v -0.54688 c -0.21875,0 -0.4375,0.0156 -0.67188,0.0156 -0.625,0 -1.1875,-0.0781 -1.1875,-0.8125 v -10.03125 c 0,-0.71875 0.64063,-0.78125 1.26563,-0.78125 h 0.59375 v -0.54688 z m 6.67578,0 v 0.54688 h 0.59375 c 0.60937,0 1.1875,0.0625 1.1875,0.78125 0,0.125 -0.0156,0.23437 -0.0156,0.34375 v 9.67187 c 0,0.71875 -0.5625,0.82813 -1.10937,0.82813 -0.23438,0 -0.45313,-0.0156 -0.65625,-0.0156 v 0.54688 h 5.0625 c 0.35937,0 0.73437,0.0156 1.125,0.0156 1.375,0 2.625,-0.35937 3.79687,-1.35937 1.40625,-1.25 2.125,-3.07813 2.125,-4.9375 0,-3.20313 -2.09375,-6.4375 -6,-6.4375 -0.375,0 -0.76562,0.0156 -1.14062,0.0156 z m 10.39062,7.15625 c -0.14062,2.15625 -0.79687,4.10938 -3.15625,4.85938 -0.5625,0.14062 -1.125,0.14062 -1.6875,0.14062 h -1.59375 c -0.35937,0 -0.73437,-0.0312 -0.73437,-0.625 0,-0.15625 0.0156,-0.28125 0.0156,-0.40625 v -9.23437 c 0,-0.15625 -0.0156,-0.34375 -0.0156,-0.53125 0,-0.48438 0,-0.8125 0.875,-0.8125 h 1.59375 c 1.29687,0 2.60937,0.26562 3.64062,1.625 0.95313,1.26562 1.07813,2.89062 1.07813,4.39062 0,0.20313 0,0.39063 -0.0156,0.59375 z m 0,0"
       style="fill:#000000;fill-opacity:1;fill-rule:nonzero;stroke:none;stroke-width:1.33333"
       aria-label="ID" /><path
       id="path60"
       d="m -374.51771,420.9843 v 0.54688 h 0.5625 c 0.64062,0 1.21875,0.0781 1.21875,0.75 0,0.10937 -0.0156,0.23437 -0.0156,0.34375 v 9.67187 c 0,0.75 -0.57812,0.8125 -1.20312,0.8125 h -0.5625 v 0.54688 h 10.375 l 0.73437,-4.76563 h -0.40625 c -0.20312,1.14063 -0.3125,2.5 -1.10937,3.32813 -0.82813,0.85937 -2.125,0.89062 -3.23438,0.89062 h -2.3125 c -0.45312,0 -0.78125,-0.0469 -0.78125,-0.6875 v -5.07812 h 1.75 c 0.625,0 1.3125,0.0469 1.67188,0.5625 0.26562,0.40625 0.28125,0.95312 0.28125,1.4375 v 0.1875 h 0.40625 v -4.89063 h -0.40625 v 0.1875 c 0,0.9375 -0.15625,1.78125 -1.34375,1.95313 -0.34375,0.0312 -0.6875,0.0312 -1.03125,0.0312 h -1.32813 v -4.65625 c 0,-0.57813 0.35938,-0.625 0.78125,-0.625 h 2.34375 c 1,0 2.25,0.0156 2.95313,0.8125 0.67187,0.75 0.70312,1.84375 0.85937,2.79687 h 0.40625 l -0.48437,-4.15625 z m 12.29296,-0.0312 v 0.54688 h 0.43751 c 0.57812,0 1.125,0.0469 1.53124,0.64062 1.07813,1.53125 2.09376,3.10938 3.125,4.67188 l 0.21876,0.32812 c 0.0312,0.0625 0.0937,0.10938 0.0937,0.1875 0,0.17188 -0.20312,0.35938 -0.29687,0.5 -0.75,1.14063 -1.5,2.25 -2.28125,3.35938 -0.34375,0.51562 -0.67188,1.07812 -1.20313,1.42187 -0.53125,0.375 -1.21875,0.5 -1.875,0.5 v 0.54688 h 4.07813 v -0.54688 c -0.45313,-0.0156 -1,-0.3125 -1,-0.79687 v -0.0937 c 0.0781,-0.40625 0.51562,-0.875 0.79687,-1.28125 0.60938,-0.89063 1.23438,-1.79688 1.84375,-2.71875 0.0781,-0.14063 0.20313,-0.28125 0.26563,-0.42188 0.32812,0.40625 0.59375,0.85938 0.875,1.28125 l 2.0625,3.0625 c 0.0781,0.125 0.20312,0.26563 0.23437,0.42188 0,0.39062 -0.67187,0.54687 -1.0625,0.54687 v 0.54688 h 4.71875 v -0.54688 h -0.28125 c -0.6875,0 -1.28125,-0.0312 -1.76562,-0.78125 -1.17188,-1.76562 -2.34375,-3.51562 -3.53125,-5.25 -0.0937,-0.15625 -0.32813,-0.42187 -0.32813,-0.5625 0,-0.20312 0.70313,-1.07812 1.03125,-1.5625 0.375,-0.5625 0.76563,-1.09375 1.14063,-1.65625 0.3125,-0.48437 0.60937,-0.96875 1.09375,-1.29687 0.54687,-0.375 1.23437,-0.5 1.875,-0.5 v -0.54688 h -4.0625 v 0.54688 c 0.4375,0.0156 1,0.3125 1,0.79687 0,0.45313 -0.59375,1.07813 -0.90625,1.5625 -0.32813,0.45313 -0.64063,0.90625 -0.95313,1.375 -0.1875,0.28125 -0.35937,0.57813 -0.57812,0.82813 -0.125,-0.3125 -0.4375,-0.70313 -0.67188,-1.01563 -0.42187,-0.64062 -0.82812,-1.25 -1.26562,-1.875 l -0.5,-0.76562 c -0.0781,-0.0937 -0.1875,-0.21875 -0.1875,-0.35938 v -0.0156 c 0,-0.35938 0.67187,-0.53125 1.0625,-0.53125 v -0.54688 z m 0,0"
       style="fill:#000000;fill-opacity:1;fill-rule:nonzero;stroke:none;stroke-width:1.33333"
       aria-label="EX" /><path
       id="path61"
       d="m -320.65834,420.95305 v 0.54688 h 0.625 c 0.60938,0 1.17188,0.0625 1.17188,0.75 0,0.14062 -0.0312,0.25 -0.0312,0.35937 v 9.1875 c 0,1.1875 -0.98438,1.3125 -1.76563,1.3125 v 0.54688 h 3.98438 v -0.54688 c -0.85938,0 -1.76563,-0.15625 -1.76563,-1.40625 l 0.0156,-10.14062 c 0.0937,0.32812 0.25,0.64062 0.35937,0.95312 1.07813,2.76563 2.09375,5.51563 3.15625,8.29688 l 0.84375,2.17187 c 0.0625,0.23438 0.14063,0.60938 0.42188,0.67188 h 0.0156 c 0.28125,0 0.35938,-0.4375 0.4375,-0.64063 l 3.28125,-8.57812 c 0.25,-0.65625 0.48438,-1.3125 0.75,-1.95313 l 0.21875,-0.625 c 0.0625,-0.125 0.10938,-0.25 0.15625,-0.40625 l 0.0156,10.42188 c 0,0.14062 0.0156,0.3125 0.0156,0.45312 0,0.71875 -0.57812,0.79688 -1.15625,0.79688 -0.21875,0 -0.4375,-0.0156 -0.625,-0.0156 v 0.54688 h 4.90625 v -0.54688 h -0.59375 c -0.60937,0 -1.1875,-0.0625 -1.1875,-0.78125 0,-0.125 0.0156,-0.23437 0.0156,-0.34375 v -9.67187 c 0,-0.73438 0.5625,-0.84375 1.10937,-0.84375 0.23438,0 0.45313,0.0312 0.65625,0.0312 v -0.54688 h -2.98437 l -0.3125,0.0625 -0.375,0.79688 -3.82813,10.0625 h -0.0312 l -3.82812,-10.0625 -0.375,-0.79688 -0.3125,-0.0625 z m 16.6211,0.0312 v 0.54688 h 0.5625 c 0.64062,0 1.21875,0.0781 1.21875,0.75 0,0.10937 -0.0156,0.23437 -0.0156,0.34375 v 9.67187 c 0,0.75 -0.57813,0.8125 -1.20313,0.8125 h -0.5625 v 0.54688 h 10.375 l 0.73438,-4.76563 h -0.40625 c -0.20313,1.14063 -0.3125,2.5 -1.10937,3.32813 -0.82813,0.85937 -2.125,0.89062 -3.23438,0.89062 h -2.3125 c -0.45312,0 -0.78125,-0.0469 -0.78125,-0.6875 v -5.07812 h 1.75 c 0.625,0 1.3125,0.0469 1.67187,0.5625 0.26563,0.40625 0.28126,0.95312 0.28126,1.4375 v 0.1875 h 0.40624 v -4.89063 h -0.40624 v 0.1875 c 0,0.9375 -0.15626,1.78125 -1.34376,1.95313 -0.34374,0.0312 -0.6875,0.0312 -1.03124,0.0312 h -1.32813 v -4.65625 c 0,-0.57813 0.35937,-0.625 0.78125,-0.625 h 2.34375 c 1,0 2.25,0.0156 2.95313,0.8125 0.67187,0.75 0.70312,1.84375 0.85937,2.79687 h 0.40625 l -0.48438,-4.15625 z m 12.44531,-0.0312 v 0.54688 h 0.625 c 0.60937,0 1.17187,0.0625 1.17187,0.75 0,0.14062 -0.0312,0.25 -0.0312,0.35937 v 9.1875 c 0,1.1875 -0.98437,1.3125 -1.76563,1.3125 v 0.54688 h 3.98438 v -0.54688 c -0.85938,0 -1.76562,-0.15625 -1.76562,-1.40625 l 0.0156,-10.14062 c 0.0937,0.32812 0.25,0.64062 0.35938,0.95312 1.07812,2.76563 2.09375,5.51563 3.15625,8.29688 l 0.84375,2.17187 c 0.0625,0.23438 0.14062,0.60938 0.42187,0.67188 h 0.0156 c 0.28125,0 0.35937,-0.4375 0.4375,-0.64063 l 3.28125,-8.57812 c 0.25,-0.65625 0.48437,-1.3125 0.75,-1.95313 l 0.21875,-0.625 c 0.0625,-0.125 0.10937,-0.25 0.15625,-0.40625 l 0.0156,10.42188 c 0,0.14062 0.0156,0.3125 0.0156,0.45312 0,0.71875 -0.57812,0.79688 -1.15625,0.79688 -0.21875,0 -0.4375,-0.0156 -0.625,-0.0156 v 0.54688 h 4.90625 v -0.54688 h -0.59375 c -0.60937,0 -1.1875,-0.0625 -1.1875,-0.78125 0,-0.125 0.0156,-0.23437 0.0156,-0.34375 v -9.67187 c 0,-0.73438 0.5625,-0.84375 1.10937,-0.84375 0.23438,0 0.45313,0.0312 0.65625,0.0312 v -0.54688 h -2.98437 l -0.3125,0.0625 -0.375,0.79688 -3.82813,10.0625 h -0.0312 l -3.82813,-10.0625 -0.375,-0.79688 -0.3125,-0.0625 z m 0,0"
       style="fill:#000000;fill-opacity:1;fill-rule:nonzero;stroke:none;stroke-width:1.33333"
       aria-label="MEM" /><path
       id="path62"
       d="m -251.42006,420.95305 v 0.54688 h 0.28125 c 0.40625,0 0.85938,0.0156 1.07813,0.26562 0.20312,0.25 0.26562,0.59375 0.35937,0.90625 l 0.54688,1.71875 c 0.95312,3 1.95312,5.95313 2.89062,8.95313 l 0.10938,0.32812 c 0.0625,0.1875 0.125,0.375 0.32812,0.375 h 0.0625 c 0.375,-0.10937 0.89063,-2.3125 1.26563,-3.40625 0.6875,-2.04687 1.35937,-4.10937 1.96875,-6.17187 0.0625,-0.125 0.10937,-0.26563 0.125,-0.40625 h 0.0312 c 0.0469,0.40625 0.29687,0.92187 0.42187,1.375 0.90625,2.76562 1.84375,5.51562 2.67188,8.32812 0.0625,0.125 0.10937,0.23438 0.26562,0.28125 h 0.0625 c 0.20313,0 0.26563,-0.1875 0.32813,-0.375 l 0.10937,-0.32812 c 1.10938,-3.5 2.25,-6.9375 3.34375,-10.4375 0.26563,-0.70313 0.59375,-1.40625 1.8125,-1.40625 v -0.54688 h -3.59375 v 0.54688 c 0.59375,0 1.46875,0.26562 1.46875,0.98437 0,0.26563 -0.1875,0.6875 -0.29687,0.98438 -0.92188,2.70312 -1.84375,5.42187 -2.625,8.17187 h -0.0156 c -0.17187,-0.76562 -0.48437,-1.51562 -0.71875,-2.26562 -0.6875,-2.21875 -1.42187,-4.42188 -2.125,-6.625 -0.0781,-0.20313 -0.20312,-0.51563 -0.20312,-0.70313 0,-0.53125 0.92187,-0.54687 1.4375,-0.54687 v -0.54688 h -4.53125 v 0.54688 h 0.35937 c 0.28125,0 0.59375,0.0156 0.8125,0.125 0.40625,0.21875 0.53125,0.96875 0.64063,1.3125 0.0469,0.14062 0.125,0.29687 0.125,0.45312 v 0.0312 c -0.0312,0.23438 -0.14063,0.45313 -0.20313,0.65625 -0.71875,2.25 -1.4375,4.51563 -2.17187,6.76563 -0.0937,0.26562 -0.20313,0.51562 -0.25,0.78125 -0.125,-0.1875 -0.15625,-0.46875 -0.23438,-0.6875 -0.90625,-2.71875 -1.76562,-5.48438 -2.65625,-8.21875 l -0.10937,-0.39063 c -0.0469,-0.0937 -0.0781,-0.1875 -0.0781,-0.28125 0,-0.54687 0.92188,-0.54687 1.42188,-0.54687 V 420.953 Z m 19.19141,0 v 0.54688 h 0.60938 c 0.625,0 1.17187,0.0625 1.17187,0.75 0,0.14062 -0.0156,0.25 -0.0156,0.35937 v 9.6875 c 0,0.75 -0.57812,0.8125 -1.1875,0.8125 h -0.57812 v 0.54688 h 5.625 c 0.34375,0 0.71875,0.0156 1.09375,0.0156 1.60937,0 3.71875,-0.625 4.23437,-2.64062 0.0781,-0.21875 0.10938,-0.48438 0.10938,-0.71875 0,-1.89063 -1.89063,-3.28125 -3.5625,-3.28125 0.28125,-0.10938 0.57812,-0.14063 0.84375,-0.25 1.17187,-0.42188 2.21875,-1.42188 2.21875,-2.70313 0,-1.32812 -1.10938,-2.375 -2.28125,-2.82812 -0.70313,-0.26563 -1.46875,-0.3125 -2.21875,-0.3125 -0.34375,0 -0.70313,0.0156 -1.0625,0.0156 z m 3.1875,6.28125 h 2.53125 c 0.25,0 0.53125,-0.0156 0.79687,-0.0156 1.79688,0 2.85938,1.45312 2.85938,2.96875 0,1.8125 -1.42188,2.9375 -3.25,2.9375 -0.28125,0 -0.54688,-0.0156 -0.79688,-0.0156 h -1.4375 c -0.5,0 -0.70312,-0.1875 -0.70312,-0.6875 z m 0,-0.375 v -4.70312 c 0,-0.48438 0.20312,-0.65625 0.6875,-0.65625 h 2.29688 c 1.14062,0 2.01562,0.39062 2.53124,1.51562 0.125,0.34375 0.21875,0.70313 0.21875,1.07813 0,1.76562 -1.56249,2.76562 -3.20312,2.76562 z m 0,0"
       style="fill:#000000;fill-opacity:1;fill-rule:nonzero;stroke:none;stroke-width:1.33333"
       aria-label="WB" /><path
       id="path63"
       d="m -437.6974,456.82023 v 0.54688 h 0.625 c 0.65625,0 1.23437,0.0625 1.23437,0.78125 v 10.03125 c 0,0.70312 -0.57812,0.8125 -1.17187,0.8125 -0.25,0 -0.48438,-0.0156 -0.6875,-0.0156 v 0.54688 h 5.21875 v -0.54688 c -0.21875,0 -0.4375,0.0156 -0.67188,0.0156 -0.625,0 -1.1875,-0.0781 -1.1875,-0.8125 v -10.03125 c 0,-0.71875 0.64063,-0.78125 1.26563,-0.78125 h 0.59375 v -0.54688 z m 6.66406,0.0312 v 0.54688 h 0.57812 c 0.625,0 1.20313,0.0781 1.20313,0.75 0,0.10937 -0.0156,0.23437 -0.0156,0.34375 v 9.67187 c 0,0.75 -0.57812,0.8125 -1.1875,0.8125 h -0.57812 v 0.54688 h 5.48437 v -0.54688 c -0.25,0 -0.51562,0.0156 -0.82812,0.0156 -0.89063,0 -1.39063,-0.0781 -1.39063,-0.89063 v -4.64062 h 1.5625 c 0.98438,0 2.03125,0.0781 2.03125,1.84375 v 0.32812 h 0.40625 v -4.89062 h -0.40625 v 0.34375 c 0,1.39062 -0.5,1.82812 -2.3125,1.82812 h -1.28125 v -4.84375 c 0,-0.53125 0.23438,-0.67187 0.73438,-0.67187 h 2.15625 c 1.03125,0 2.29687,0.0156 3,0.90625 0.57812,0.75 0.65625,1.78125 0.76562,2.70312 h 0.40625 l -0.48437,-4.15625 z m 0,0"
       style="fill:#000000;fill-opacity:1;fill-rule:nonzero;stroke:none;stroke-width:1.33333"
       aria-label="IF" /><path
       id="path64"
       d="m -373.92787,456.82023 v 0.54688 h 0.625 c 0.65625,0 1.23438,0.0625 1.23438,0.78125 v 10.03125 c 0,0.70312 -0.57813,0.8125 -1.17188,0.8125 -0.25,0 -0.48437,-0.0156 -0.6875,-0.0156 v 0.54688 h 5.21875 v -0.54688 c -0.21875,0 -0.4375,0.0156 -0.67187,0.0156 -0.625,0 -1.1875,-0.0781 -1.1875,-0.8125 v -10.03125 c 0,-0.71875 0.64062,-0.78125 1.26562,-0.78125 h 0.59375 v -0.54688 z m 6.67579,0 v 0.54688 h 0.59375 c 0.60937,0 1.1875,0.0625 1.1875,0.78125 0,0.125 -0.0156,0.23437 -0.0156,0.34375 v 9.67187 c 0,0.71875 -0.5625,0.82813 -1.10938,0.82813 -0.23437,0 -0.45312,-0.0156 -0.65625,-0.0156 v 0.54688 h 5.0625 c 0.35938,0 0.73438,0.0156 1.125,0.0156 1.375,0 2.625,-0.35937 3.79688,-1.35937 1.40625,-1.25 2.125,-3.07813 2.125,-4.9375 0,-3.20313 -2.09375,-6.4375 -6,-6.4375 -0.375,0 -0.76563,0.0156 -1.14063,0.0156 z m 10.39062,7.15625 c -0.14063,2.15625 -0.79687,4.10938 -3.15625,4.85938 -0.5625,0.14062 -1.125,0.14062 -1.6875,0.14062 h -1.59375 c -0.35937,0 -0.73437,-0.0312 -0.73437,-0.625 0,-0.15625 0.0156,-0.28125 0.0156,-0.40625 v -9.23437 c 0,-0.15625 -0.0156,-0.34375 -0.0156,-0.53125 0,-0.48438 0,-0.8125 0.875,-0.8125 h 1.59375 c 1.29687,0 2.60937,0.26562 3.64062,1.625 0.95313,1.26562 1.07813,2.89062 1.07813,4.39062 0,0.20313 0,0.39063 -0.0156,0.59375 z m 0,0"
       style="fill:#000000;fill-opacity:1;fill-rule:nonzero;stroke:none;stroke-width:1.33333"
       aria-label="ID" /><path
       id="path65"
       d="m -310.756,456.85148 v 0.54688 h 0.5625 c 0.64063,0 1.21875,0.0781 1.21875,0.75 0,0.10937 -0.0156,0.23437 -0.0156,0.34375 v 9.67187 c 0,0.75 -0.57813,0.8125 -1.20313,0.8125 h -0.5625 v 0.54688 h 10.375 l 0.73438,-4.76563 h -0.40625 c -0.20313,1.14063 -0.3125,2.5 -1.10938,3.32813 -0.82812,0.85937 -2.125,0.89062 -3.23437,0.89062 h -2.3125 c -0.45313,0 -0.78125,-0.0469 -0.78125,-0.6875 v -5.07812 h 1.75 c 0.625,0 1.3125,0.0469 1.67187,0.5625 0.26563,0.40625 0.28125,0.95312 0.28125,1.4375 v 0.1875 h 0.40625 v -4.89063 h -0.40625 v 0.1875 c 0,0.9375 -0.15625,1.78125 -1.34375,1.95313 -0.34375,0.0312 -0.6875,0.0312 -1.03125,0.0312 h -1.32812 v -4.65625 c 0,-0.57813 0.35937,-0.625 0.78125,-0.625 h 2.34375 c 1,0 2.25,0.0156 2.95312,0.8125 0.67188,0.75 0.70313,1.84375 0.85938,2.79687 h 0.40625 l -0.48438,-4.15625 z m 12.29297,-0.0312 v 0.54688 h 0.4375 c 0.57813,0 1.125,0.0469 1.53125,0.64062 1.07813,1.53125 2.09375,3.10938 3.125,4.67188 l 0.21875,0.32812 c 0.0313,0.0625 0.0937,0.10938 0.0937,0.1875 0,0.17188 -0.20313,0.35938 -0.29688,0.5 -0.75,1.14063 -1.5,2.25 -2.28125,3.35938 -0.34375,0.51562 -0.67187,1.07812 -1.20312,1.42187 -0.53125,0.375 -1.21875,0.5 -1.875,0.5 v 0.54688 h 4.07812 v -0.54688 c -0.45312,-0.0156 -1,-0.3125 -1,-0.79687 v -0.0937 c 0.0781,-0.40625 0.51563,-0.875 0.79688,-1.28125 0.60937,-0.89063 1.23437,-1.79688 1.84375,-2.71875 0.0781,-0.14063 0.20312,-0.28125 0.26562,-0.42188 0.32813,0.40625 0.59375,0.85938 0.875,1.28125 l 2.0625,3.0625 c 0.0781,0.125 0.20313,0.26563 0.23438,0.42188 0,0.39062 -0.67188,0.54687 -1.0625,0.54687 v 0.54688 h 4.71875 v -0.54688 h -0.28125 c -0.6875,0 -1.28125,-0.0312 -1.76563,-0.78125 -1.17187,-1.76562 -2.34375,-3.51562 -3.53125,-5.25 -0.0937,-0.15625 -0.32812,-0.42187 -0.32812,-0.5625 0,-0.20312 0.70312,-1.07812 1.03125,-1.5625 0.375,-0.5625 0.76562,-1.09375 1.14062,-1.65625 0.3125,-0.48437 0.60938,-0.96875 1.09375,-1.29687 0.54688,-0.375 1.23438,-0.5 1.875,-0.5 v -0.54688 h -4.0625 v 0.54688 c 0.4375,0.0156 1,0.3125 1,0.79687 0,0.45313 -0.59375,1.07813 -0.90625,1.5625 -0.32812,0.45313 -0.64062,0.90625 -0.95312,1.375 -0.1875,0.28125 -0.35938,0.57813 -0.57813,0.82813 -0.125,-0.3125 -0.4375,-0.70313 -0.67187,-1.01563 -0.42188,-0.64062 -0.82813,-1.25 -1.26563,-1.875 l -0.5,-0.76562 c -0.0781,-0.0937 -0.1875,-0.21875 -0.1875,-0.35938 v -0.0156 c 0,-0.35938 0.67188,-0.53125 1.0625,-0.53125 v -0.54688 z m 0,0"
       style="fill:#000000;fill-opacity:1;fill-rule:nonzero;stroke:none;stroke-width:1.33333"
       aria-label="EX" /><path
       id="path66"
       d="m -256.89271,456.82023 v 0.54688 h 0.625 c 0.60937,0 1.17187,0.0625 1.17187,0.75 0,0.14062 -0.0312,0.25 -0.0312,0.35937 v 9.1875 c 0,1.1875 -0.98437,1.3125 -1.76562,1.3125 v 0.54688 h 3.98437 v -0.54688 c -0.85937,0 -1.76562,-0.15625 -1.76562,-1.40625 l 0.0156,-10.14062 c 0.0937,0.32812 0.25,0.64062 0.35938,0.95312 1.07812,2.76563 2.09375,5.51563 3.15625,8.29688 l 0.84375,2.17187 c 0.0625,0.23438 0.14062,0.60938 0.42187,0.67188 h 0.0156 c 0.28125,0 0.35937,-0.4375 0.4375,-0.64063 l 3.28125,-8.57812 c 0.25,-0.65625 0.48437,-1.3125 0.75,-1.95313 l 0.21875,-0.625 c 0.0625,-0.125 0.10937,-0.25 0.15625,-0.40625 l 0.0156,10.42188 c 0,0.14062 0.0156,0.3125 0.0156,0.45312 0,0.71875 -0.57813,0.79688 -1.15625,0.79688 -0.21875,0 -0.4375,-0.0156 -0.625,-0.0156 v 0.54688 h 4.90625 v -0.54688 h -0.59375 c -0.60938,0 -1.1875,-0.0625 -1.1875,-0.78125 0,-0.125 0.0156,-0.23437 0.0156,-0.34375 v -9.67187 c 0,-0.73438 0.5625,-0.84375 1.10938,-0.84375 0.23437,0 0.45312,0.0312 0.65625,0.0312 v -0.54688 h -2.98438 l -0.3125,0.0625 -0.375,0.79688 -3.82812,10.0625 h -0.0312 l -3.82813,-10.0625 -0.375,-0.79688 -0.3125,-0.0625 z m 16.61718,0.0312 v 0.54688 h 0.5625 c 0.64063,0 1.21875,0.0781 1.21875,0.75 0,0.10937 -0.0156,0.23437 -0.0156,0.34375 v 9.67187 c 0,0.75 -0.57813,0.8125 -1.20313,0.8125 h -0.5625 v 0.54688 h 10.375 l 0.73438,-4.76563 h -0.40625 c -0.20313,1.14063 -0.3125,2.5 -1.10938,3.32813 -0.82812,0.85937 -2.125,0.89062 -3.23437,0.89062 h -2.3125 c -0.45313,0 -0.78125,-0.0469 -0.78125,-0.6875 v -5.07812 h 1.75 c 0.625,0 1.3125,0.0469 1.67187,0.5625 0.26563,0.40625 0.28125,0.95312 0.28125,1.4375 v 0.1875 h 0.40625 v -4.89063 h -0.40625 v 0.1875 c 0,0.9375 -0.15625,1.78125 -1.34375,1.95313 -0.34375,0.0312 -0.6875,0.0312 -1.03125,0.0312 h -1.32812 v -4.65625 c 0,-0.57813 0.35937,-0.625 0.78125,-0.625 h 2.34375 c 1,0 2.25,0.0156 2.95312,0.8125 0.67188,0.75 0.70313,1.84375 0.85938,2.79687 h 0.40625 l -0.48438,-4.15625 z m 12.44922,-0.0312 v 0.54688 h 0.625 c 0.60938,0 1.17188,0.0625 1.17188,0.75 0,0.14062 -0.0313,0.25 -0.0313,0.35937 v 9.1875 c 0,1.1875 -0.98437,1.3125 -1.76562,1.3125 v 0.54688 h 3.98437 v -0.54688 c -0.85937,0 -1.76562,-0.15625 -1.76562,-1.40625 l 0.0156,-10.14062 c 0.0937,0.32812 0.25,0.64062 0.35938,0.95312 1.07812,2.76563 2.09375,5.51563 3.15625,8.29688 l 0.84375,2.17187 c 0.0625,0.23438 0.14062,0.60938 0.42188,0.67188 h 0.0156 c 0.28125,0 0.35938,-0.4375 0.4375,-0.64063 l 3.28125,-8.57812 c 0.25,-0.65625 0.48438,-1.3125 0.75,-1.95313 l 0.21875,-0.625 c 0.0625,-0.125 0.10938,-0.25 0.15625,-0.40625 l 0.0156,10.42188 c 0,0.14062 0.0156,0.3125 0.0156,0.45312 0,0.71875 -0.57812,0.79688 -1.15625,0.79688 -0.21875,0 -0.4375,-0.0156 -0.625,-0.0156 v 0.54688 h 4.90625 v -0.54688 h -0.59375 c -0.60937,0 -1.1875,-0.0625 -1.1875,-0.78125 0,-0.125 0.0156,-0.23437 0.0156,-0.34375 v -9.67187 c 0,-0.73438 0.5625,-0.84375 1.10938,-0.84375 0.23437,0 0.45312,0.0312 0.65625,0.0312 v -0.54688 h -2.98438 l -0.3125,0.0625 -0.375,0.79688 -3.82812,10.0625 h -0.0313 l -3.82812,-10.0625 -0.375,-0.79688 -0.3125,-0.0625 z m 0,0"
       style="fill:#000000;fill-opacity:1;fill-rule:nonzero;stroke:none;stroke-width:1.33333"
       aria-label="MEM" /><path
       id="path67"
       d="m -187.65443,456.82023 v 0.54688 h 0.28125 c 0.40625,0 0.85937,0.0156 1.07812,0.26562 0.20313,0.25 0.26563,0.59375 0.35938,0.90625 l 0.54687,1.71875 c 0.95313,3 1.95313,5.95313 2.89063,8.95313 l 0.10937,0.32812 c 0.0625,0.1875 0.125,0.375 0.32813,0.375 h 0.0625 c 0.375,-0.10937 0.89062,-2.3125 1.26562,-3.40625 0.6875,-2.04687 1.35938,-4.10937 1.96875,-6.17187 0.0625,-0.125 0.10938,-0.26563 0.125,-0.40625 h 0.0312 c 0.0469,0.40625 0.29688,0.92187 0.42188,1.375 0.90625,2.76562 1.84375,5.51562 2.67187,8.32812 0.0625,0.125 0.10938,0.23438 0.26563,0.28125 h 0.0625 c 0.20312,0 0.26562,-0.1875 0.32812,-0.375 l 0.10938,-0.32812 c 1.10937,-3.5 2.25,-6.9375 3.34375,-10.4375 0.26562,-0.70313 0.59374,-1.40625 1.81249,-1.40625 v -0.54688 h -3.59374 v 0.54688 c 0.59375,0 1.46875,0.26562 1.46875,0.98437 0,0.26563 -0.1875,0.6875 -0.29688,0.98438 -0.92187,2.70312 -1.84375,5.42187 -2.625,8.17187 h -0.0156 c -0.17188,-0.76562 -0.48438,-1.51562 -0.71875,-2.26562 -0.6875,-2.21875 -1.42188,-4.42188 -2.125,-6.625 -0.0781,-0.20313 -0.20313,-0.51563 -0.20313,-0.70313 0,-0.53125 0.92188,-0.54687 1.4375,-0.54687 v -0.54688 h -4.53125 v 0.54688 h 0.35938 c 0.28125,0 0.59375,0.0156 0.8125,0.125 0.40625,0.21875 0.53125,0.96875 0.64062,1.3125 0.0469,0.14062 0.125,0.29687 0.125,0.45312 v 0.0312 c -0.0312,0.23438 -0.14062,0.45313 -0.20312,0.65625 -0.71875,2.25 -1.4375,4.51563 -2.17188,6.76563 -0.0937,0.26562 -0.20312,0.51562 -0.25,0.78125 -0.125,-0.1875 -0.15625,-0.46875 -0.23437,-0.6875 -0.90625,-2.71875 -1.76563,-5.48438 -2.65625,-8.21875 l -0.10938,-0.39063 c -0.0469,-0.0937 -0.0781,-0.1875 -0.0781,-0.28125 0,-0.54687 0.92187,-0.54687 1.42187,-0.54687 v -0.54688 z m 19.18749,0 v 0.54688 h 0.60938 c 0.625,0 1.17187,0.0625 1.17187,0.75 0,0.14062 -0.0156,0.25 -0.0156,0.35937 v 9.6875 c 0,0.75 -0.57812,0.8125 -1.1875,0.8125 h -0.57812 v 0.54688 h 5.625 c 0.34375,0 0.71875,0.0156 1.09375,0.0156 1.60937,0 3.71875,-0.625 4.23437,-2.64062 0.0781,-0.21875 0.10938,-0.48438 0.10938,-0.71875 0,-1.89063 -1.89063,-3.28125 -3.5625,-3.28125 0.28125,-0.10938 0.57812,-0.14063 0.84375,-0.25 1.17187,-0.42188 2.21875,-1.42188 2.21875,-2.70313 0,-1.32812 -1.10938,-2.375 -2.28125,-2.82812 -0.70313,-0.26563 -1.46875,-0.3125 -2.21875,-0.3125 -0.34375,0 -0.70313,0.0156 -1.0625,0.0156 z m 3.1875,6.28125 h 2.53125 c 0.25,0 0.53125,-0.0156 0.79688,-0.0156 1.79687,0 2.85937,1.45312 2.85937,2.96875 0,1.8125 -1.42187,2.9375 -3.25,2.9375 -0.28125,0 -0.54687,-0.0156 -0.79687,-0.0156 h -1.4375 c -0.5,0 -0.70313,-0.1875 -0.70313,-0.6875 z m 0,-0.375 v -4.70312 c 0,-0.48438 0.20313,-0.65625 0.6875,-0.65625 h 2.29688 c 1.14062,0 2.01562,0.39062 2.53125,1.51562 0.125,0.34375 0.21875,0.70313 0.21875,1.07813 0,1.76562 -1.5625,2.76562 -3.20313,2.76562 z m 0,0"
       style="fill:#000000;fill-opacity:1;fill-rule:nonzero;stroke:none;stroke-width:1.33333"
       aria-label="WB" /></g></svg>
